<?xml version="1.0" encoding="utf-8"?><svg xmlns="http://www.w3.org/2000/svg" xmlns:xlink="http://www.w3.org/1999/xlink"><symbol viewBox="0 0 344.96 344.96" id="check" xmlns="http://www.w3.org/2000/svg"><g data-name="Слой 2"><path d="M321.85 86.24l-40-23.11-23.1-40H212.5L172.48 0l-40 23.11H86.24l-23.11 40-40 23.1v46.21L0 172.48l23.11 40v46.21l40 23.11 23.11 40h46.21l40 23.1 40-23.11h46.21l23.11-40 40-23.11V212.5l23.11-40-23.11-40V86.24zM156.91 243.07a16.79 16.79 0 0 1-23.34 0l-50.45-50.44a16.19 16.19 0 0 1 0-22.89l13.35-13.35a16.19 16.19 0 0 1 22.89 0l25.87 25.87 80.34-80.35a16.19 16.19 0 0 1 22.89 0l13.35 13.35a16.19 16.19 0 0 1 0 22.89z" data-name="Capa 1"/></g></symbol><symbol viewBox="0 0 512.13 353.53" id="email" xmlns="http://www.w3.org/2000/svg"><g data-name="Слой 2"><g data-name="Layer 3"><path d="M512.13 247.13c-1 4-1.83 8.11-2.95 12.1-3.46 12.45-9.51 23.45-18.91 32.42-12.72 12.14-27.9 15.75-44.81 12-10.92-2.43-17.11-9.84-18.45-21-.11-.95-.25-1.91-.51-3.94-1.09 1.94-1.75 3-2.26 4.06C417.11 298 405 305.44 388.35 305s-27.6-9.82-33.88-24.62c-10.47-24.72-1.85-62.32 18-80.4 8.82-8 19.46-11.62 31.14-11.55 11.43.07 19.72 6.12 25.69 15.64.13-.09.55-.22.57-.39C431.06 191 431.06 191 443.72 191h2.5c7.22 0 7.21.27 6.62 7.31-1.71 20.41-3.38 40.82-4.66 61.25a56.42 56.42 0 0 0 1.36 16.34c2.39 10.14 10.67 13.78 19.47 8.17 4.71-3 9.48-7.46 11.82-12.4 13-27.27 11.46-69.11-15.77-93.15-11.37-10-24.74-15.52-39.53-17.81-19.68-3-39.06-2.42-57 7.23-27.91 15-43.2 38.7-46.41 70.24-1.6 15.83-.43 31.42 5.48 46.2C339 313 361 328.67 391 332.9c23 3.24 45.55 1.14 67.09-8.29a26 26 0 0 1 3.07-.79c0 6.36.3 12.31-.21 18.18-.13 1.4-2.79 3.35-4.55 3.72-12.85 2.64-25.69 6-38.7 7.12-21.76 1.87-43.45.33-63.52-9.49-34.52-16.89-53.11-44.8-56.18-83.07-1.57-19.58.44-38.77 8.78-56.66C325 164.63 355.53 143 398.72 140c21.49-1.52 42.42.92 61.62 11.19 27.64 14.77 46.31 36.59 51 68.61a14.71 14.71 0 0 0 .78 2.35zM426 235.83c0-3.33.25-6.68 0-10-.82-9-5.61-15.56-12.88-17.18-8.71-1.93-17-.88-23.63 5.77a43.23 43.23 0 0 0-7.63 9.77 63 63 0 0 0-6.51 42.06c2.58 14 12.58 21.77 25.26 19.67 9.34-1.55 15.3-7.79 18.95-16.11a78 78 0 0 0 6.44-33.98z"/><path d="M36.12 71.14v181.74c0 7.43 0 7.45 7.49 7.45h210c7.93 0 7.62.06 8.65 7.93 1.07 8.22 2.81 16.34 4.37 25.14a46 46 0 0 1-5.5.63q-118.47 0-236.95-.07a39.21 39.21 0 0 1-12.69-2.17c-7.34-2.57-11-8.27-11.38-16-.08-1.66-.06-3.33-.06-5V24.81C0 7.26 7.31 0 25 0q175.19 0 350.4.13a34.7 34.7 0 0 1 14.39 3c6.83 3.2 9.28 9.92 9.33 17.08.19 26.83.13 53.66 0 80.48 0 1.48-1.16 4.09-2.12 4.26-11.08 2-22.22 3.65-34.1 5.51V70.77c-3 2.19-4.83 3.47-6.6 4.83l-142 108.89c-11.6 8.89-16.54 8.87-28.37-.09L41.74 75.15c-1.43-1.08-2.92-2.09-5.62-4.01zm12.53-34.59c1.58 1.36 2.28 2 3.05 2.61q72.62 54.78 145.16 109.64c3.29 2.49 5.18 1.33 7.77-.63q64.74-49 129.55-98C339.8 46 345.36 41.62 352 36.55z"/></g></g></symbol><symbol viewBox="0 0 620.55 660.67" id="mark" xmlns="http://www.w3.org/2000/svg"><g data-name="Слой 2"><g data-name="Layer 3"><path d="M514.42 196.36c-.22 52.5-13.89 91.17-38.74 126.2-19.4 27.35-38.59 54.85-58 82.21s-38.95 54.61-58.39 81.94q-16.59 23.32-33 46.76c-6.38 9.1-15.3 13.08-22.85 8.39-4.88-3-8.84-8-12.28-12.78-18.61-25.88-36.94-52-55.34-78q-30.93-43.7-61.82-87.45c-12.34-17.5-24.94-34.83-36.73-52.7-14.24-21.58-23.37-45.35-28.16-70.82-4.24-22.6-3.05-45 .81-67.54a213.58 213.58 0 0 1 32.36-82.43 200 200 0 0 1 59.75-59 193.9 193.9 0 0 1 71-27.8 203.44 203.44 0 0 1 65.62-1.25 206 206 0 0 1 85.79 33 200.18 200.18 0 0 1 53.61 52.83 194.91 194.91 0 0 1 26.74 54.86c6.21 20.43 9.83 41.4 9.63 53.58zm-328.14 4.86c0 68.33 55.82 124.07 124.14 124s124-55.92 124-124.23c0-68.11-55.68-123.68-123.92-123.73-68.5 0-124.25 55.58-124.22 123.96z"/><path d="M0 660.67c5.66-10.77 11-20.89 16.28-31Q37.52 589.35 58.77 549q18.84-35.68 37.75-71.32 13.14-24.9 26.11-49.88c1.62-3.15 3.57-4.61 7.33-4.57 18.83.19 37.66.05 56.49.14 1.69 0 4.11.28 5 1.38 5.23 6.8 10.11 13.87 15.76 21.78-2.87.19-4.75.41-6.62.41-18.66 0-37.33.1-56-.05-3.62 0-5.63 1.07-7.35 4.39-9.85 19-20 37.89-30 56.83a44.26 44.26 0 0 0-1.73 4.63h6.37c29.16 0 58.33.12 87.49-.11 5.1 0 6.9 1.47 6.42 6.52a84 84 0 0 0 0 12.49c.2 3.75-1.36 4.94-5 4.91-14.17-.13-28.33-.05-42.5-.05-20.16 0-40.33.06-60.49-.06-3.91 0-6.07 1.07-8 4.91-11.06 21.57-22.61 42.89-34 64.32-5.35 10.1-10.63 20.24-16.32 31.07h258.85V584.1H322V637h258.23c-4-7.43-7.66-14.22-11.4-21-14-25.09-28.1-50.11-41.87-75.31-1.89-3.45-4.05-4.24-7.49-4.23q-50.5.09-101 0c-7.24 0-7.24 0-7.25-7.46 0-3.66.24-7.35-.06-11-.35-4.22 1.32-5.41 5.41-5.38 25.5.15 51 .07 76.5.07h18.15c-3.72-6.85-6.89-12.74-10.12-18.59-7.63-13.8-15.38-27.54-22.87-41.42-2.18-4-4.65-6-9.63-5.91-16.16.37-32.33.14-48.5.14h-6.8c3.46-4.9 6.73-8.47 8.78-12.64 4.45-9.06 11.08-12 21.15-11.25 13.77 1 27.65.31 41.48.19 3 0 4.74.93 6.26 3.68Q518.86 477.57 547 528q33.06 59.43 66.15 118.82c2.41 4.33 4.69 8.74 7.4 13.81z"/></g></g></symbol><symbol viewBox="0 0 454.91 954.43" id="tel" xmlns="http://www.w3.org/2000/svg"><g data-name="Слой 2"><g data-name="Layer 3"><path d="M0 477V68C0 34.42 21.56 7.86 54.46 1.23A74.62 74.62 0 0 1 68.87.06Q228.11 0 387.35 0c39.61 0 67.54 28.09 67.54 67.78v818.45c0 38.63-29.31 68.08-67.92 68.11q-159.75.09-319.48 0c-38.34 0-67.5-29.5-67.5-67.89zm429.4-7.23V145.33c0-12.27-4.55-16.75-16.94-16.75H43.53a33.11 33.11 0 0 0-6 .25c-7.53 1.41-11 6.67-11 16.44v648.38a41.47 41.47 0 0 0 .2 5 12.48 12.48 0 0 0 11.49 11.22c1.82.17 3.66.15 5.49.15h368.45a48.31 48.31 0 0 0 6.48-.27 12.31 12.31 0 0 0 10.48-10.53 52.52 52.52 0 0 0 .27-7q.02-161.22.01-322.45zm-240.83 409.9a39.85 39.85 0 0 0 39.16 39.7c21.5.25 39.71-18 39.63-39.72a39.4 39.4 0 0 0-78.79 0zM228 74.61h33.91c5.35 0 8-2.1 8-6s-2.69-6-8.08-6h-67.32c-4.7 0-8.47 3-8.51 6.56s3 5.46 8.56 5.47q16.75-.01 33.44-.03z"/><path d="M230 619c-18.72-2.05-34-10.57-47.87-21.85-20.6-16.7-36-37.79-49.4-60.36-14.51-24.37-26.92-49.68-33.18-77.58-3.9-17.4-5.29-34.84.23-52.24 3.19-10 8.42-18.31 18.2-23.26 4.88-2.48 9.35-5.76 14.09-8.51 6.29-3.63 12.11-2.1 15.7 4.06q13.82 23.7 27.56 47.45c3.36 5.8 2.24 10.25-3.62 13.89-5.5 3.43-11.08 6.75-16.69 10-8.07 4.67-10.25 8.69-7.38 17.66A180.28 180.28 0 0 0 158 494a244 244 0 0 0 32.16 48.59 51.26 51.26 0 0 0 6.46 6.21c4.19 3.43 8.55 3.8 13.29.69 5.84-3.84 11.85-7.41 17.86-11 6.7-3.95 11-2.74 14.8 3.94q13.11 22.95 26.25 45.91c3.55 6.22 2.53 10.37-3.65 14.25-6.62 4.15-13.1 8.64-20.1 12.06-4.58 2.35-9.99 2.94-15.07 4.35zm135.94-134.09c-1 9.75-1.94 19.51-3.12 29.24-.62 5.14-4.26 8.59-7.88 8.05-4.54-.67-7.69-5.45-6.7-10.58 14.27-73.74-31.32-139.1-93.38-162.23-.93-.35-1.89-.65-2.79-1.06-4-1.84-6.12-6-4.93-9.8 1.12-3.55 5.66-6 9.85-4.71a114.12 114.12 0 0 1 14.43 5.47q80.35 37.33 92.65 125.15a50.09 50.09 0 0 1 .76 5.93c.11 4.83 0 9.66 0 14.48z"/><path d="M319.35 486.56c-.74 6.76-1.36 13.55-2.27 20.29-.68 5-3.71 7.38-7.89 6.76a8.3 8.3 0 0 1-6.66-9.55c2.35-13.41 2.65-26.84-.51-40.13-8.28-34.89-28.53-59.39-62.82-71.52-1.7-.61-3.61-1.13-4.91-2.27-2.81-2.47-4.39-5.67-2.26-9.31 2.33-4 5.88-5 10.29-3.54 18.39 6.11 34.4 16 47.05 30.72 19.36 22.49 29.63 48.59 29.98 78.55zM272 483c-.77 5.44-1.06 9.45-1.95 13.31-1.12 4.85-4.27 7.16-8 6.44-4.1-.8-6.84-4.69-6.29-9.34 1.25-10.64 0-20.83-4.74-30.57a46.56 46.56 0 0 0-26.65-24.13c-3.68-1.36-6-3.59-6.34-7.46-.53-5.73 5.4-9.29 11.71-6.86 18.81 7.26 31.68 20.46 38 39.59 2.26 6.57 3.09 13.55 4.26 19.02z"/></g></g></symbol></svg>