<svg xmlns="http://www.w3.org/2000/svg" viewBox="0 0 512.13 353.53"><title>email</title><g id="Слой_2" data-name="Слой 2"><g id="Layer_3" data-name="Layer 3"><path d="M512.13,247.13c-1,4-1.83,8.11-2.95,12.1-3.46,12.45-9.51,23.45-18.91,32.42-12.72,12.14-27.9,15.75-44.81,12-10.92-2.43-17.11-9.84-18.45-21-.11-.95-.25-1.91-.51-3.94-1.09,1.94-1.75,3-2.26,4.06C417.11,298,405,305.44,388.35,305s-27.6-9.82-33.88-24.62c-10.47-24.72-1.85-62.32,18-80.4,8.82-8,19.46-11.62,31.14-11.55,11.43.07,19.72,6.12,25.69,15.64.13-.09.55-.22.57-.39C431.06,191,431.06,191,443.72,191h2.5c7.22,0,7.21.27,6.62,7.31-1.71,20.41-3.38,40.82-4.66,61.25a56.42,56.42,0,0,0,1.36,16.34c2.39,10.14,10.67,13.78,19.47,8.17,4.71-3,9.48-7.46,11.82-12.4,13-27.27,11.46-69.11-15.77-93.15-11.37-10-24.74-15.52-39.53-17.81-19.68-3-39.06-2.42-57,7.23-27.91,15-43.2,38.7-46.41,70.24-1.6,15.83-.43,31.42,5.48,46.2C339,313,361,328.67,391,332.9c23,3.24,45.55,1.14,67.09-8.29a26,26,0,0,1,3.07-.79c0,6.36.3,12.31-.21,18.18-.13,1.4-2.79,3.35-4.55,3.72-12.85,2.64-25.69,6-38.7,7.12-21.76,1.87-43.45.33-63.52-9.49-34.52-16.89-53.11-44.8-56.18-83.07-1.57-19.58.44-38.77,8.78-56.66C325,164.63,355.53,143,398.72,140c21.49-1.52,42.42.92,61.62,11.19,27.64,14.77,46.31,36.59,51,68.61a14.71,14.71,0,0,0,.78,2.35ZM426,235.83c0-3.33.25-6.68,0-10-.82-9-5.61-15.56-12.88-17.18-8.71-1.93-17-.88-23.63,5.77a43.23,43.23,0,0,0-7.63,9.77,63,63,0,0,0-6.51,42.06c2.58,14,12.58,21.77,25.26,19.67,9.34-1.55,15.3-7.79,18.95-16.11A78,78,0,0,0,426,235.83Z"/><path d="M36.12,71.14V252.88c0,7.43,0,7.45,7.49,7.45h210c7.93,0,7.62.06,8.65,7.93,1.07,8.22,2.81,16.34,4.37,25.14a46,46,0,0,1-5.5.63q-118.47,0-236.95-.07a39.21,39.21,0,0,1-12.69-2.17c-7.34-2.57-11-8.27-11.38-16-.08-1.66-.06-3.33-.06-5V24.81C0,7.26,7.31,0,25,0Q200.19,0,375.4.13a34.7,34.7,0,0,1,14.39,3c6.83,3.2,9.28,9.92,9.33,17.08.19,26.83.13,53.66,0,80.48,0,1.48-1.16,4.09-2.12,4.26-11.08,2-22.22,3.65-34.1,5.51V70.77c-3,2.19-4.83,3.47-6.6,4.83l-142,108.89c-11.6,8.89-16.54,8.87-28.37-.09L41.74,75.15C40.31,74.07,38.82,73.06,36.12,71.14ZM48.65,36.55c1.58,1.36,2.28,2,3.05,2.61Q124.32,93.94,196.86,148.8c3.29,2.49,5.18,1.33,7.77-.63q64.74-49,129.55-98C339.8,46,345.36,41.62,352,36.55Z"/></g></g></svg>