<svg xmlns="http://www.w3.org/2000/svg" viewBox="0 0 620.55 660.67"><title>mark</title><g id="Слой_2" data-name="Слой 2"><g id="Layer_3" data-name="Layer 3"><path d="M514.42,196.36c-.22,52.5-13.89,91.17-38.74,126.2-19.4,27.35-38.59,54.85-58,82.21s-38.95,54.61-58.39,81.94q-16.59,23.32-33,46.76c-6.38,9.1-15.3,13.08-22.85,8.39-4.88-3-8.84-8-12.28-12.78-18.61-25.88-36.94-52-55.34-78Q204.89,407.38,174,363.63c-12.34-17.5-24.94-34.83-36.73-52.7-14.24-21.58-23.37-45.35-28.16-70.82-4.24-22.6-3.05-45,.81-67.54a213.58,213.58,0,0,1,32.36-82.43,200,200,0,0,1,59.75-59,193.9,193.9,0,0,1,71-27.8,203.44,203.44,0,0,1,65.62-1.25,206,206,0,0,1,85.79,33,200.18,200.18,0,0,1,53.61,52.83,194.91,194.91,0,0,1,26.74,54.86C511,163.21,514.62,184.18,514.42,196.36Zm-328.14,4.86c0,68.33,55.82,124.07,124.14,124s124-55.92,124-124.23c0-68.11-55.68-123.68-123.92-123.73C242,77.26,186.25,132.84,186.28,201.22Z"/><path d="M0,660.67c5.66-10.77,11-20.89,16.28-31Q37.52,589.35,58.77,549q18.84-35.68,37.75-71.32,13.14-24.9,26.11-49.88c1.62-3.15,3.57-4.61,7.33-4.57,18.83.19,37.66.05,56.49.14,1.69,0,4.11.28,5,1.38,5.23,6.8,10.11,13.87,15.76,21.78-2.87.19-4.75.41-6.62.41-18.66,0-37.33.1-56-.05-3.62,0-5.63,1.07-7.35,4.39-9.85,19-20,37.89-30,56.83a44.26,44.26,0,0,0-1.73,4.63h6.37c29.16,0,58.33.12,87.49-.11,5.1,0,6.9,1.47,6.42,6.52a84,84,0,0,0,0,12.49c.2,3.75-1.36,4.94-5,4.91-14.17-.13-28.33-.05-42.5-.05-20.16,0-40.33.06-60.49-.06-3.91,0-6.07,1.07-8,4.91-11.06,21.57-22.61,42.89-34,64.32-5.35,10.1-10.63,20.24-16.32,31.07H298.33V584.1H322V637H580.23c-4-7.43-7.66-14.22-11.4-21-14-25.09-28.1-50.11-41.87-75.31-1.89-3.45-4.05-4.24-7.49-4.23q-50.5.09-101,0c-7.24,0-7.24,0-7.25-7.46,0-3.66.24-7.35-.06-11-.35-4.22,1.32-5.41,5.41-5.38,25.5.15,51,.07,76.5.07h18.15c-3.72-6.85-6.89-12.74-10.12-18.59-7.63-13.8-15.38-27.54-22.87-41.42-2.18-4-4.65-6-9.63-5.91-16.16.37-32.33.14-48.5.14H413.3c3.46-4.9,6.73-8.47,8.78-12.64,4.45-9.06,11.08-12,21.15-11.25,13.77,1,27.65.31,41.48.19,3,0,4.74.93,6.26,3.68Q518.86,477.57,547,528q33.06,59.43,66.15,118.82c2.41,4.33,4.69,8.74,7.4,13.81Z"/></g></g></svg>