<svg xmlns="http://www.w3.org/2000/svg" viewBox="0 0 454.91 954.43"><title>tel</title><g id="Слой_2" data-name="Слой 2"><g id="Layer_3" data-name="Layer 3"><path d="M0,477V68C0,34.42,21.56,7.86,54.46,1.23A74.62,74.62,0,0,1,68.87.06Q228.11,0,387.35,0c39.61,0,67.54,28.09,67.54,67.78q0,409.23,0,818.45c0,38.63-29.31,68.08-67.92,68.11q-159.75.09-319.48,0c-38.34,0-67.5-29.5-67.5-67.89Zm429.4-7.23V145.33c0-12.27-4.55-16.75-16.94-16.75q-184.45,0-368.93,0a33.11,33.11,0,0,0-6,.25c-7.53,1.41-11,6.67-11,16.44q0,324.19,0,648.38a41.47,41.47,0,0,0,.2,5,12.48,12.48,0,0,0,11.49,11.22c1.82.17,3.66.15,5.49.15H412.16a48.31,48.31,0,0,0,6.48-.27,12.31,12.31,0,0,0,10.48-10.53,52.52,52.52,0,0,0,.27-7Q429.41,631,429.4,469.77ZM188.57,879.67a39.85,39.85,0,0,0,39.16,39.7c21.5.25,39.71-18,39.63-39.72a39.4,39.4,0,0,0-78.79,0ZM228,74.61c11.3,0,22.6,0,33.91,0,5.35,0,8-2.1,8-6s-2.69-6-8.08-6q-33.66,0-67.32,0c-4.7,0-8.47,3-8.51,6.56s3,5.46,8.56,5.47Q211.31,74.63,228,74.61Z"/><path d="M230,619c-18.72-2.05-34-10.57-47.87-21.85-20.6-16.7-36-37.79-49.4-60.36-14.51-24.37-26.92-49.68-33.18-77.58-3.9-17.4-5.29-34.84.23-52.24,3.19-10,8.42-18.31,18.2-23.26,4.88-2.48,9.35-5.76,14.09-8.51,6.29-3.63,12.11-2.1,15.7,4.06q13.82,23.7,27.56,47.45c3.36,5.8,2.24,10.25-3.62,13.89-5.5,3.43-11.08,6.75-16.69,10-8.07,4.67-10.25,8.69-7.38,17.66A180.28,180.28,0,0,0,158,494a244,244,0,0,0,32.16,48.59,51.26,51.26,0,0,0,6.46,6.21c4.19,3.43,8.55,3.8,13.29.69,5.84-3.84,11.85-7.41,17.86-11,6.7-3.95,11-2.74,14.8,3.94q13.11,22.95,26.25,45.91c3.55,6.22,2.53,10.37-3.65,14.25-6.62,4.15-13.1,8.64-20.1,12.06C240.49,617,235.08,617.59,230,619Z"/><path d="M365.94,484.91c-1,9.75-1.94,19.51-3.12,29.24-.62,5.14-4.26,8.59-7.88,8.05-4.54-.67-7.69-5.45-6.7-10.58,14.27-73.74-31.32-139.1-93.38-162.23-.93-.35-1.89-.65-2.79-1.06-4-1.84-6.12-6-4.93-9.8,1.12-3.55,5.66-6,9.85-4.71a114.12,114.12,0,0,1,14.43,5.47q80.35,37.33,92.65,125.15a50.09,50.09,0,0,1,.76,5.93c.11,4.83,0,9.66,0,14.48Z"/><path d="M319.35,486.56c-.74,6.76-1.36,13.55-2.27,20.29-.68,5-3.71,7.38-7.89,6.76a8.3,8.3,0,0,1-6.66-9.55c2.35-13.41,2.65-26.84-.51-40.13-8.28-34.89-28.53-59.39-62.82-71.52-1.7-.61-3.61-1.13-4.91-2.27-2.81-2.47-4.39-5.67-2.26-9.31,2.33-4,5.88-5,10.29-3.54,18.39,6.11,34.4,16,47.05,30.72C308.73,430.5,319,456.6,319.35,486.56Z"/><path d="M272,483c-.77,5.44-1.06,9.45-1.95,13.31-1.12,4.85-4.27,7.16-8,6.44-4.1-.8-6.84-4.69-6.29-9.34,1.25-10.64,0-20.83-4.74-30.57a46.56,46.56,0,0,0-26.65-24.13c-3.68-1.36-6-3.59-6.34-7.46-.53-5.73,5.4-9.29,11.71-6.86,18.81,7.26,31.68,20.46,38,39.59C270,470.55,270.83,477.53,272,483Z"/></g></g></svg>