<svg xmlns="http://www.w3.org/2000/svg" viewBox="0 0 360.52 290.4"><defs><style>.cls-1{fill:#231f20;}.cls-2{fill:#ffcb05;}.cls-3{fill:#d5b029;}.cls-4{fill:#cb2027;}.cls-5{fill:#ffcd05;}.cls-6,.cls-8{fill:#fff;}.cls-7,.cls-8{opacity:0.52;}.cls-9{fill:#faa21b;}</style></defs><title>cat-1</title><g id="Слой_2" data-name="Слой 2"><g id="Layer_1" data-name="Layer 1"><polyline class="cls-1" points="134.27 28.24 107.27 53.24 151.82 29.23"/><path class="cls-2" d="M78.62,5c-15.76,36-26.46,75.45-24.21,114.87,2.82,50.11,4.5,98,19.15,147,3.37,11.82,7.88,19.14,20.83,21.4,2.81.56,6.16.59,8.42-1.1,7.88-5.63,2.28-5.66-2.23-6.22,1.13-22.53,35.1-13.44,50.3-14,16.33-.56,35.29-.63,51.62-2.89,1.13,5.07,2.82,9.58,3.38,14.64-7.88,0-11.83,5.07-2.25,6.76a40,40,0,0,0,14.07-1.12c15.21-3.95,19.15-19.15,20.27-33.23,1.69-14.07,3.95-27.59,6.2-41.1,2.81-14.64,0-29.84,1.12-44.48,1.69-25.91-1.69-49.56-5.63-74.89-3.38-21.4-7.32-45.61-17.45-65.32-4.51-7.88-11.83-18-19.71-22.52C195.74,9.52,190.11,21.35,182.23,27c-6.76,5.07-21.4,1.69-30.41,2.25-18.58.56-40.54-1.13-58.56,2.82-.56-7.89-12.38-20.84-18-23.65"/><path class="cls-3" d="M65.67,67.1C58.91,77.65,72,92,82.14,94.12c17.74,4.23,33.79-11,27-29.56-13.94,4.65-30.41-1.26-44.34,2.11"/><path class="cls-3" d="M152.67,65.83c-7.6,14.78,6.33,32.1,22,30.83C191.1,95.39,200.39,79.77,200,64.14c-8-.84-18.16,1.69-26.61,2.11-4.64,0-8.87-.42-13.51-.84-1.69,0-9.29-.42-7.18.42"/><path class="cls-3" d="M205.46,8.4c0,15.2,2.53,28.71,8.86,42.23,6.76,13.51,7.18,26.66,9.72,40.6,1.26,7.18,5.49,14.53,3,21.28-3.8,9.3-12.22,10.75-20.66,12.44-5.49,1.27-20.3,3.38-24.52,6.76-5.92,4.22,13.09,6.33,17.31,7.6v.42c-6.33,3.8-15.62,7.61-22.8,8.87-10.56,1.27-19.43-3.38-29.56-3.8-9.3-.42-7.36,5.13-1.87,7.67,5.91,2.95,17.91,10.06,24.67,10.91,11,1.26,23.14-1.06,33.7-3.17,7.6-1.69,20.36-12,28-9.92,8.87,2.54-10.24,30.21-16.47,36.14-5.49,5.23,12.24,5.2,12.24,17,0,11.4,2.54,18.63.43,29.61-1.69,10.14-.11,21.12-6.44,29.57-6.76,9.71-12.15,11.82-20.59,16.89,4.22,3,18.58,5.07,23.65,3.38,10.13-4.23,12.67-19,13.51-28.3,2.11-18.58,2.11-39.27,8.45-57.43,5.91-16,.84-32.94-.42-49.83-.85-11-3.38-21.54-5.07-32.52-1.69-9.72-.85-20.27-3-30-3-14.35-6.33-28.29-10.56-42.23-4.64-14.36-13.93-22.38-22.38-33.36"/><path class="cls-4" d="M244.73,120.73c3-1.27,2.53,1.69,4.65,3.38,4.22,2.11,3.8,1.27,8.86,1.27,8.87,0,11.41,3,15.21,9.71,7.6,12.25,14.36,33.36,30.4,36.32,16.47,3,28.3-8,44.35.42h0c-13.52,0-22,5.91-33.37,11.4-9.71,4.65-17.73,8.45-25.33,15.63-7.18,6.75-13.94,8.87-23.23,6.75-7.18-1.69-13.94-5.49-21.12-3-.42-8.45.43-16.47-3.8-24.07s-12.24-12.25-11-22c.85-6.76,6.76-13.1,9.29-19,2.54-5.49,3-12.67,6.76-16.89,0-.84-.84,0-1.27,0"/><path class="cls-4" d="M51.31,125.8c-13.09,1.26-16.89,25.76-19.42,35.47-2.11,7.18-3,16-5.92,22.38-3.8,9.72-11.82,9.72-20.69,11C7,209,32.73,201.39,41.18,201.81c-2.11-9.71-9.72-13.51-4.23-24.49,4.23-8,12.25-14.78,18.59-21.12v.43c2.11-8,5.91-27.88-4.65-31.68"/><path class="cls-5" d="M56.66,155.92c-5.63,8.45-23.08,19.15-20.83,30.41,1.12,5.07,8.45,10.14,11.26,14.08,6.76,8.44,1.69,7.88,1.69,16.89,6.76-.56,11.82-1.69,14.08-7.32,2.25-6.2,0-17.46,0-23.65,0-9.57,0-23.65-5.07-30.41"/><path class="cls-5" d="M230.24,148.2c7.53,9,22.94,18.42,26.32,28.56,2.25,6.75-2.26,11.26-5.07,17.45s-2.25,11.26-2.25,18a87.64,87.64,0,0,0-12.39.56c-1.69-5.63,3.94-18,0-23.08-2.25-2.82-15.77-6.2-19.71-7.89"/><path class="cls-1" d="M60.24,129c-.11-4.56-1.43-9.29-2.31-13.76A57,57,0,0,1,56.73,99a306.16,306.16,0,0,1,4.66-32.31,264.89,264.89,0,0,1,7.15-30A153,153,0,0,1,74,21.92c2.25-5.12,5.44-9.75,7.88-14.8H75a56.06,56.06,0,0,0,10,14c3.91,3.77,8.31,6.37,12.77,9.4,3.16,2.15,6.39-3.44,3-5.08C91.34,20.94,86.05,12.31,81.85,3.14c-1.51-3.3-6.26-2-7.22.94-6.87,21.24-16.74,41-20.77,63.2A133.29,133.29,0,0,0,52,99.86c.63,9.77-1.08,21.38,3.35,30.45,1.17,2.39,5,1.19,4.93-1.34Z"/><path class="cls-1" d="M94.08,32.84c4,.18,7.86-.94,11.83-1.24s8.23-.62,12.35-.56c7.68.11,15.34.92,23,1.13,15.25.4,30.38,1.7,45.45-1.37,4.36-.89,2.53-7.81-1.85-6.72a131.47,131.47,0,0,1-46.79,3.09c-7.8-.9-15.54-2-23.37-2.58-6.91-.52-16-.81-21.95,3.38a2.64,2.64,0,0,0,1.32,4.87Z"/><path class="cls-1" d="M185.83,33.34c2.06-5.27,6.25-9.52,8.33-14.81A28.05,28.05,0,0,1,206,5.37l-4.22-1.71c2,7,5.94,12.44,10.34,18.09a102.4,102.4,0,0,0,7.61,9.12,22.23,22.23,0,0,1,6.52,11.36c4.28,16.55,6.09,33.5,10,50.1l5.06-2.13a42.65,42.65,0,0,1-2.2-3.83c-1.39-2.92-5.22-.67-4.81,2,1.57,10.27,2.65,20.75,3.73,31.09.39,3.76,6.32,3.82,5.94,0-1.07-10.94-3.07-21.64-4.6-32.49l-5.07,1.4a38.21,38.21,0,0,0,2.23,4.6c1.56,2.8,5.75.86,5.06-2.14-3.69-16-3.67-33.77-10.86-48.75-1.8-3.76-4.53-6.84-6.34-10.62a44.54,44.54,0,0,0-5.17-8.55c-5-6.48-9.34-12.94-11.94-20.81A2.9,2.9,0,0,0,203.11.42c-5.7,3.78-8.88,10.36-14.12,14.65-4.74,3.87-9.45,11.09-9.59,17.4-.08,3.93,5.16,4.12,6.43.87Z"/><path class="cls-1" d="M77.66,39.31c1.79-1.75,2.42-4.15,3.31-6.42,1-2.54,2.19-5,3.26-7.49l-6.74-.88c1.81,4.38,2.2,12,6.69,14.52,1.93,1.1,4.8-.26,4.65-2.67s-1.57-4.6-2.25-6.95-1.2-4.61-2-6.86c-1-2.76-5.22-3.92-6.73-.88A70,70,0,0,0,74.4,30c-.91,2.6-1.93,5.41-1.06,8.14a2.61,2.61,0,0,0,4.32,1.14Z"/><path class="cls-1" d="M202.33,30.13c1.29-1.5,1.52-3.61,2.52-5.32,1.09-1.87,2.37-3.66,3.63-5.42l-7.2-.94c.58,4,1.57,7.86,2.18,11.82a3.59,3.59,0,0,0,2.6,2.6,3.79,3.79,0,0,0,2.86-.37,3.62,3.62,0,0,0,1.85-3.22c-.52-4-1.33-7.9-1.75-11.88s-4.91-5.14-7.34-2c-2.84,3.68-8.58,11.36-3.5,15.26a3.43,3.43,0,0,0,4.15-.54Z"/><path class="cls-6" d="M75.3,64.87c-3.21,11.26,1,22,12.36,24.11,10,2,15.3-9,17.75-17.56"/><path class="cls-1" d="M73.61,63.88c-4.85,10.22.77,24.3,12.07,27C97.44,93.7,105,81.77,107.87,72.1c.92-3.16-4-4.5-4.93-1.36-2.35,7.84-5.84,18.58-16,15.74a13.52,13.52,0,0,1-9.29-8.09c-1.75-4.52-.63-8.88-.34-13.52.11-1.89-2.82-2.74-3.65-1Z"/><path class="cls-1" d="M81.05,64.86c-1.13,4-1.72,9.38,3.83,12.23,5.25,2.76,11.88-.41,12.85-4.94,1-5.79-11.48-6.57-17-7.37"/><path class="cls-1" d="M113.28,87.42c5.43,0,29.12-3.7,26.65,3.7-1,2.64-13.32,6.88-15.8,6.35-3.94-.53-10.85-7.93-10.85-10.57"/><path class="cls-1" d="M123.64,94.47c-1.07,2.62-.64,5.76-.28,8.52a46.17,46.17,0,0,0,1.61,8.67c1,3.13,6.33,2.84,6.07-.82-.21-3-.74-5.92-.93-8.91-.17-2.82-.15-5.53-1.26-8.15s-4.42-1.27-5.21.69Z"/><path class="cls-1" d="M109.89,98.37C95.74,96,81.52,96.92,67.23,96.81c-12.06-.08-25.18-2.29-36.39,3.06a1.09,1.09,0,0,0,.55,2c26-.56,52.07.72,78.06-.27,1.77-.07,2.37-2.93.44-3.25Z"/><path class="cls-1" d="M107.63,105.36a30.08,30.08,0,0,0-16.11,2.47c-5.77,2.5-11.17,5.46-17.29,7.11-5.6,1.51-11.34,2.46-17,3.89-4.9,1.24-10.93,2.58-14.49,6.39a1.82,1.82,0,0,0,1.76,3c5.31-.93,10.37-3.68,15.68-5,5.1-1.23,10.28-2.15,15.35-3.52a80,80,0,0,0,13.74-5.44c5.4-2.59,12.19-6.11,18.32-6.32a1.33,1.33,0,0,0,0-2.65Z"/><path class="cls-1" d="M144.56,97.53c13.18,1.82,26.71,1.77,40,2.16,6.49.2,12.91.63,19.36,1.3,2.94.3,5.9.43,8.83.76,3.1.35,5.88,1.18,9,.62,2.24-.41,2.25-3.49.59-4.56-4.27-2.75-11.63-2.53-16.59-2.59-6.4-.07-12.83.55-19.25.51-13.82-.11-27.78-1.43-41.58-.63-1.3.08-1.79,2.23-.33,2.43Z"/><path class="cls-1" d="M150.2,106.72c4.56,2.77,9.94,3.4,15.11,4.42,5.54,1.1,11.1,2,16.66,3,10.58,1.86,21.34,5.17,32,5.57a1.37,1.37,0,0,0,.69-2.53c-9.29-5.23-20.94-6.22-31.35-8.06q-8.34-1.48-16.68-2.91c-5.21-.91-10.48-2.5-15.79-2a1.37,1.37,0,0,0-.68,2.53Z"/><path class="cls-1" d="M57.3,121.64c-2.59-4.22-10.11-2.79-8.3,2.78,1.31,4,8.52,6.32,12,7.4,7.08,2.17,14.11,5.27,21.48,6.23,4.6.61,9.29.62,13.93.81,4.32.17,9.51-.61,13.71.48a1.21,1.21,0,0,0,.93-2.21c-3.94-2.67-8.2-2.36-12.85-2.76-5.81-.49-11.63-.89-17.43-1.56-5.42-.62-10.39-2-15.65-3.3a32.84,32.84,0,0,1-6.89-2c-1.18-.59-2.16-1.92-3.3-2.35l.28-.72c-1.65.92-1.65,1.19,0,.79,1.7-.19,3.08-1.9,2-3.57Z"/><path class="cls-1" d="M131.83,146.25a46.48,46.48,0,0,1,11.49,10.09c1.62,1.89,3.68,3.78,4.62,6.1,1.2,2.92-.29,5.78-1.11,8.6-.46,1.56,1.81,2.11,2.38.66,1.06-2.71,3.22-5.74,2.9-8.76s-2.9-5.57-4.73-7.91c-4-5.15-7.47-11.3-14.74-11.75-1.63-.1-2.11,2.2-.81,3Z"/><path class="cls-1" d="M111.71,142.8c-4.44-3-10,.5-14.8,1-7.39.75-14.66,1.11-22,2.36-7.17,1.23-14.08,3.87-21.16,5.51-4.84,1.11-11,2.74-13.15,7.73-.69,1.61.46,3.88,2.48,3.23s3.69-1.93,5.66-2.88a37,37,0,0,1,7.59-2.16c6.19-1.46,12.38-3.22,18.4-5.22A90.33,90.33,0,0,1,94.12,148c5.5-.61,10.17-1.69,15.73-.77a2.42,2.42,0,0,0,1.86-4.39Z"/><path class="cls-1" d="M55.56,153.88c-3,1.74-4.43,3.88-6.31,6.62-2.21,3.19-5.24,5.6-7.67,8.6-3.44,4.24-8.1,10.12-8.45,15.81-.66,11,11.82,16,15.34,25.05l.91-3.42c-3.51,2.86-5.92,5.91-5.67,10.58a3,3,0,0,0,2.94,2.94c4.26,0,8.2-1.39,12.38-2,2.73-.38,2.11-5.13-.65-4.84-3.58.37-7.37,1.83-10.94,1l2.05,3.63c.42-2.53,3-4.8,4.86-6.39a3.54,3.54,0,0,0,.55-4.26c-4.67-6.41-15.86-11.07-17-19.63-.72-5.44,3.78-11.91,6.86-16.06a64.88,64.88,0,0,1,13.3-13.38c2.52-1.86.32-6-2.51-4.3Z"/><path class="cls-1" d="M51.08,123.63c-6.32.65-11.19,7-14,12.15A47,47,0,0,0,31.31,157c-.25,8.78,1.06,17-3.12,25.12a16.67,16.67,0,0,1-10.78,8.56c-4.77,1.15-8.83-.22-13.46-1-2-.34-4.7,1.36-3.75,3.75,3.2,8.08,9.64,15.17,19,12.78,5.07-1.3,9.07-2.73,14.41-2.55,4.88.16,9.29,1.19,13.3,4,2.53,1.78,4.94-2,3.13-4.06-4.67-5.39-14.18-6-20.78-5.52-4.17.29-7.51,2-11.5,2.9-3.73.81-6-.1-8.29-2.79a13.26,13.26,0,0,1-3.4-6.4L1.6,195.2c6.6,4.3,16.08,2.35,22.28-1.77,7.14-4.75,9.3-11.42,9.81-19.58.55-8.77.53-17.64,3.25-26.08A43.72,43.72,0,0,1,42.75,136c2.71-3.85,6.35-6.1,9.55-9.4,1-1,.33-3.08-1.22-2.93Z"/><path class="cls-1" d="M226.9,149.81c5.26,3.4,9,7.68,12.71,12.62,3.15,4.17,7.36,7.06,11,10.8a13.93,13.93,0,0,1,4.11,7.64c.77,4.13-.92,7.33-2.71,10.93-2.58,5.17-7.16,10.06-8.43,15.71a3.71,3.71,0,0,0,1.67,4.09c1.59.87,4.66,1.55,5.57,3.2l2.25-3.91c-6.2-.07-12.11,2.74-18.24,2.54l2,2A53,53,0,0,1,238,201.8c.83-4.09,2.25-7.94,3.13-12,.43-2-.94-4.34-3.22-4.22-7.87.42-13.84-5-21.36-5.49-2-.14-3.28,2.79-1.7,4.11,6.1,5.09,15,9.11,23.06,8l-3.21-2.44c.44,2.78.93,4.51.45,7.47-.34,2.07-.79,4.12-1.18,6.17a48.76,48.76,0,0,0-1.19,12,2.06,2.06,0,0,0,2,2c5.85.24,11.79-2.28,17.55-1.45,1.73.24,4-1.12,3.19-3.2a13.64,13.64,0,0,0-6.67-7.46l1.8,3.13a25.81,25.81,0,0,0-.16-4.67c-.1-2.42,1-4.59,2.09-6.71,1.71-3.42,3.91-6.51,5.41-10.05,2.77-6.54,2.44-10.64-2.49-16-4.5-4.88-9.9-8.37-13.88-13.79-3.27-4.45-7.3-11.66-13.79-10.92a1.88,1.88,0,0,0-.94,3.47Z"/><path class="cls-1" d="M251.3,206.79c8-3.69,15.58,4.32,23.62,3.75,6.27-.43,11.44-6.55,16.21-10,6.37-4.61,12.72-8.88,19.86-12.13,1.75-.81,1.31-3.81-.55-4.18-3.42-.67-5.91,1-8.79,2.71-4,2.45-7.94,5-11.78,7.73-3.3,2.35-6.5,4.68-9.57,7.32-2.76,2.38-4.9,5-8.68,3.95-4-1.08-23.77-11.88-23.71-1.1a2.28,2.28,0,0,0,3.39,1.95Z"/><path class="cls-1" d="M51.92,160.21c-.48,5.82.91,11.89,1.15,17.74.22,5.63.22,11.3,1.69,16.78.77,2.9,2.06,5.58,3,8.42,1.17,3.55.81,6.42.65,10-.26,5.69,1.28,11.31,2.1,16.9,1.69,11.38,5.51,22,9,32.94A109.72,109.72,0,0,0,75,277.8c1.86,3.86,3.65,8.58,7.87,10.23,1.64.64,2.61-1.39,2-2.65-2-4.49-5.11-8.54-7.21-13.05a103,103,0,0,1-6.09-16.11c-1.49-5.39-1.7-10.69-2.59-16.15-.87-5.31-2.34-10.5-3.46-15.76-2.29-10.62-3.16-21.38-5.56-31.93a91,91,0,0,1-1.82-18c-.13-5.23.27-10.46-2-15.29-1.07-2.23-4.09-.89-4.26,1.15Z"/><path class="cls-1" d="M83.33,287.28c4.23,2.11,9.59,2.49,14.19,3,4.8.56,11.12-1.1,13-6,.77-2-1.16-3.56-2.88-3.78-2.57-.32-4.95-1.39-7.56-1.63l2.39,2.39c.46-3.7,1.46-7.74,1.12-11.44-.2-2.15-3.49-3.71-4.59-1.24-1.77,3.94-.36,7.9-1.23,12a2.44,2.44,0,0,0,1.67,2.94,20.84,20.84,0,0,1,6.69,2.51L105.05,282c-2.17,3-6.19,3.67-9.61,4.41s-7.86,0-11.22-1.22a1.16,1.16,0,0,0-.89,2.1Z"/><path class="cls-1" d="M92,266.91c5.91,5,17.59,5,25,5.14,10.38.2,20.92-.12,31.26-.91,4.61-.35,9.25-.65,13.84-1.18,5.67-.65,11,.38,16.62-.08,4.66-.39,9.31-1.24,14-1.34,3.83-.09,7.63.48,11.32-.83s2.11-7-1.6-5.79c-3.86,1.26-7.76.39-11.71.23a68.05,68.05,0,0,0-12.89,1.07c-4.92.74-9.41,2.2-14.45,2.16s-10,.43-15.11.5c-9.48.12-19,.13-28.49.12a106.82,106.82,0,0,1-15.15-1.21c-3.89-.56-8-1.88-11.84-.85a1.79,1.79,0,0,0-.78,3Z"/><path class="cls-1" d="M200.48,257.7c-1.27,6.73,4.11,13.86,1.55,20.14l4.23-2.39c-3.49-.54-8.52.28-11.06,2.93s-2.43,6.79.86,8.57,8.36,1.35,12,1.4c4.35.07,8.74,1,13.08.59,11.69-1.18,14.69-17.69,17.07-26.95a172.14,172.14,0,0,0,4.61-22c1-8.19,2.89-16.55,2.93-24.84,0-3.82-5.46-3.65-5.82,0-.54,5.28-.74,10.6-1.29,15.89-.6,5.73-2.38,11.4-3.58,17-2.15,10.1-4.87,20.47-9.27,29.84-1,2.21-1.78,4-4.32,4.71a18.51,18.51,0,0,1-5.85.1c-2.69-.18-5.36-.37-8.06-.45-1.58-.05-3.16-.09-4.73-.23s-4-1.5-3.23.61c.69,1.84,2,.76,3.87.27a9.59,9.59,0,0,0,3.58-1.23,3.66,3.66,0,0,0,1.58-3.88c-1.14-6.69-1.37-13.55-3.14-20.14-.64-2.37-4.55-2.61-5,0Z"/><path class="cls-1" d="M131.8,233.28c1.37.42,2.8-.09,4.21,0,1.79.09,2.79.72,4.54-.1a2.58,2.58,0,0,0,.93-3.53c-1.28-1.88-3.77-1.95-5.85-1.84s-4.54.5-5.38,2.76a2.25,2.25,0,0,0,1.55,2.73Z"/><path class="cls-4" d="M53,127.06c-6.33,3.38-13.51,24.5-10.13,32.1,10.13-2.11,19.85-8,30.4-10.56,11.41-2.11,24.5-4.22,36.32-5.49a10.32,10.32,0,0,0,0-5.07c-10.13-.84-20.69.43-30.83-1.26-8.86-1.27-19.85-6.34-27-10.14"/><path class="cls-4" d="M131.13,136.36v7.17c9.29,0,17.74,4.65,26.61,7.61,8.44,2.53,16.89,1.26,25.76.84,16-.42,30.4-6.76,46-7.6,8.87-.42,13.09,3.38,18.58,9.71h0c.84-7.6,1.27-14.36-.42-22-1.27-5.91-.43-7.18-6.34-7.18-4.22.43-9.71,3.8-13.93,4.65-18.16,5.07-39.7,5.91-58.7,6.33-8.45.43-33.37-5.91-39.28,1.69"/><path class="cls-4" d="M134.09,148.6A70.53,70.53,0,0,1,148,171.41c2.11-8,5.07-8-1.26-14.78-3-3.38-6.76-8.87-11.83-9.72"/><path class="cls-1" d="M131.4,136.68c5.87,3.56,13.74,2,20.3,2.38,8.58.53,17.28-.56,25.87-.75s17.16-1.2,25.65-2.21c4.53-.54,8.79-2.65,13.23-3.11a56.43,56.43,0,0,0,5.76-.57c7.67-1.61,16.3-3,22.88-7.61,2.41-1.68,4.92-4.17,4.21-7.4-.9-4.16-5.36-5-8.6-2.91a2.26,2.26,0,0,0,.54,4.07c2.08.6,1.08.65,1.72-.35a2.59,2.59,0,0,1-.51.43c-1.15.7-2.24,1.5-3.43,2.16-2.9,1.59-6,2.72-8.92,4.16a59.34,59.34,0,0,1-7.82,3.31c-.78.26-1.54.54-2.31.79a27.05,27.05,0,0,1-10.13,1.14c-6.43-.19-12.06,1.36-18.25,2.84-6.55,1.58-13.69,1.61-20.41,1.93-6.43.3-13.07-.37-19.48-.93-6.14-.54-12.41-.32-18.41-1.87a2.47,2.47,0,0,0-1.89,4.5Z"/><path class="cls-1" d="M129.89,143.27c1.58,2,4.38,2.85,6.77,3.53,3.7,1.07,7.37,2,11,3.26,8.51,2.79,16.88,5.84,25.85,6.76,8.33.86,16-.76,23.75-3.61a116.57,116.57,0,0,1,11.09-3.75c3.48-.89,6.88-.48,10.3-1.13,1.93-.37,1.91-3,.51-3.9-4.74-3.17-13.07.1-17.85,1.79-7.48,2.64-14.57,5.78-22.68,5.82-8.93.05-17.86-2.47-26.32-5.12-3.59-1.13-7.17-2.37-10.82-3.31-3.27-.83-6.6-1.33-9.59-3-1.79-1-3.16,1.21-2,2.65Z"/><path class="cls-1" d="M244.92,118.47c1.29,3.88,1.94,8.31,6.13,10.06,5.49,2.3,11.91-2,17,1.17,5.26,3.25,7.91,9.85,10.43,15.18,2.41,5.1,4.39,10.49,7,15.46,5.67,10.73,16.57,16.94,28.47,12.83,7.82-2.7,16.11-3.53,24.19-1.37,7.38,2,12.1,6.43,16.72,12.27,2.64,3.34,7.68-1.48,4.75-4.75-7.08-7.91-18.78-11-28.6-7-13.87,5.68-26.85,16.42-42.62,10.36a69.08,69.08,0,0,1-21.06-12.5c-5-4.56-9.28-9.9-14-14.81-8.46-8.85-21-20-33.56-12.23-2.56,1.58-.33,5.11,2.3,3.95,14-6.22,26.44,11.34,34.7,20.34,8.54,9.31,19.28,17.14,31.44,21.07s24.37-.5,34.78-6.45c5.45-3.11,10.1-7,16.66-7.37,6.35-.33,12.31,1.44,14.31,7.87l6.14-2.59c-3.5-4.54-7.29-9.13-12.42-11.9s-12-3.18-17.84-2.52c-7.26.82-14.08,4.11-21.26,5.1-8.14,1.14-14.92-5.58-18.54-12.29-5.15-9.54-5.8-20.72-13.53-28.91-3.43-3.65-7.75-6.39-12.9-6.25-3.14.08-6.64,1.64-9.73.79s-3.33-4.18-4.27-6.86c-1-3-5.76-1.72-4.75,1.31Z"/><path class="cls-1" d="M147.89,169.87c-1.54-2.92-.63-6-1.38-9a22.5,22.5,0,0,0-3.83-7.38c-2.56-3.6-5.82-9.64-10.1-11.15a1.76,1.76,0,0,0-2.21,1.68c-.08,4.81,5,10.22,7.28,14.39a69.21,69.21,0,0,0,9,12.36c.58.68,1.57-.19,1.19-.92Z"/><path class="cls-4" d="M112.05,133.43c-1.82,2-1.56,10.33.27,12.84,2.6,3.34,8.33,1.39,12.24,1.12,5.74-.28,7.56-.28,7.82-6.7.26-3.35,1-6.42-1.82-8.37-2.08-1.39-16.16-.56-18,1.11"/><path class="cls-1" d="M110.89,131.44c-5.38,3.46-3.8,16.21,2.25,18.13,4.16,1.32,8.26-.13,12.45-.22,2.73-.06,6.53.11,7.77-2.93.56-1.36.27-3.15.31-4.6.07-2.36.61-4.87.51-7.21a6.21,6.21,0,0,0-4.94-6.18,24.55,24.55,0,0,0-10.92,0c-2.29.48-6.62,1.45-7.69,3.83-.62,1.37.07,3.59,2,3.39,3.7-.4,7.37-.21,11.1-.33,1.73-.06,4.08-.53,5.77-.15,2.37.53,2.43,5.91,1.1,8-1.05,1.66-3.23,1.89-5,2.11-2.61.34-5.54,1.08-8.15.9-5.1-.35-4.1-8.55-3.15-12.17.49-1.88-1.66-3.74-3.4-2.61Z"/><g class="cls-7"><path class="cls-6" d="M63.14,170.25c0,22,4.22,34.1,7.6,55.21.84,5.92,2.53,18.58,6.76,23.65,8.44,10.14,12.67,5.07,11.82-5.07-1.69-11.82-8.44-25.33-10.13-39.69-2.54-19.43-8.45-34.63,5.06-49-6.75,0-22,1.79-21.11,14.89"/></g><path d="M195.67,36.94l.39.1-.44-.26a1.53,1.53,0,0,0,1.24.4,1.1,1.1,0,0,0,0-2.19,1.52,1.52,0,0,0-1.24.39l.44-.25-.39.09a.9.9,0,0,0,0,1.72Z"/><path d="M207.1,38.9a1.93,1.93,0,0,0-.2-.92,1,1,0,0,0-1.71,0,1.93,1.93,0,0,0-.2.92c-.09,1.36,2.19,1.36,2.11,0Z"/><path d="M206.57,40.37c.34.5.84,1.19,1.54,1s.63-.91.49-1.41a.32.32,0,0,0-.61,0,2.17,2.17,0,0,0-.12.36.25.25,0,0,1,0,.09c-.09.12,0,.13.33,0,0,0-.31-.52-.33-.57-.38-1-1.8-.26-1.26.53Z"/><path d="M211.81,35.1a1.73,1.73,0,0,0,.64-1.18.88.88,0,0,0-.87-.87c-.49,0-.83.34-1.18.64-1,.85.56,2.37,1.41,1.41Z"/><path d="M215.05,43.86l-.26-.1-.35-.34c-.06-.35-.09-.4-.1-.16l.2-.48c-.11.12-.24.21-.36.32a.44.44,0,0,0,.09.68,1.5,1.5,0,0,0,1.67-.13,1.07,1.07,0,0,0-.62-1.79,1,1,0,1,0-.27,2Z"/><path d="M211.11,50.16a3.66,3.66,0,0,0-.65-1.78,5.25,5.25,0,0,0-.63-.78,1.34,1.34,0,0,0-1-.35.67.67,0,0,0-.66.66,1.66,1.66,0,0,0,.07.66c.07.21.2.4.29.61s.15.4.22.6a1.82,1.82,0,0,0,.07.25c.08.31,0-.13,0,.13a1.13,1.13,0,0,0,2.25,0Z"/><path d="M202.1,43.19a4.81,4.81,0,0,0,2.49-.5.49.49,0,0,0,0-.83,4.81,4.81,0,0,0-2.49-.5c-1.18,0-1.18,1.89,0,1.83Z"/><path d="M221,43.08a1.43,1.43,0,0,0-.27-1.34.89.89,0,0,0-1.22,0,1.41,1.41,0,0,0-.27,1.34.92.92,0,0,0,1.76,0Z"/><path d="M220.12,57.43a1.08,1.08,0,0,0,0-2.15,1.08,1.08,0,0,0,0,2.15Z"/><path d="M216.73,59.18a.79.79,0,0,1-.15-.25.47.47,0,0,0-.81,0,.64.64,0,0,1-.15.25.78.78,0,1,0,1.11,0Z"/><path d="M213.36,56a.76.76,0,0,0,0-1.52.76.76,0,0,0,0,1.52Z"/><path d="M221.45,52.59a1,1,0,0,1,.72.17.4.4,0,0,0,.54-.55,2.44,2.44,0,0,0-1.08-1,.77.77,0,1,0-.18,1.41Z"/><path d="M224.62,65.21a1,1,0,0,0,0-1.95,1,1,0,0,0,0,1.95Z"/><path d="M220.39,67.18a2.19,2.19,0,0,0-.95-.08.61.61,0,0,0-.4.4,2,2,0,0,0,.08,1,1,1,0,1,0,1.27-1.27Z"/><path d="M214.18,66.3a1.61,1.61,0,0,0,.82-.49c.1-.11.23-.43.35-.49a.61.61,0,0,0-.14-1.1,1.38,1.38,0,0,0-.83,0,1.34,1.34,0,0,0-.37.16c-.27.17.22,0-.09,0-1.35-.12-1.19,2.3.26,1.91Z"/><path d="M221.31,76.69l.29-.27a.53.53,0,0,0,0-.72l-.29-.27a.89.89,0,1,0,0,1.26Z"/><path d="M225.19,77.9a.15.15,0,0,0,0-.3.15.15,0,1,0,0,.3Z"/><path d="M226.31,77.87a5.64,5.64,0,0,0,1.86-.36c.56-.18,1-.41,1.2-1,.19-.78-.88-1.56-1.46-.85a3.84,3.84,0,0,1-.49.61,2.26,2.26,0,0,1-1.11.28.68.68,0,0,0,0,1.36Z"/><path d="M230.93,73.41a7.42,7.42,0,0,1-.3-.83.39.39,0,0,0-.75,0,7.42,7.42,0,0,1-.3.83.78.78,0,1,0,1.35,0Z"/><path d="M230.24,72.68c0-1.16-1.07-3.26-2.55-2.32a1.11,1.11,0,0,0-.5,1.22,1,1,0,0,0,.47.69l-.35-.46a1.29,1.29,0,0,0,.36.64.47.47,0,0,0,.66,0,2.44,2.44,0,0,0,.39-.46l-.67.38c.09,0,.37,0,.22,0s.65,0,0,0c0,0-.53-.11-.33,0l-.11-.09c.06.08.07.08,0,0s0,0,0,.07.08.2,0,.06a.66.66,0,0,1,.06.2c.08.3,0-.18,0,.13.05,1.43,2.28,1.44,2.23,0Z"/><path d="M228.23,87.64c-.07,0,.31.29.13,0a.42.42,0,0,0-.71,0c-.19.26.24-.07.13,0a.83.83,0,0,0-.44,1.32.83.83,0,0,0,1.32,0,.84.84,0,0,0-.43-1.32Z"/><path d="M219.27,82.75c.1-.14-.08.08,0,0a.67.67,0,0,0,0-.93c-.11-.1.05.1,0,0a1,1,0,1,0,0,1Z"/><path d="M225.75,83.11a.86.86,0,0,0,0-1.71.86.86,0,0,0,0,1.71Z"/><path d="M219.55,93.3a.91.91,0,0,0,0-1.82.91.91,0,0,0,0,1.82Z"/><path d="M225.75,101.36a1.09,1.09,0,0,0,0-2.18,1.09,1.09,0,0,0,0,2.18Z"/><path d="M231.61,102.24c.54-.18,1.09-.35,1.61-.58a.3.3,0,0,0,0-.52c-.52-.23-1.07-.4-1.61-.58a.87.87,0,1,0,0,1.68Z"/><path d="M230.84,101.94l1.47,1.46a4.14,4.14,0,0,0,1.57,1.26.62.62,0,0,0,.76-.76,4.14,4.14,0,0,0-1.26-1.57l-1.46-1.47a.76.76,0,0,0-1.08,1.08Z"/><path d="M227.44,117.66a1.06,1.06,0,0,0,0-2.11,1.06,1.06,0,0,0,0,2.11Z"/><path d="M219.55,110.62a.78.78,0,0,0,0-1.55.78.78,0,0,0,0,1.55Z"/><path d="M231,113.32c.41-.06,1.31,0,1.31-.66s-.9-.6-1.31-.65a.67.67,0,1,0,0,1.31Z"/><path d="M234.19,116.43a1,1,0,0,0,0-1.9,1,1,0,0,0,0,1.9Z"/><path d="M219.55,124.63a3.84,3.84,0,0,0,1-.09,8.75,8.75,0,0,0,.86-.3.37.37,0,0,0,0-.63,8.82,8.82,0,0,0-.86-.31,3.84,3.84,0,0,0-1-.08.71.71,0,0,0,0,1.41Z"/><path d="M230.25,124.61a.69.69,0,0,0,0-1.38.69.69,0,0,0,0,1.38Z"/><path d="M235.32,123.1a.87.87,0,0,0,0-1.73.87.87,0,0,0,0,1.73Z"/><path d="M231.38,162.35a.7.7,0,0,0,0-1.4.7.7,0,0,0,0,1.4Z"/><path d="M232.51,167.51a.8.8,0,0,0,0-1.59.8.8,0,0,0,0,1.59Z"/><path d="M227.44,155.21a6.28,6.28,0,0,1,.95.16,1.59,1.59,0,0,0,.94-.12.41.41,0,0,0,0-.71c-.57-.39-.93-.91-1.66-1.06-1.29-.25-1.48,1.77-.23,1.73Z"/><path d="M237.35,163.58a2.43,2.43,0,0,1,.54.17.48.48,0,0,0,.66-.65,2.19,2.19,0,0,1-.17-.55.84.84,0,1,0-1,1Z"/><path d="M240.87,170.39c-.06,0-.05-.09,0,0a.55.55,0,0,0-1,0c.05-.08.06,0,0,0a1,1,0,1,0,1,0Z"/><path d="M228,173.31a6.86,6.86,0,0,1,1.17-.44l.05,0a2.34,2.34,0,0,0,.38,0c.22,0,.43,0,.65,0a.46.46,0,0,0,.4-.68,2.8,2.8,0,0,0-1.48-1.14,3.1,3.1,0,0,0-2.29.41c-1.29.58-.17,2.58,1.12,1.92Z"/><path d="M239.48,178.77a1.16,1.16,0,0,0,.54-.21.68.68,0,0,0,0-1.17,1.14,1.14,0,0,0-.54-.2.81.81,0,1,0,0,1.58Z"/><path d="M242.08,183.6a1.12,1.12,0,0,0,0-2.23,1.12,1.12,0,0,0,0,2.23Z"/><path d="M248.08,179.93c0-.11-.2.29,0,.09a.52.52,0,0,0,0-.7c-.18-.21.05.23,0,.09a1,1,0,1,0,0,.52Z"/><path d="M243.2,193.11a1.06,1.06,0,0,0,0-2.11,1.06,1.06,0,0,0,0,2.11Z"/><path d="M242.08,201.07a1.14,1.14,0,0,0,0-2.27,1.14,1.14,0,0,0,0,2.27Z"/><path d="M242.62,200.87c.92-.46,2.28-.6,2.85-1.51a.89.89,0,0,0-.53-1.31,3.5,3.5,0,0,0-1.74.31,13.1,13.1,0,0,0-1.67.65c-1.24.58-.15,2.49,1.09,1.86Z"/><path d="M225.44,199.19c.43-.11,1.35-.31,1.34-.94s-.9-.83-1.34-.94a1,1,0,1,0,0,1.88Z"/><path d="M232.15,199.49a2.59,2.59,0,0,1-.39-.78.4.4,0,0,0-.76,0,2.59,2.59,0,0,1-.39.78.89.89,0,1,0,1.54,0Z"/><path d="M224.13,193.46a5.6,5.6,0,0,0,.71.3.76.76,0,0,0,.92-.92,3.69,3.69,0,0,0-.3-.71,1,1,0,1,0-1.33,1.33Z"/><path d="M226.87,207.37a.68.68,0,0,0,0-1.35.68.68,0,0,0,0,1.35Z"/><path d="M229.31,217.83c.16-.25-.59-.17-.57.06a1,1,0,0,0,.11.23.33.33,0,0,0,.55,0,1.05,1.05,0,0,0,.17-.75,1,1,0,0,0-.18-.31c-.09-.14,0,0-.08-.1a.86.86,0,1,0,0,.87Z"/><path d="M232.19,224.49c.52-.17,1-.34,1.54-.55a.37.37,0,0,0,0-.7c-.5-.21-1-.38-1.54-.56a.94.94,0,1,0,0,1.81Z"/><path d="M233.07,225c.73,0,1.35.44,2.07.53a.86.86,0,0,0,.83-.64.83.83,0,0,0,0-.22.87.87,0,0,0-.63-.83l-.41-.17-.49-.19a4.43,4.43,0,0,0-1.4-.24.88.88,0,0,0,0,1.76Z"/><path d="M233.07,238.47a.81.81,0,0,0,0-1.61.81.81,0,0,0,0,1.61Z"/><path d="M230.25,244.91a1.06,1.06,0,0,0,0-2.11,1.06,1.06,0,0,0,0,2.11Z"/><path d="M227.82,238.49c.06-.17,0,.13-.2.29a.65.65,0,0,0,0-1.11c.47.35.24.46.2.3a.89.89,0,0,0-.35-.52,1,1,0,0,0-1.45.28,1,1,0,1,0,1.8.76Z"/><path d="M226.79,239.53a4.49,4.49,0,0,0,.91,1.69.35.35,0,0,0,.6,0c.36-.7-.21-1.18-.19-1.87,0-.93-1.49-.81-1.32.18Z"/><path d="M226.87,260.78a1.16,1.16,0,0,0,0-2.32,1.16,1.16,0,0,0,0,2.32Z"/><path d="M218.43,264.37a.81.81,0,0,0,0-1.61.81.81,0,0,0,0,1.61Z"/><path d="M217.06,261.22a1.5,1.5,0,0,0,.55.54c.12.07.34.09.4.23.14.36.75.46.84,0a1.34,1.34,0,0,0,0-.63c-.07-.23-.06-.37-.17-.14a.93.93,0,1,0-1.61,0Z"/><path d="M222.05,270.1c-.12-.38-.34-.85-.81-.85s-.69.48-.8.85c-.4,1.34,2,1.35,1.61,0Z"/><path d="M220.37,270.32a2,2,0,0,1-.34,1.11c-.26.35-.68.5-.91.89a.49.49,0,0,0,0,.51,1.43,1.43,0,0,0,2.19-.12,3.56,3.56,0,0,0,.81-2.39.88.88,0,0,0-1.75,0Z"/><path d="M213.13,273.38c0,.09-.1.12,0,.06a.43.43,0,0,0,0-.6c-.09-.08,0,0,0,.05a1.11,1.11,0,0,0-.43-.55.92.92,0,1,0,.43,1Z"/><path d="M217.3,280.34a1,1,0,0,0,0-2,1,1,0,0,0,0,2Z"/><path d="M223.5,275.68a.29.29,0,0,0,0-.58.29.29,0,0,0,0,.58Z"/><polygon class="cls-1" points="107.85 77.46 67.94 57.92 69.98 54.33 114.36 66.16 107.85 77.46"/><path class="cls-6" d="M188.76,61.78C193.12,74.42,189,87,176.18,90c-11.28,2.89-18-9.27-21.33-18.9"/><path class="cls-1" d="M186.8,61.78c.61,4.76,2,9.35.91,14.18a15.57,15.57,0,0,1-10.1,11.26c-11.87,4.45-17-7.54-20.3-16.76-1.1-3.07-6-1.76-4.92,1.35,3.84,10.91,13.12,24.18,26.44,19.84,12.15-4,17.59-19.77,11.61-30.86-.86-1.61-3.89-1-3.64,1Z"/><path class="cls-1" d="M182.2,62.13c1.54,4.47,2.55,10.58-3.59,14.18-5.81,3.48-13.57.28-15-4.83-1.51-6.53,12.68-8.2,18.89-9.46"/><polygon class="cls-1" points="151.47 76.77 197.37 55.15 195.1 51.02 144.24 63.77 151.47 76.77"/><path class="cls-1" d="M107.2,116.8c8.4-4.06,22.15-3.84,31.09-1.41,7.3,2,13.45,6.54,19.42,11,.93.69,7.16-3,7.46-2.8-9.33-7-21.42-10.63-33.4-11-9.48-.3-16.9-.45-25.54,3.72-1.58.77.37.78,1,.49Z"/><path class="cls-8" d="M139.67,237.79c8.67,1.3,16.72-4.26,23.73-9.53a27.86,27.86,0,0,1,1.65,10.93,5.32,5.32,0,0,1-.53,2.34,5.37,5.37,0,0,1-2,1.78c-8.51,5.22-19.4,7.42-28.59,3.55-3.29-1.38-8.94-6.13-6.77-10.5C129.55,231.54,135.36,237.14,139.67,237.79Z"/><path class="cls-3" d="M157.45,196.41c1.6,4.62,2.59,9.79.73,14.31a15.22,15.22,0,0,1-9.06,8.13,27,27,0,0,1-12.38,1c-2.59-.32-5.29-.93-7.19-2.72-3.34-3.14-2.84-8.87-.15-12.58s6.93-5.91,11-8c3.46-1.74,7.51-4.73,11.29-5.59C155.32,190.18,156.44,193.45,157.45,196.41Z"/><path class="cls-3" d="M157.07,176.29l17-15.45a20.77,20.77,0,0,0-5.77-1.37,4.68,4.68,0,0,0-2.35.24,5.71,5.71,0,0,0-2.27,2.74c-2.72,5.05-6.65,9.26-10.17,13.74-.63.8-4.81,5.19-2.61,5.77C152,182.25,156.07,177.21,157.07,176.29Z"/><polygon class="cls-1" points="148.27 181.99 166.52 152.99 171.52 154.49 149.27 184.49 148.27 181.99"/><polygon class="cls-1" points="124.01 180.54 96.59 144.77 91.3 147.78 123.46 184.12 124.01 180.54"/><path class="cls-4" d="M110,146.27c-2.87,2.79-7,5.58-9.64,8.65-2.87,3.62-4.69,8.92-7,13.1a24.3,24.3,0,0,0,8.07,3.91c.78-8.09,4.17-20.36,10.95-25.38"/><path class="cls-1" d="M109.56,144.79c-9.66,3.71-14.16,13.39-18.22,22.09a2.31,2.31,0,0,0,.81,3.1,31.7,31.7,0,0,0,8.76,3.63,1.77,1.77,0,0,0,2.21-1.68c.43-4.8,2.42-9.39,4.36-13.73,1.8-4,4.45-6.9,6.76-10.53,1-1.56-.68-3.95-2.51-3.27-10.11,3.73-11,18.69-12.1,27.53l2.21-1.69a23.3,23.3,0,0,1-7.4-4.18l.82,3.11c2.33-3.83,3.68-8.26,6.3-11.92,2.73-3.83,7.71-5.95,9.74-10.2.51-1.08-.37-2.79-1.74-2.26Z"/><circle class="cls-9" cx="135.7" cy="198.43" r="19.66"/><path class="cls-1" d="M135.7,219.54a21.12,21.12,0,1,1,21.12-21.11A21.13,21.13,0,0,1,135.7,219.54Zm0-39.32a18.21,18.21,0,1,0,18.21,18.21A18.23,18.23,0,0,0,135.7,180.22Z"/><polygon class="cls-1" points="147.92 186.22 122.15 186.22 132.3 194.75 118.3 205.7 142.44 205.9 147.92 186.22"/><polygon class="cls-1" points="148.93 182.79 138.62 218.59 140.69 218.59 149.87 182.61 148.93 182.79"/></g></g></svg>