<svg xmlns="http://www.w3.org/2000/svg" xmlns:xlink="http://www.w3.org/1999/xlink" viewBox="0 0 403.71 456.76"><defs><style>.cls-1{mask:url(#mask);filter:url(#luminosity-noclip-2);}.cls-17,.cls-2{mix-blend-mode:multiply;}.cls-2{fill:url(#linear-gradient);}.cls-3{fill:none;}.cls-4{isolation:isolate;}.cls-5{clip-path:url(#clip-path);}.cls-6{fill:#eae6db;}.cls-7{opacity:0.8;}.cls-8{fill:#2d1817;}.cls-9{opacity:0.2;}.cls-10{fill:#231f20;}.cls-11{fill:#ffcd05;}.cls-12{fill:#d5b029;}.cls-13{fill:#fff;}.cls-14{fill:#fdf6e1;stroke:#fdf6e1;stroke-miterlimit:10;stroke-width:10px;opacity:0.54;}.cls-14,.cls-16,.cls-18{mix-blend-mode:overlay;}.cls-15{mask:url(#mask-2);}.cls-16{fill:url(#linear-gradient-2);}.cls-17{opacity:0.34;fill:url(#linear-gradient-3);}.cls-18{opacity:0.33;fill:url(#radial-gradient);}.cls-19,.cls-20{opacity:0.27;}.cls-19{fill:url(#linear-gradient-4);}.cls-20{fill:url(#linear-gradient-5);}.cls-21{fill:#cb2027;}.cls-22{fill:#f15d60;}.cls-23{fill:#a41e21;}.cls-24{fill:#ffcb05;}.cls-25{filter:url(#luminosity-noclip);}</style><filter id="luminosity-noclip" x="178.38" y="-7978.58" width="114.04" height="32766" filterUnits="userSpaceOnUse" color-interpolation-filters="sRGB"><feFlood flood-color="#fff" result="bg"/><feBlend in="SourceGraphic" in2="bg"/></filter><mask id="mask" x="178.38" y="-7978.58" width="114.04" height="32766" maskUnits="userSpaceOnUse"><g class="cls-25"/></mask><linearGradient id="linear-gradient" x1="169.53" y1="288.9" x2="268.84" y2="171.25" gradientTransform="translate(176.21 -140.36) rotate(29.25)" gradientUnits="userSpaceOnUse"><stop offset="0" stop-color="#fff"/><stop offset="1"/></linearGradient><clipPath id="clip-path"><path class="cls-3" d="M284.43,202a56.19,56.19,0,1,1-21.56-76.48A56.19,56.19,0,0,1,284.43,202Z"/></clipPath><filter id="luminosity-noclip-2" x="178.38" y="117.82" width="114.04" height="114.04" filterUnits="userSpaceOnUse" color-interpolation-filters="sRGB"><feFlood flood-color="#fff" result="bg"/><feBlend in="SourceGraphic" in2="bg"/></filter><mask id="mask-2" x="178.38" y="117.82" width="114.04" height="114.04" maskUnits="userSpaceOnUse"><g class="cls-1"><path class="cls-2" d="M263.26,125.1a57,57,0,1,0,21.88,77.6A57,57,0,0,0,263.26,125.1Zm-55.15,98.68a56,56,0,1,1,76.27-21.5A56,56,0,0,1,208.11,223.78Z"/></g></mask><linearGradient id="linear-gradient-2" x1="169.53" y1="288.9" x2="268.84" y2="171.25" gradientTransform="translate(176.21 -140.36) rotate(29.25)" gradientUnits="userSpaceOnUse"><stop offset="0" stop-color="#fff"/><stop offset="1" stop-color="#fff"/></linearGradient><linearGradient id="linear-gradient-3" x1="212.93" y1="253.29" x2="147.91" y2="187.57" gradientTransform="translate(176.21 -140.36) rotate(29.25)" gradientUnits="userSpaceOnUse"><stop offset="0.01" stop-color="#fff"/><stop offset="0.14" stop-color="#efe9f3"/><stop offset="0.36" stop-color="#dacce4"/><stop offset="0.57" stop-color="#cbb8da"/><stop offset="0.79" stop-color="#c2acd3"/><stop offset="1" stop-color="#bfa8d1"/></linearGradient><radialGradient id="radial-gradient" cx="221.35" cy="206.28" r="102.74" gradientTransform="translate(515.16 11.69) rotate(98.92)" gradientUnits="userSpaceOnUse"><stop offset="0.01" stop-color="#fff"/><stop offset="0.1" stop-color="#fbf7f5"/><stop offset="0.26" stop-color="#efe2d9"/><stop offset="0.48" stop-color="#dcc0ad"/><stop offset="0.73" stop-color="#c1906f"/><stop offset="1" stop-color="#a15725"/></radialGradient><linearGradient id="linear-gradient-4" x1="173.23" y1="210.14" x2="171.19" y2="219.33" gradientTransform="translate(176.21 -140.36) rotate(29.25)" gradientUnits="userSpaceOnUse"><stop offset="0.02" stop-color="#fff"/><stop offset="1" stop-color="#fff"/></linearGradient><linearGradient id="linear-gradient-5" x1="165.89" y1="225.53" x2="159.38" y2="254.92" xlink:href="#linear-gradient-4"/></defs><title>cat-4</title><g class="cls-4"><g id="Слой_2" data-name="Слой 2"><g id="Layer_1" data-name="Layer 1"><g class="cls-5"><circle class="cls-6" cx="234.63" cy="171.63" r="61.59"/><g class="cls-7"><path class="cls-8" d="M403.71,158.49H261.8V0H403.71ZM281.15,139.14H384.36V19.35H281.15Z"/></g><g class="cls-7"><path class="cls-8" d="M218.53,158.49H76.62V0H218.53ZM96,139.14H199.18V19.35H96Z"/></g></g><g class="cls-9"><g class="cls-5"><polyline class="cls-10" points="199.2 155.08 176.86 175.76 213.72 155.9"/><path class="cls-11" d="M153.16,135.87c-13,29.82-21.9,62.42-20,95,2.33,41.46,3.73,81,15.84,121.58,2.79,9.79,6.52,15.84,17.23,17.71,2.33.46,5.1.48,7-.91,6.52-4.66,1.89-4.68-1.84-5.15.93-18.63,29-11.12,41.61-11.59,13.51-.46,29.2-.52,42.71-2.39.93,4.2,2.33,7.92,2.79,12.12-6.52,0-9.78,4.19-1.86,5.59a33.12,33.12,0,0,0,11.65-.93c12.57-3.27,15.84-15.84,16.77-27.49,1.4-11.65,3.26-22.83,5.12-34,2.33-12.11,0-24.69.93-36.8,1.4-21.43-1.39-41-4.65-62-2.8-17.7-6.06-37.73-14.45-54-3.72-6.52-9.78-14.91-16.3-18.63-5.59,5.59-10.25,15.37-16.77,20-5.59,4.19-17.7,1.4-25.16,1.86-15.37.47-33.54-.93-48.45,2.33-.46-6.52-10.25-17.24-14.9-19.56"/><path class="cls-12" d="M142.45,187.23c-5.59,8.74,5.24,20.61,13.62,22.36,14.68,3.5,28-9.08,22.36-24.46-11.53,3.85-25.15-1-36.68,1.75"/><path class="cls-12" d="M214.42,186.18c-6.29,12.23,5.24,26.56,18.17,25.51,13.63-1.05,21.31-14,21-26.91-6.64-.69-15,1.4-22,1.75-3.84,0-7.34-.35-11.18-.7-1.4,0-7.69-.35-5.94.35"/><path class="cls-12" d="M258.09,138.66c0,12.58,2.1,23.76,7.34,34.94,5.59,11.18,5.94,22.06,8,33.59,1,5.94,4.54,12,2.44,17.62-3.14,7.68-10.11,8.89-17.1,10.29-4.54,1.05-16.79,2.79-20.28,5.59-4.89,3.49,10.83,5.24,14.32,6.29v.35A62.14,62.14,0,0,1,234,254.66c-8.74,1.05-16.08-2.79-24.46-3.14-7.69-.35-6.09,4.25-1.55,6.34,4.9,2.45,14.83,8.33,20.42,9,9.08,1,19.14-.87,27.88-2.62,6.29-1.4,16.84-10,23.13-8.21,7.33,2.1-8.47,25-13.63,29.9-4.54,4.32,10.13,4.3,10.13,14.08,0,9.43,2.1,15.42.35,24.5-1.39,8.39-.08,17.47-5.32,24.46-5.59,8-10.05,9.78-17,14,3.5,2.44,15.38,4.19,19.57,2.79,8.38-3.49,10.48-15.72,11.18-23.41,1.75-15.37,1.75-32.49,7-47.52,4.89-13.27.69-27.25-.35-41.22-.7-9.09-2.8-17.82-4.2-26.91-1.39-8-.69-16.77-2.44-24.81-2.45-11.87-5.24-23.4-8.74-34.93-3.84-11.88-11.53-18.52-18.51-27.61"/><path class="cls-10" d="M138.4,238.42c-.06-3.79-1.05-7.72-1.88-11.41a41.16,41.16,0,0,1-.88-14.63c1.1-8.51,2.27-17,3.9-25.43a222.21,222.21,0,0,1,5.88-25,108.24,108.24,0,0,1,4.63-12.5c1.83-4,4.41-7.54,6.37-11.48H149.6a46.82,46.82,0,0,0,8.47,11.65c3.29,3.12,7,5.25,10.7,7.83,3.13,2.18,6.41-3.48,3-5.09C164,148.72,159.8,141.45,156.42,134c-1.49-3.28-6.29-2-7.22.94-5.52,17.7-13.87,34.17-17.18,52.57a102.21,102.21,0,0,0-1.34,26.65c.68,8.34-1,17.88,2.8,25.63,1.18,2.39,5,1.19,4.92-1.34Z"/><path class="cls-10" d="M165.94,159.34c3.3.37,6.63-.62,9.92-.87,3.46-.26,6.9-.57,10.36-.53,6.38.06,12.73.7,19.11.8,12.6.19,24.94,1.5,37.43-1,4.35-.86,2.53-7.83-1.85-6.72a106.41,106.41,0,0,1-39.48,2.6c-6.8-.86-13.57-1.92-20.41-2.33-5.56-.33-12.43-.06-16.92,3.55-2,1.59-.13,4.25,1.84,4.46Z"/><path class="cls-10" d="M242.07,160.23c1.9-4.26,5.31-7.82,7-12.2a21.59,21.59,0,0,1,9.76-11.44l-4.21-1.71c1.63,5.58,4.6,9.77,8.11,14.34,1.79,2.34,3.57,4.86,5.58,7,1,1.1,2.31,1.95,3.35,3,2.09,2.2,2.62,4.42,3.28,7.26,3.2,13.81,5,27.9,8.24,41.69l5.05-2.13c-.65-1.07-1.29-2-1.84-3.17-1.42-2.93-5.18-.65-4.81,2,1.17,8.49,2.12,17.08,3,25.61.4,3.76,6.32,3.82,5.95,0-.9-9.12-2.47-18-3.88-27l-5.08,1.4a33.64,33.64,0,0,0,1.87,3.93c1.56,2.82,5.74.86,5.06-2.13-3-13.2-3-28-9.07-40.31-1.63-3.29-4.05-5.92-5.59-9.29a30.92,30.92,0,0,0-3.78-6.48c-4.19-5.44-7.7-10.77-9.92-17.34-.55-1.62-2.6-2.82-4.21-1.71-4.8,3.31-7.56,8.75-12.15,12.33-4,3.13-7.82,9.41-7.78,14.61,0,3,4.71,4.75,6.09,1.65Z"/><path class="cls-10" d="M152.16,165c2-1.52,2.63-3.6,3.54-5.87s2-4.6,3-6.92h-7.11c.86,2.05,1.33,4.22,2,6.32s1.59,5,3.83,6,4.51-.14,4.65-2.67c.11-2-1.25-4-1.8-5.92s-1-3.81-1.62-5.68c-.95-2.79-5.22-3.89-6.73-.88a56.19,56.19,0,0,0-3.06,7.46c-.82,2.46-1.47,4.8-.31,7.25a2.59,2.59,0,0,0,3.54.92Z"/><path class="cls-10" d="M255.23,157.6c1.79-1.21,1.91-3.2,2.81-4.79s2.06-3.17,3.14-4.71l-7.19-.94c.49,3.28,1.32,6.5,1.83,9.78.64,4.1,7.84,3.17,7.31-1-.42-3.29-1.07-6.54-1.41-9.84a4,4,0,0,0-2.42-3.59c-1.32-.54-3.34-.43-4.3.81a30.78,30.78,0,0,0-4.62,7.63,6.52,6.52,0,0,0-.47,4.36c.65,2.05,3.31,3.64,5.32,2.28Z"/><path class="cls-13" d="M150.41,185.39c-2.66,9.32.85,18.24,10.23,20,8.28,1.64,12.65-7.43,14.68-14.53"/><path class="cls-10" d="M148.72,184.4c-4.12,8.55.47,20.41,9.95,22.84,9.94,2.55,16.7-7.54,19.11-15.75.93-3.17-4-4.5-4.92-1.36-2,6.42-4.58,15.16-13,12.68-8.66-2.55-7.86-10.17-7.52-17.42.08-1.89-2.8-2.74-3.65-1Z"/><path class="cls-10" d="M155.17,185.38c-.94,3.29-1.43,7.76,3.16,10.12,4.35,2.29,9.83-.34,10.64-4.09.84-4.79-9.5-5.43-14-6.1"/><path class="cls-10" d="M181.83,204.05c4.5,0,24.1-3.07,22,3.06-.81,2.18-11,5.69-13.07,5.25-3.26-.44-9-6.57-9-8.75"/><path class="cls-10" d="M190.21,209.06c-1.21,2.35-1,4.92-.68,7.49a35.06,35.06,0,0,0,1.46,7.69c1.12,3.09,6.23,2.89,6.07-.82-.1-2.46-.56-4.9-.71-7.37s-.06-4.85-1.21-7a2.88,2.88,0,0,0-4.93,0Z"/><path class="cls-10" d="M179.11,212.83c-11.66-2.2-23.43-1.4-35.24-1.46-10-.06-21.14-2.05-30.34,2.81a1.09,1.09,0,0,0,.55,2c21.39.56,43.23,1.16,64.59-.12,1.75-.11,2.37-2.89.44-3.25Z"/><path class="cls-10" d="M177.16,218.65c-5-.46-8.38-.26-13.14,1.73s-9.19,4.52-14.21,5.91c-4.76,1.31-9.65,2.11-14.43,3.32-4.14,1.06-9.18,2.17-12.09,5.49a1.82,1.82,0,0,0,1.75,3c4.23-.58,8.29-2.82,12.47-3.85,4.53-1.12,9.13-1.9,13.63-3.15,8.64-2.39,17-9.35,26-9.81a1.33,1.33,0,0,0,0-2.66Z"/><path class="cls-10" d="M207.66,212.62c11.08,1.76,22.56,1.57,33.76,1.94,5.35.18,10.59.68,15.89,1.28,4.51.51,9.91,1.85,14.35,1,2.24-.43,2.26-3.48.6-4.56-3.47-2.27-8.77-2.11-12.82-2.24-5.39-.16-10.83.53-16.24.54-11.7,0-23.55-1.3-35.22-.38-1.28.1-1.8,2.19-.32,2.43Z"/><path class="cls-10" d="M212.26,220.21c3.44,2.37,7.56,2.88,11.59,3.7,4.88,1,9.79,1.83,14.69,2.69,8.59,1.5,17.93,4.86,26.63,4.41a1.37,1.37,0,0,0,.69-2.53c-7.35-5-18.19-5.53-26.8-7.06L225.2,219c-4.25-.74-8.31-1.91-12.62-1.29-1.26.18-1.17,1.9-.32,2.48Z"/><polygon class="cls-10" points="177.34 195.8 144.32 179.64 146.01 176.67 182.73 186.46 177.34 195.8"/><path class="cls-13" d="M244.28,182.83c3.61,10.46.17,20.84-10.41,23.38-9.33,2.39-14.89-7.67-17.64-15.64"/><path class="cls-10" d="M242.32,182.83c.9,8.06,2.4,16.53-6.78,20.41-10,4.22-14-5.55-16.85-13.35-1.11-3.06-6-1.76-4.92,1.36,3.28,9.28,11.42,20.42,22.68,16.57,10.11-3.44,14.59-16.75,9.52-26-.89-1.6-3.87-1-3.65,1Z"/><path class="cls-10" d="M238.85,183.12c1.28,3.7,2.12,8.76-3,11.74-4.81,2.87-11.22.22-12.38-4-1.25-5.4,10.49-6.79,15.63-7.83"/><polygon class="cls-10" points="213.43 195.24 251.4 177.35 249.53 173.93 207.44 184.47 213.43 195.24"/><path class="cls-10" d="M176.8,228.35c6.95-3.36,18.33-3.18,25.73-1.17,6,1.64,11.12,5.42,16.06,9.1.77.58,5.93-2.5,6.18-2.31-7.73-5.77-17.73-8.79-27.64-9.1-7.84-.25-14-.38-21.13,3.08-1.3.63.31.64.8.4Z"/></g></g><path class="cls-10" d="M267,118.34a65,65,0,1,0,24.93,88.41A65,65,0,0,0,267,118.34ZM207.47,224.56a56.79,56.79,0,1,1,77.31-21.79A56.8,56.8,0,0,1,207.47,224.56Z"/><path class="cls-14" d="M263.26,125.1a57,57,0,1,0,21.88,77.6A57,57,0,0,0,263.26,125.1Zm-55.15,98.68a56,56,0,1,1,76.27-21.5A56,56,0,0,1,208.11,223.78Z"/><g class="cls-15"><path class="cls-16" d="M263.26,125.1a57,57,0,1,0,21.88,77.6A57,57,0,0,0,263.26,125.1Zm-55.15,98.68a56,56,0,1,1,76.27-21.5A56,56,0,0,1,208.11,223.78Z"/></g><path class="cls-17" d="M284.43,202a56.19,56.19,0,1,1-21.56-76.48A56.19,56.19,0,0,1,284.43,202Z"/><circle class="cls-18" cx="236.42" cy="179.23" r="51.28" transform="translate(-13.81 338.62) rotate(-69.66)"/><path class="cls-19" d="M225.87,126.85a47,47,0,0,0-12.57,4.28l3.11,5.23a46.64,46.64,0,0,1,12.1-3.83Z"/><path class="cls-20" d="M211.43,132.11c-.55.31-1.11.64-1.68,1-8.16,5-18.79,14.77-24,33.5l4.75,2.28c3.76-17.64,14.81-26.86,24-31.59Z"/><rect class="cls-10" x="244.1" y="237.85" width="7.65" height="31.37" transform="matrix(0.99, -0.16, 0.16, 0.99, -37.31, 42.85)"/><rect class="cls-21" x="246.78" y="251.62" width="10.1" height="46.48" transform="translate(-40.67 43.75) rotate(-9.19)"/><polygon class="cls-22" points="249.81 260.74 246.2 266.59 244.16 252.94 248.44 252.24 249.81 260.74"/><polygon class="cls-23" points="250.56 298.6 245.64 268.2 257.93 268.58 250.56 298.6"/><path class="cls-10" d="M253.11,251.11,260.53,297l-10,1.61-7.43-45.88,10-1.61m0-3a2.59,2.59,0,0,0-.48,0l-10,1.61a3,3,0,0,0-2.48,3.44l7.43,45.88a3,3,0,0,0,3,2.52l.48,0L261,300a3,3,0,0,0,2.48-3.44l-7.42-45.88a3,3,0,0,0-3-2.52Z"/><path class="cls-10" d="M71.27,402.48c-1.77,6.58-2,13.44-3.14,20.14a3.66,3.66,0,0,0,1.58,3.88c.93.67,6.19,2.66,7.11,2.2l.68-2.49a7.12,7.12,0,0,1-1,.29,9.86,9.86,0,0,0-2,.3c-1.58.17-3.18.21-4.77.26-2.66.09-5.29.22-7.94.42-5.16.38-8.4.29-10.78-4.76-4.27-9.11-6.93-19.15-9.08-29-1.19-5.44-2.9-11-3.6-16.49-.73-5.76-.87-11.56-1.46-17.33-.36-3.65-5.84-3.83-5.82,0,0,8.06,2.05,16,2.91,23.94a164.58,164.58,0,0,0,4.63,22.89c2.37,9.24,5.39,25.77,17.07,26.94,4.34.44,8.74-.52,13.08-.58,3.68-.06,8.67.41,12-1.4,3.14-1.69,3.34-5.68,1.12-8.28-2.47-2.9-7.74-3.77-11.32-3.23l4.23,2.4c-2.57-6.31,2.83-13.39,1.55-20.14-.49-2.61-4.4-2.37-5,0Z"/><path d="M49.92,405.56a1.16,1.16,0,0,0,0-2.32,1.16,1.16,0,0,0,0,2.32Z"/><path d="M58.36,409.15a.81.81,0,0,0,0-1.62.81.81,0,0,0,0,1.62Z"/><path d="M58.11,406c-.09-.22-.08-.13-.16.13a1.38,1.38,0,0,0,0,.64c.09.46.7.36.84,0,0-.15.29-.17.4-.23a1.58,1.58,0,0,0,.55-.54.94.94,0,0,0-.81-1.41,1,1,0,0,0-.81,1.41Z"/><path d="M56.35,414.88c-.12-.38-.34-.85-.8-.86s-.69.48-.81.86c-.4,1.33,2,1.34,1.61,0Z"/><path d="M54.67,415.1a3.53,3.53,0,0,0,.81,2.38,1.42,1.42,0,0,0,2.19.12.47.47,0,0,0,0-.5c-.23-.4-.65-.54-.91-.89a2,2,0,0,1-.34-1.11.88.88,0,0,0-1.75,0Z"/><path d="M63.66,417.67c0-.09.1-.12,0-.05a.42.42,0,0,0,0,.59c.09.08,0,0,0,0a1.11,1.11,0,0,0,.43.55.92.92,0,1,0-.43-1Z"/><path d="M59.49,425.11a1,1,0,0,0,0-2,1,1,0,0,0,0,2Z"/><path d="M53.29,420.46a.3.3,0,0,0,0-.59.3.3,0,0,0,0,.59Z"/><path class="cls-11" d="M208.81,304.83c9.9-2.23,29.92,2.05,36.05-7.66,2.68-4.45.87-13.16,1.55-18,.93-10.78,8.23-10.78,11.52-16.47-2.61-7.73-6.34-5.91-8.6-2.38-4.17,6.54-4.14,4.08-5.22.65-.81-2.55-4.48,7.75-4.85,8.72-4.37,11.35-7.69,18-12,22.45-6.6,6.93-18.32,3.49-19.31,11.87"/><path class="cls-10" d="M237.25,300.7a37.75,37.75,0,0,0,4.19-6.77,25.74,25.74,0,0,0,2.19-7.44c.38-2.61.37-5.42.58-8.5a24.72,24.72,0,0,1,2.35-9.4l2.55-1.48a.92.92,0,0,0,.45-.05,5.7,5.7,0,0,0,.94-.36,14.31,14.31,0,0,0,2.11-1.26,22.78,22.78,0,0,0,2.06-1.64,19.39,19.39,0,0,0,1.82-1.8l-.31.51c-.11.29-.06.3-.07.27a1,1,0,0,0,0-.25,3.83,3.83,0,0,0-.18-.79,5.68,5.68,0,0,0-.78-1.58,2.56,2.56,0,0,0-1-.88,1.17,1.17,0,0,0-1,0,7.43,7.43,0,0,0-2.85,2.52,28.13,28.13,0,0,0-2.42,3.95l0,.09a1.64,1.64,0,0,1-1.48.88,4.16,4.16,0,0,1-1.7-.36,3.35,3.35,0,0,1-1.48-1.35,4.4,4.4,0,0,1-.52-1.53,10.28,10.28,0,0,1-.09-1.22c0-.33,0-.66,0-.91s0-.26,0-.18a1.58,1.58,0,0,0,.09.17,1.4,1.4,0,0,0,.45.42,1.38,1.38,0,0,0,1,.13,1,1,0,0,0,.28-.11l.11-.07c.18-.16.05-.06,0,0a3.66,3.66,0,0,0-.23.33c-.15.24-.31.53-.47.81-1.25,2.32-2.35,4.86-3.43,7.36-2.2,5-4.38,10.09-7,15-.67,1.22-1.36,2.43-2.14,3.61a17.46,17.46,0,0,1-2.7,3.36,19.44,19.44,0,0,1-7.5,3.94c-2.65.83-5.35,1.35-7.88,2.3a10.12,10.12,0,0,0-3.44,2.06,6.37,6.37,0,0,0-1.76,3.58,6.49,6.49,0,0,1,1.56-3.78,10.39,10.39,0,0,1,3.41-2.38c2.54-1.16,5.22-1.87,7.73-2.85a17.92,17.92,0,0,0,6.69-4.1,28.53,28.53,0,0,0,4.27-6.66c2.41-4.85,4.42-9.94,6.45-15l1.54-3.83c.52-1.29,1-2.57,1.62-3.87.15-.33.31-.66.49-1,.1-.18.2-.36.32-.55a2.92,2.92,0,0,1,.69-.76l.21-.14a2,2,0,0,1,.4-.16,1.67,1.67,0,0,1,1.27.16,1.81,1.81,0,0,1,.63.61,2.92,2.92,0,0,1,.2.39,4.13,4.13,0,0,1,.2.83c.07.43.1.78.13,1.13a5.85,5.85,0,0,0,.1.84,1.08,1.08,0,0,0,.16.39s0,0,0,0a2,2,0,0,0,.32,0l-1.53,1a32.31,32.31,0,0,1,2.49-4.61,15.36,15.36,0,0,1,1.76-2.19,8.11,8.11,0,0,1,2.6-1.86,5.24,5.24,0,0,1,3.85-.18,6.57,6.57,0,0,1,2.89,2.09,9.62,9.62,0,0,1,1.58,2.73,8.41,8.41,0,0,1,.45,1.59,5.74,5.74,0,0,1,.09,1,3.64,3.64,0,0,1-.27,1.48,1.81,1.81,0,0,1-.23.41l-.08.1a23.72,23.72,0,0,1-2.14,2.39,29.16,29.16,0,0,1-2.34,2.08,20.8,20.8,0,0,1-2.74,1.85,11.85,11.85,0,0,1-1.71.76,6.33,6.33,0,0,1-2.39.34l2.55-1.48a19.27,19.27,0,0,0-1.42,7.5c-.05,2.72.14,5.74-.14,8.91a32.33,32.33,0,0,1-2.23,9.34,43.27,43.27,0,0,1-4.52,8.29,3.5,3.5,0,0,1-5.8-3.93l.1-.14Z"/><path class="cls-11" d="M37.79,297.24c-7.53,8.95-22.94,18.42-26.32,28.56-2.25,6.75,2.26,11.26,5.07,17.45s2.25,11.26,2.25,18a87.64,87.64,0,0,1,12.39.56c1.69-5.63-3.94-18,0-23.08,2.25-2.82,15.77-6.2,19.71-7.88"/><path class="cls-10" d="M40.19,295.38c-6.29-.72-10.23,6.06-13.42,10.41-4.1,5.63-9.59,9.25-14.25,14.3-4.84,5.26-5.29,9.33-2.59,15.77,1.44,3.41,3.49,6.38,5.19,9.64,1,1.9,2.22,4.1,2.34,6.25.12,2-.35,3.71-.09,5.76l1.8-3.13a13.73,13.73,0,0,0-6.68,7.46c-.78,2.08,1.47,3.44,3.2,3.2,5.76-.83,11.7,1.69,17.55,1.45a2.06,2.06,0,0,0,2-2,48.76,48.76,0,0,0-1.19-12c-.39-2.05-.84-4.1-1.18-6.16-.48-3,0-4.7.45-7.48l-3.22,2.44c8,1.07,17-2.95,23.07-8,1.57-1.31.31-4.25-1.7-4.11-7.52.54-13.49,5.91-21.37,5.49-2.27-.12-3.64,2.22-3.21,4.22.88,4,2.3,7.87,3.13,12a53,53,0,0,1,1.21,13.64l2-2c-6.13.21-12-2.61-18.24-2.54l2.25,3.91c.94-1.69,3.92-2.29,5.57-3.2a3.69,3.69,0,0,0,1.67-4.09c-1.27-5.65-5.86-10.55-8.43-15.71-3.38-6.77-4.19-12.77,1.4-18.57,3.59-3.73,7.81-6.63,11-10.8,3.74-4.94,7.45-9.23,12.71-12.62a1.88,1.88,0,0,0-.94-3.47Z"/><polyline class="cls-10" points="142.52 173.01 169.52 198.01 124.97 174"/><path class="cls-24" d="M198.17,149.79c15.76,36,26.46,75.46,24.21,114.87-2.82,50.11-4.51,98-19.15,147-3.37,11.83-7.88,19.15-20.83,21.4-2.81.56-6.16.59-8.42-1.1-7.88-5.63-2.28-5.66,2.23-6.22-1.13-22.52-35.1-13.44-50.3-14-16.33-.57-35.29-.64-51.62-2.89-1.13,5.07-2.82,9.57-3.38,14.64,7.88,0,11.83,5.07,2.25,6.76a39.74,39.74,0,0,1-14.07-1.13c-15.21-3.94-19.15-19.14-20.27-33.22-1.69-14.08-4-27.59-6.2-41.11-2.81-14.64,0-29.84-1.12-44.48-1.69-25.9,1.68-49.55,5.63-74.89,3.38-21.4,7.32-45.61,17.45-65.32,4.51-7.88,11.83-18,19.71-22.52,6.76,6.76,12.39,18.58,20.27,24.21,6.76,5.07,21.4,1.69,30.41,2.26,18.58.56,40.54-1.13,58.56,2.81.56-7.88,12.38-20.83,18-23.65"/><path class="cls-12" d="M71.33,153.17c0,15.2-2.53,28.72-8.86,42.23-6.76,13.52-7.18,26.67-9.72,40.6-1.26,7.18-5.49,14.53-3,21.29C53.6,266.58,62,268,70.46,269.73,76,271,90.76,273.11,95,276.48c5.92,4.23-13.09,6.34-17.31,7.61v.42c6.33,3.8,15.62,7.6,22.8,8.87C111,294.64,119.9,290,130,289.58c9.3-.43,7.36,5.13,1.87,7.66-5.91,3-17.91,10.07-24.67,10.91-11,1.27-23.14-1-33.7-3.16-7.6-1.69-20.36-12-28-9.92C36.7,297.6,55.81,325.27,62,331.21c5.49,5.22-12.24,5.19-12.24,17,0,11.4-2.54,18.63-.43,29.61,1.69,10.13.11,21.11,6.44,29.56,6.76,9.71,12.15,11.83,20.59,16.89-4.22,3-18.58,5.07-23.65,3.38-10.13-4.22-12.67-19-13.51-28.29-2.11-18.58-2.11-39.28-8.45-57.44-5.91-16-.84-32.94.42-49.83.85-11,3.38-21.54,5.07-32.52,1.69-9.71.85-20.27,3-30,2.95-14.36,6.33-28.3,10.56-42.23C54.44,173,63.73,165,72.18,154"/><path class="cls-21" d="M225.48,270.57c13.09,1.27,16.89,25.76,19.42,35.48,2.11,7.18-2.69,17.15.26,23.49,3.8,9.71,17.48,8.6,26.35,9.87-1.69,14.36-27.45,6.76-35.9,7.18,2.11-9.71-7.44-8.28-12.93-19.26-4.22-8,4.91-20-1.43-26.35v.42c-2.11-8-5.91-27.87,4.65-31.67"/><path class="cls-10" d="M221.48,275.08c4.32-8.85,2.73-20.08,3.31-29.62a138.44,138.44,0,0,0-1.86-33.4c-4-22.18-13.9-42-20.77-63.21-.95-2.93-5.71-4.23-7.22-.94-4.21,9.17-9.49,17.81-18.92,22.33-3.41,1.63-.19,7.22,3,5.08,4.45-3,8.86-5.64,12.77-9.41a56,56,0,0,0,10-14h-6.82c2.33,4.81,5.4,9.24,7.57,14.1A149.42,149.42,0,0,1,208,180.76a263.12,263.12,0,0,1,7.4,30.75c2,10.4,3.47,20.94,4.57,31.48a53.54,53.54,0,0,1-1,16.22c-.94,4.7-2.33,9.74-2.44,14.54-.05,2.52,3.76,3.72,4.93,1.33Z"/><path class="cls-10" d="M184,172.75c-5.91-4.19-15.05-3.9-21.95-3.39-7.83.59-15.57,1.69-23.37,2.58a131.46,131.46,0,0,1-46.79-3.08c-4.38-1.1-6.22,5.82-1.85,6.71,15.07,3.07,30.2,1.78,45.45,1.37,7.67-.2,15.33-1,23-1.12,4.13-.07,8.24.23,12.35.55s7.85,1.42,11.83,1.25a2.64,2.64,0,0,0,1.32-4.87Z"/><path class="cls-10" d="M97.39,177.24c-.14-6.3-4.85-13.53-9.59-17.4-5.25-4.28-8.42-10.87-14.12-14.64a2.89,2.89,0,0,0-4.21,1.71c-2.6,7.87-6.93,14.32-11.94,20.8a44.54,44.54,0,0,0-5.17,8.55c-1.8,3.77-4.54,6.87-6.34,10.63-7.19,15-7.18,32.78-10.86,48.75-.68,3,3.49,5,5.06,2.13a37.5,37.5,0,0,0,2.23-4.6l-5.07-1.4c-1.53,10.86-3.53,21.55-4.6,32.49-.38,3.82,5.55,3.77,5.94,0,1.08-10.33,2.16-20.82,3.73-31.09.41-2.67-3.41-5-4.81-2a42.82,42.82,0,0,1-2.2,3.84l5.06,2.13c3.94-16.61,5.75-33.55,10-50.11a22.36,22.36,0,0,1,6.52-11.36,97.65,97.65,0,0,0,7.61-9.11c4.4-5.66,8.31-11.13,10.34-18.1l-4.22,1.72a27.91,27.91,0,0,1,11.85,13.16c2.09,5.28,6.27,9.53,8.33,14.8,1.26,3.22,6.51,3.09,6.43-.87Z"/><path class="cls-10" d="M220.61,303.83c-2.18,4.57-1.92,9.44-2,14.4A99.66,99.66,0,0,1,217,336.31c-2.25,10.89-3.42,21.87-5.77,32.78-1.07,5-2.36,9.9-3.3,14.91-1,5.42-1.08,10.78-2.53,16.17a104.43,104.43,0,0,1-6,16.17c-2.19,4.8-5.45,9.06-7.57,13.81-.56,1.26.4,3.29,2,2.66,4-1.56,5.7-5.82,7.5-9.48a101.93,101.93,0,0,0,5.7-14.73c3.52-11.22,7.48-22.1,9.21-33.75.78-5.29,2.26-10.65,2.11-16-.1-3.57-.76-6.53.35-10.07.89-2.85,2.2-5.53,3-8.39,1.6-5.47,1.66-11.09,1.9-16.73.25-6.12,1.68-12.55,1.18-18.64-.17-2-3.19-3.39-4.26-1.16Z"/><path class="cls-10" d="M192.57,430c-3.37,1.24-7.75,2-11.22,1.21s-7.45-1.44-9.61-4.4l-1.07,4.09a20.84,20.84,0,0,1,6.69-2.51,2.45,2.45,0,0,0,1.67-2.94c-.87-4.15.54-8.11-1.23-12.05-1.1-2.46-4.39-.9-4.59,1.24-.34,3.7.66,7.75,1.12,11.44l2.39-2.39c-2.62.24-5,1.31-7.56,1.64-1.72.22-3.65,1.76-2.88,3.78,1.87,4.9,8.19,6.56,13,6,4.6-.54,10-.92,14.19-3,1.14-.58.34-2.55-.89-2.1Z"/><path class="cls-10" d="M184,408.71c-3.87-1-7.95.3-11.84.85A106.82,106.82,0,0,1,157,410.77c-9.49,0-19,0-28.49-.12-5.06-.07-10.08-.54-15.12-.49s-9.55-1.43-14.44-2.17A68.88,68.88,0,0,0,86,406.92c-4,.16-7.85,1-11.71-.23-3.71-1.2-5.2,4.51-1.6,5.79s7,.82,10.62.82c4.61,0,9.25.83,13.84,1.27,5.37.51,10.5-.79,15.86-.07,5.12.69,10.29,1,15.44,1.41,10,.77,20.26,1,30.34.93,7.59-.07,19.85,0,25.92-5.16a1.8,1.8,0,0,0-.78-3Z"/><path class="cls-21" d="M225.71,272.08c1.34,25.84,24,69.84,3.88,86-8.52,17.63,11.7,73.72-3.88,80.8-73.34,33.33-185,8.41-212.67-5.55C6,429.83-9.29,305,29.1,276.91c4.88-3.57.43-7.18,6.34-7.18,4.22.42,18.14,2.26,22.36,3.1,18.16,5.07,37.48,6.07,56.48,6.5C122.73,279.75,212.93,285.58,225.71,272.08Z"/><path class="cls-23" d="M175.29,281.67s9.67,3.41,17.42,1.83-2.25,1.08-3.92,4-3.53,4.85-1.5,6.67-7.75-4.5-10.42-8.25S175.29,281.67,175.29,281.67Z"/><path class="cls-23" d="M26.28,290.72S15.91,301.27,12.21,309s-8.69,72.73-6.55,89.53,6.21,29.64,7.38,34.86,33.85,14.32,43.63,13.52S31.59,436.23,33,423.77s4.13-18.55,4.81-24.47.49-28.91-3.25-43.14-10.72-24.63-13.6-40.33S26.28,290.72,26.28,290.72Z"/><path class="cls-23" d="M235.62,318.4s2.09,9.31,7.46,15.06,10.83,11.25,15.17,12-4,1.14-9.92,1.37-11.19.47-12.71,3.3,2.78-4.55,2.25-13.3S235.62,318.4,235.62,318.4Z"/><path class="cls-23" d="M228.71,419a106.06,106.06,0,0,0-15.77-23c-10.18-11.19-20.11-21.37-25.8-34.26s-7.81-19-7.81-19,8,15.4,25.25,23,23.19-.78,23.19-.78Z"/><path class="cls-10" d="M184.34,291.83c-.87-.44-.48-.19,1.16.75l-.74-.64c-.53-.51-1-1-1.56-1.52a57.53,57.53,0,0,1-4.28-5c-1.9-2.46-6.77-3.54-5.73-2.2a35.8,35.8,0,0,0,6.06,6.35,39.31,39.31,0,0,0,8.58,5.75c.58.27,2.9,1.5,1.57-.06a20.37,20.37,0,0,0-5.06-3.44Z"/><path class="cls-10" d="M224.23,268.45c-7,4.14-13.73,8-21.94,9.3-7.17,1.14-14.66,1.21-21.9,1.66-9.27.58-18.45.32-27.71.08-9-.24-17.82-.27-26.73-1.33s-18-3.07-27.11-2.86c-5.14.11-10,.75-15.11,0-3.42-.53-6.84-1.07-10.25-1.64-7.62-1.28-15.07-3.51-22.55-5.45a120.68,120.68,0,0,1-13.6-4c-.68-.26-3.19-2-3.7-1.86.22,0-.14,2.25-.19,2.22s4.32-1.07,4.39-1.08a2.24,2.24,0,0,0,.59-4.37c-3.64-1.36-9.84-1.67-10.94,3.27-.74,3.31,2.32,5.48,4.88,6.75,8.74,4.32,20.24,6.62,29.89,7.3,3.66.26,7.26.79,10.9,1.28,4.71.63,9.33.41,14,.64,5.79.29,11.64,2.17,17.47,2.79,21.45,2.28,42.92,1.14,64.4,2.35,18.74,1.06,43.25,2.68,58.16-11.12,2.07-1.91-.59-5.27-3-3.86Z"/><path class="cls-10" d="M33.7,413.05c1.41-5.16,2.88-10.32,3.38-15.54.12-1.3.2-2.6.21-3.89s-.07-2.62-.14-3.94c-.14-2.65-.28-5.3-.52-7.94s-.5-5.28-.78-7.92-.6-5.23-1.13-7.76-1.15-5.07-1.88-7.58-1.61-5-2.56-7.45c-1.8-5-3.89-9.89-5.73-15-.88-2.56-1.76-5.13-2.46-7.76s-1.32-5.25-1.85-7.91A45.24,45.24,0,0,1,19.58,304a26.55,26.55,0,0,1,2.63-7.79,25.83,25.83,0,0,1,4.87-6.45,27.42,27.42,0,0,0-5.56,14.49,47.87,47.87,0,0,0,1.76,15.43c.32,1.26.69,2.55,1.06,3.82s.69,2.55,1.11,3.78c.76,2.51,1.7,5,2.65,7.43,1.9,4.93,4,9.84,5.92,14.9a87.38,87.38,0,0,1,4.41,15.74c.47,2.71.7,5.47.9,8.12s.34,5.38.41,8.07.1,5.39,0,8.08c0,1.35-.07,2.68-.18,4.07s-.31,2.74-.57,4.08A69,69,0,0,1,33.7,413.05Z"/><path class="cls-10" d="M177.5,325.12c.52,5.32,1,10.67,2.39,15.72.35,1.26.74,2.5,1.19,3.71s1,2.42,1.54,3.63c1.08,2.43,2.16,4.85,3.32,7.23s2.36,4.75,3.56,7.12,2.43,4.67,3.83,6.85,2.89,4.32,4.46,6.41,3.29,4.07,5.06,6c3.45,4,7.16,7.84,10.69,11.93,1.74,2.07,3.47,4.16,5.07,6.37s3.1,4.43,4.56,6.72a45.55,45.55,0,0,1,6.46,15.06,26.65,26.65,0,0,1,.32,8.21,25.83,25.83,0,0,1-2.24,7.77,27.41,27.41,0,0,0,0-15.52,48.05,48.05,0,0,0-7.15-13.79c-.75-1.06-1.56-2.13-2.36-3.19s-1.54-2.13-2.38-3.14c-1.61-2.06-3.37-4-5.13-6-3.54-3.92-7.26-7.75-10.86-11.8a88.52,88.52,0,0,1-9.74-13.12c-1.4-2.37-2.6-4.86-3.74-7.27s-2.23-4.9-3.26-7.39-2-5-2.91-7.53c-.44-1.28-.88-2.53-1.28-3.88s-.69-2.66-.93-4A68.8,68.8,0,0,1,177.5,325.12Z"/><path d="M52.4,252.72l-.39-.09.44.25a1.52,1.52,0,0,0-1.24-.39,1.1,1.1,0,0,0,0,2.19,1.53,1.53,0,0,0,1.24-.4l-.44.26.39-.1a.9.9,0,0,0,0-1.72Z"/><path d="M66.17,193.15a1.93,1.93,0,0,0-.2-.92,1,1,0,0,0-1.71,0,1.93,1.93,0,0,0-.2.92c-.08,1.35,2.2,1.36,2.11,0Z"/><path d="M69,184.62a5.79,5.79,0,0,0-.33.56l.35,0,0-.06a2.39,2.39,0,0,0-.14-.43.32.32,0,0,0-.61,0c-.14.5-.1,1.24.49,1.42s1.2-.49,1.54-1c.53-.78-.88-1.52-1.26-.53Z"/><path d="M66.39,178.46c-.35-.3-.69-.66-1.18-.64a.89.89,0,0,0-.87.87,1.71,1.71,0,0,0,.64,1.18c.85,1,2.37-.56,1.41-1.41Z"/><path d="M61.47,186.63a1.07,1.07,0,0,0-.62,1.79,1.5,1.5,0,0,0,1.67.13.44.44,0,0,0,.09-.68c-.12-.11-.25-.19-.36-.31l.2.47c0-.23,0-.18-.1.16l-.35.35-.26.09a1,1,0,0,0,1-1.15,1,1,0,0,0-1.27-.85Z"/><path d="M57.8,266.26c0-.21,0,.08,0-.07a1.14,1.14,0,0,1,.06-.25,6,6,0,0,1,.24-.67c.06-.17.16-.32.24-.49a1.72,1.72,0,0,0,.11-.78.65.65,0,0,0-.65-.65,1.42,1.42,0,0,0-.93.3,4.8,4.8,0,0,0-.67.82,3.64,3.64,0,0,0-.65,1.79,1.13,1.13,0,0,0,1.12,1.12,1.15,1.15,0,0,0,1.13-1.12Z"/><path d="M74.69,186.14a4.71,4.71,0,0,0-2.49.5.49.49,0,0,0,0,.83,4.91,4.91,0,0,0,2.49.5c1.18.05,1.18-1.89,0-1.83Z"/><path d="M57.55,187.86a1.42,1.42,0,0,0-.27-1.35.9.9,0,0,0-1.22,0,1.45,1.45,0,0,0-.27,1.35.92.92,0,0,0,1.76,0Z"/><path d="M56.67,202.21a1.08,1.08,0,0,0,0-2.16,1.08,1.08,0,0,0,0,2.16Z"/><path d="M61.17,204a.69.69,0,0,1-.15-.24.47.47,0,0,0-.81,0,.87.87,0,0,1-.15.24.78.78,0,1,0,1.11,0Z"/><path d="M63.43,200.76a.76.76,0,0,0,0-1.52.76.76,0,0,0,0,1.52Z"/><path d="M55.16,196a2.44,2.44,0,0,0-1.08,1,.4.4,0,0,0,.54.54,1,1,0,0,1,.72-.16.77.77,0,1,0-.18-1.41Z"/><path d="M52.17,210a1,1,0,0,0,0-1.94,1,1,0,0,0,0,1.94Z"/><path d="M57.67,213.23a2.19,2.19,0,0,0,.08-.95.58.58,0,0,0-.4-.4,1.92,1.92,0,0,0-1,.08,1,1,0,1,0,1.27,1.27Z"/><path d="M62.87,209.16c-.31,0,.11.16,0,0a1.09,1.09,0,0,0-.41-.19,1.31,1.31,0,0,0-.83,0,.6.6,0,0,0-.14,1.09c.13.07.24.37.35.49a1.56,1.56,0,0,0,.82.5c1.43.38,1.63-2,.26-1.92Z"/><path d="M55.48,220.21l-.29.27a.51.51,0,0,0,0,.71l.29.28a.89.89,0,1,0,0-1.26Z"/><path d="M51.6,222.68a.16.16,0,0,0,0-.31.16.16,0,0,0,0,.31Z"/><path d="M50.48,221.28a2.26,2.26,0,0,1-1.11-.28,3.35,3.35,0,0,1-.49-.6c-.58-.72-1.65.06-1.46.84.16.63.64.86,1.2,1a5.64,5.64,0,0,0,1.86.36.68.68,0,0,0,0-1.36Z"/><path d="M47.21,258.81a7.42,7.42,0,0,1-.3-.83.39.39,0,0,0-.75,0,7.42,7.42,0,0,1-.3.83.78.78,0,1,0,1.35,0Z"/><path d="M48.78,245.65c0-.21,0,0,0-.09a1.46,1.46,0,0,1,0-.2c0-.13-.06.12,0-.06s.06-.23.06-.12,0,0,0,0-.07,0,0,0l-.16.06-.44,0,.29,0h.18l-.67-.39a2.44,2.44,0,0,0,.39.46.46.46,0,0,0,.66,0,1.21,1.21,0,0,0,.36-.64l-.35.46a1,1,0,0,0,.47-.69,1.11,1.11,0,0,0-.5-1.22c-1.48-.93-2.51,1.16-2.55,2.33,0,1.43,2.18,1.43,2.23,0Z"/><path d="M49,232.41c-.07,0,.32.3.13,0a.42.42,0,0,0-.71,0c-.18.26.25-.06.13,0a.84.84,0,0,0-.43,1.32.82.82,0,0,0,1.32,0,.84.84,0,0,0-.44-1.32Z"/><path d="M57.52,226.54c-.1.14.08-.08,0,0a.66.66,0,0,0,0,.92c.11.1,0-.1,0,0a1,1,0,1,0,0-1Z"/><path d="M51,227.89a.86.86,0,0,0,0-1.72.86.86,0,0,0,0,1.72Z"/><path class="cls-10" d="M34.29,271.69c5.66,2.83,13.38,2.49,19.58,3.43,10.07,1.53,19.75,4.13,30,5.06,13.33,1.21,26.8,2.19,40.19,2.67,24.75.88,49.92,2.43,74.66,0,9-.86,22.62-1.37,29.36-8.47,2.94-3.09-1.59-7.62-4.67-4.67-5.62,5.35-17,5.74-24.21,6.46a360.57,360.57,0,0,1-39,1.71c-11.44-.07-23,0-34.39-1s-22.9-.21-34.33-1.14c-12-1-23.29-4.13-35.06-6.21-6.42-1.13-15.13-3.75-21.53-2.07-1.81.47-2.32,3.26-.54,4.15Z"/><path class="cls-10" d="M224.49,271.34c3,2.81,6.3,5,8.77,8.29a44.09,44.09,0,0,1,6.3,12.28c2.8,8.49,2.4,17.24,3.4,26,.79,7,2.61,14.25,8.35,18.77a24.74,24.74,0,0,0,23.17,3.64l-3.81-3.81c-.91,2.93-3.9,7.51-6.68,9-3.95,2.15-8.76-1.41-12.55-2.31a19.69,19.69,0,0,0-12.83,1.8c-10.26,4.87-16.86,17-13.69,28.24.77,2.73,5.25,2.3,5.07-.68-.41-6.95.18-13,5.17-18.24,3.35-3.55,8.43-6.57,13.49-6.19,6.15.47,10.83,5.47,17.35,2.84a18.31,18.31,0,0,0,10.64-12.83c.66-2.84-2.12-4.55-4.55-3.5a18.83,18.83,0,0,1-24-7.52c-4.36-7.36-2.15-17.28-2.42-25.41a48.09,48.09,0,0,0-5.24-20c-2.76-5.45-7.77-12.35-14.27-13.28-1.55-.22-3,1.56-1.67,2.87Z"/><path class="cls-10" d="M235.92,317.87a97,97,0,0,1,2.39,10.07,54.16,54.16,0,0,1,.92,10.47,29.41,29.41,0,0,1-2,10.68,23.9,23.9,0,0,1-6.58,9.12l.69-.86a20.55,20.55,0,0,0-1.4,6.4,55.63,55.63,0,0,0,0,7.08c.22,4.81.75,9.68,1.41,14.56l2,14.73c.66,4.95,1.29,9.94,1.69,15q.3,3.81.28,7.73a45,45,0,0,1-.74,8.05,21.87,21.87,0,0,1-1.22,4.21,14.38,14.38,0,0,1-2.54,4.19,11.35,11.35,0,0,1-2,1.78,11.11,11.11,0,0,1-2.2,1.14c-1.17.49-2.34,1-3.52,1.46a161.25,161.25,0,0,1-29.19,8.12A284.5,284.5,0,0,1,164,455.58c-10,.73-19.94,1.17-29.93,1.18a452.52,452.52,0,0,1-59.83-3.62c-5-.64-9.91-1.45-14.85-2.32s-9.85-1.94-14.75-3.07S34.88,445.32,30,443.9s-9.67-3-14.47-5c-1.2-.5-2.4-1-3.6-1.59l-.45-.22-.23-.1-.27-.15a4.66,4.66,0,0,1-.47-.3,6.57,6.57,0,0,1-1.65-1.78,14.17,14.17,0,0,1-1.2-2.35,53.74,53.74,0,0,1-2.34-7.77c-1.18-5-2-10-2.72-15A289.81,289.81,0,0,1,.15,379.52C0,374.49,0,369.46,0,364.43s.32-10.07.67-15.09a207.23,207.23,0,0,1,4.17-30c2.25-9.86,5.31-19.69,10.45-28.6a47.11,47.11,0,0,1,9.61-12A33.66,33.66,0,0,1,28,276.41a12.26,12.26,0,0,0,1.39-1,4.85,4.85,0,0,0,1-1.2,5.73,5.73,0,0,0,.59-1.52,9.9,9.9,0,0,1,.57-1.94,2.3,2.3,0,0,1,.83-.92,3.24,3.24,0,0,1,1.05-.4,8.32,8.32,0,0,1,2-.08v.8c-1.18.07-2.52.32-2.71,1.12s-.15,2.4-.78,3.71a7,7,0,0,1-1.19,1.78,16.09,16.09,0,0,1-1.47,1.36,30.59,30.59,0,0,0-2.61,2.48,46.33,46.33,0,0,0-7.92,12,84,84,0,0,0-4.93,13.64,132.2,132.2,0,0,0-3,14.28c-3.07,19.3-3.21,39.08-2.26,58.68C9,389,9.88,398.79,11.11,408.49c.65,4.84,1.37,9.67,2.35,14.35a48.51,48.51,0,0,0,1.78,6.54,8.19,8.19,0,0,0,.45,1,2.79,2.79,0,0,0-.43-.38l-.27-.17c-.15-.07-.13-.06-.07,0l.19.1.39.2c1,.52,2.1,1,3.19,1.49a201.8,201.8,0,0,0,27.7,9.25c9.49,2.55,19.12,4.72,28.8,6.65,19.37,3.83,39.09,6.48,58.91,6.75a211.56,211.56,0,0,0,58.72-6.84,183.11,183.11,0,0,0,27.64-9.79c1.11-.49,2.21-1,3.31-1.52a4.62,4.62,0,0,0,.68-.34,1.72,1.72,0,0,0,.4-.26,4.33,4.33,0,0,0,.74-.69,12,12,0,0,0,2-5.19,64.42,64.42,0,0,0,.32-14c-.57-9.7-2.14-19.53-3-29.51-.46-5-.88-10-.85-15.18a60.79,60.79,0,0,1,.51-7.8,25.6,25.6,0,0,1,2.29-8l.28-.56.4-.3a19.81,19.81,0,0,0,5.88-6.93,28.27,28.27,0,0,0,2.59-9.18,59.3,59.3,0,0,0,.21-10c-.19-3.37-.57-6.76-1-10.15Z"/></g></g></g></svg>