<svg xmlns="http://www.w3.org/2000/svg" viewBox="0 0 354.84 285.83"><defs><style>.cls-1{fill:#231f20;}.cls-2{fill:#ffcd05;}.cls-3{fill:#d5b029;}.cls-4{fill:#cb2027;}.cls-5{fill:#fff;}.cls-6{opacity:0.52;}.cls-7{fill:#faa21b;}.cls-8{fill:#58595b;}.cls-9{fill:#ffcb05;}</style></defs><title>cat-2</title><g id="Слой_2" data-name="Слой 2"><g id="Layer_1" data-name="Layer 1"><polyline class="cls-1" points="132.16 27.79 105.58 52.4 149.43 28.77"/><path class="cls-2" d="M77.38,4.94C61.87,40.41,51.34,79.2,53.55,118,56.32,167.32,58,214.43,72.4,262.64c3.32,11.64,7.75,18.85,20.5,21.06,2.77.56,6.07.58,8.29-1.08,7.75-5.54,2.24-5.57-2.19-6.12,1.11-22.17,34.54-13.23,49.5-13.79,16.07-.55,34.74-.62,50.81-2.84,1.11,5,2.77,9.42,3.32,14.41-7.76,0-11.64,5-2.21,6.65a39,39,0,0,0,13.85-1.11c15-3.88,18.84-18.84,19.95-32.69,1.67-13.86,3.88-27.16,6.1-40.46,2.77-14.41,0-29.37,1.11-43.78,1.66-25.5-1.67-48.77-5.54-73.71-3.33-21.06-7.21-44.89-17.18-64.29-4.44-7.76-11.64-17.73-19.4-22.17C192.66,9.37,187.12,21,179.36,26.55c-6.65,5-21.06,1.67-29.93,2.22-18.29.55-39.9-1.11-57.64,2.77C91.24,23.78,79.6,11,74.06,8.26"/><path class="cls-3" d="M64.64,66C58,76.43,70.87,90.56,80.85,92.64c17.45,4.16,33.25-10.81,26.6-29.09-13.72,4.57-29.93-1.25-43.64,2.07"/><path class="cls-3" d="M150.26,64.79c-7.48,14.55,6.24,31.59,21.61,30.34,16.22-1.24,25.36-16.62,24.94-32-7.89-.83-17.87,1.66-26.18,2.08-4.57,0-8.73-.42-13.3-.83-1.67,0-9.15-.42-7.07.41"/><path class="cls-3" d="M202.22,8.26c0,15,2.49,28.27,8.73,41.57,6.65,13.3,7.06,26.24,9.56,40,1.24,7.07,5.4,14.3,2.91,20.95-3.75,9.15-12,10.58-20.35,12.24-5.4,1.25-20,3.33-24.13,6.65-5.82,4.16,12.89,6.24,17,7.49v.41c-6.23,3.74-15.38,7.48-22.44,8.73-10.39,1.25-19.12-3.33-29.1-3.74-9.14-.42-7.24,5-1.83,7.55,5.81,2.9,17.63,9.9,24.28,10.73,10.8,1.25,22.78-1,33.17-3.11,7.48-1.67,20-11.85,27.51-9.77,8.73,2.5-10.07,29.73-16.21,35.57-5.4,5.15,12.06,5.12,12.06,16.75,0,11.23,2.49,18.34.41,29.15-1.66,10-.1,20.78-6.33,29.1-6.65,9.56-12,11.63-20.27,16.62,4.16,2.91,18.29,5,23.28,3.33,10-4.16,12.47-18.71,13.3-27.85,2.08-18.29,2.08-38.66,8.31-56.53,5.82-15.79.83-32.42-.42-49.05-.83-10.8-3.32-21.2-5-32-1.67-9.56-.83-20-2.91-29.51-2.91-14.14-6.24-27.85-10.39-41.57-4.58-14.13-13.72-22-22-32.83"/><path class="cls-3" d="M189,229.28s31.48-18.58,38.17-11.59S242,192.49,233.25,192s-25.93,9.58-32.58,18.17A120.44,120.44,0,0,0,189,229.28Z"/><path class="cls-4" d="M240.87,118.83c2.91-1.25,2.5,1.66,4.58,3.32,4.15,2.08,3.74,1.25,8.72,1.25,8.73,0,11.23,2.91,15,9.56,7.48,12,14.13,32.84,29.92,35.75,16.21,2.9,27.85-7.9,43.65.41h0c-13.3,0-21.62,5.82-32.84,11.22-9.56,4.58-17.46,8.32-24.94,15.38-7.06,6.65-13.71,8.73-22.86,6.65-7.06-1.66-13.72-5.4-20.78-2.91-.42-8.31.41-16.21-3.74-23.69s-12.06-12.05-10.81-21.61c.83-6.65,6.65-12.89,9.15-18.71,2.49-5.4,2.9-12.47,6.65-16.62,0-.83-.84,0-1.25,0"/><path class="cls-4" d="M50.5,123.81c-12.88,1.25-16.62,25.36-19.12,34.92-2.07,7.07-2.9,15.79-5.81,22-3.75,9.56-11.64,9.56-20.37,10.81,1.66,14.13,27,6.65,35.33,7.06-2.08-9.56-9.56-13.3-4.16-24.11,4.16-7.89,12.06-14.54,18.29-20.78v.42c2.08-7.9,5.82-27.44-4.57-31.18"/><path class="cls-2" d="M55.77,153.47c-5.54,8.31-22.72,18.84-20.51,29.92,1.11,5,8.32,10,11.09,13.86,6.65,8.31,10.76,7.23,10.76,16.1,6.65-.55,2.54-1.14,4.76-6.68,2.21-6.1,0-17.18,0-23.28,0-9.42,0-23.27-5-29.92"/><path class="cls-1" d="M59.29,126.94c-.1-4.49-1.41-9.14-2.27-13.55a56.29,56.29,0,0,1-1.18-15.91,299.11,299.11,0,0,1,4.58-31.8,260.9,260.9,0,0,1,7-29.5,148.37,148.37,0,0,1,5.35-14.61C75,16.53,78.16,12,80.56,7H73.85c2.7,5,5.73,9.83,9.84,13.79,3.85,3.72,8.18,6.28,12.57,9.26,3.11,2.11,6.28-3.39,2.92-5-9.28-4.45-14.48-12.95-18.62-22-1.49-3.25-6.16-2-7.1.92C66.69,24.92,57,44.39,53,66.22a131.57,131.57,0,0,0-1.87,32.07c.62,9.61-1.06,21,3.3,30,1.15,2.35,4.9,1.18,4.85-1.31Z"/><path class="cls-1" d="M92.59,32.33c3.92.16,7.74-.93,11.65-1.23s8.1-.61,12.16-.55c7.56.11,15.09.91,22.65,1.11,15,.4,29.9,1.67,44.73-1.35,4.29-.87,2.49-7.69-1.82-6.61a129.46,129.46,0,0,1-46.06,3c-7.67-.88-15.29-2-23-2.54-6.81-.51-15.79-.8-21.62,3.33a2.6,2.6,0,0,0,1.3,4.8Z"/><path class="cls-1" d="M182.9,32.81c2-5.18,6.15-9.37,8.2-14.57A27.52,27.52,0,0,1,202.76,5.29L198.61,3.6c2,6.86,5.85,12.24,10.18,17.81a97.49,97.49,0,0,0,7.49,9,21.93,21.93,0,0,1,6.41,11.18c4.22,16.3,6,33,9.88,49.32l5-2.1A42.66,42.66,0,0,1,235.38,85c-1.37-2.88-5.14-.66-4.74,2,1.55,10.11,2.62,20.43,3.68,30.61.38,3.7,6.22,3.75,5.85,0-1.06-10.77-3-21.3-4.53-32l-5,1.38a36.39,36.39,0,0,0,2.2,4.53c1.54,2.76,5.66.85,5-2.1-3.63-15.72-3.61-33.24-10.68-48-1.78-3.71-4.47-6.74-6.24-10.46a44.64,44.64,0,0,0-5.09-8.41c-4.94-6.38-9.2-12.74-11.76-20.48A2.85,2.85,0,0,0,199.91.41c-5.61,3.72-8.74,10.2-13.9,14.42-4.66,3.81-9.3,10.91-9.43,17.12-.09,3.87,5.07,4.06,6.32.86Z"/><path class="cls-1" d="M76.44,38.69c1.76-1.73,2.38-4.08,3.26-6.32,1-2.5,2.15-4.91,3.2-7.37l-6.63-.87c1.78,4.31,2.16,11.79,6.58,14.29,1.9,1.08,4.72-.26,4.58-2.62S85.89,31.27,85.22,29s-1.18-4.54-2-6.76c-.94-2.72-5.15-3.85-6.63-.86a71.18,71.18,0,0,0-3.42,8.22c-.89,2.56-1.9,5.32-1,8a2.57,2.57,0,0,0,4.25,1.12Z"/><path class="cls-1" d="M199.14,29.66c1.27-1.48,1.5-3.55,2.48-5.24,1.07-1.85,2.34-3.6,3.57-5.34l-7.08-.92c.57,3.9,1.54,7.73,2.14,11.64a3.59,3.59,0,0,0,2.56,2.56,3.79,3.79,0,0,0,2.82-.37,3.57,3.57,0,0,0,1.82-3.17c-.51-3.91-1.31-7.78-1.73-11.69s-4.83-5.06-7.22-2c-2.8,3.62-8.44,11.18-3.44,15a3.35,3.35,0,0,0,4.08-.52Z"/><path class="cls-5" d="M74.11,63.84c-3.16,11.09,1,21.7,12.17,23.74,9.85,2,15.06-8.84,17.46-17.28"/><path class="cls-1" d="M72.45,62.87c-4.77,10.06.75,23.92,11.88,26.58,11.57,2.77,19.06-9,21.84-18.49.91-3.11-3.92-4.43-4.85-1.33C99,77.34,95.57,87.92,85.52,85.11a13.26,13.26,0,0,1-9.14-8c-1.72-4.44-.62-8.74-.34-13.31.11-1.85-2.77-2.68-3.59-1Z"/><path class="cls-1" d="M79.77,63.84c-1.11,3.92-1.69,9.23,3.77,12,5.17,2.72,11.69-.41,12.65-4.87,1-5.69-11.3-6.46-16.71-7.25"/><path class="cls-1" d="M111.49,86.05c5.35,0,28.67-3.65,26.23,3.64-1,2.6-13.11,6.76-15.54,6.24-3.88-.52-10.69-7.81-10.69-10.4"/><path class="cls-1" d="M121.69,93c-1,2.58-.63,5.67-.28,8.39A45.65,45.65,0,0,0,123,109.9c1,3.09,6.23,2.8,6-.81-.21-2.93-.73-5.82-.92-8.77-.17-2.77-.15-5.44-1.24-8s-4.35-1.25-5.13.67Z"/><path class="cls-1" d="M108.16,96.82c-13.93-2.33-27.93-1.43-42-1.53-11.86-.09-24.78-2.26-35.82,3a1.08,1.08,0,0,0,.54,2c25.58-.56,51.26.71,76.84-.27,1.74-.07,2.32-2.89.43-3.2Z"/><path class="cls-1" d="M105.93,103.7a29.61,29.61,0,0,0-15.85,2.43c-5.68,2.46-11,5.38-17,7-5.51,1.48-11.16,2.42-16.7,3.82-4.82,1.23-10.75,2.54-14.25,6.3a1.79,1.79,0,0,0,1.73,3c5.23-.92,10.2-3.62,15.43-4.88,5-1.21,10.12-2.11,15.11-3.46a79.39,79.39,0,0,0,13.52-5.35c5.32-2.55,12-6,18-6.22a1.31,1.31,0,0,0,0-2.61Z"/><path class="cls-1" d="M142.28,96c13,1.78,26.29,1.74,39.38,2.12,6.38.19,12.71.62,19.06,1.27,2.89.3,5.8.43,8.69.76,3.05.34,5.78,1.16,8.81.61,2.21-.4,2.22-3.44.59-4.49-4.21-2.71-11.45-2.49-16.33-2.55-6.31-.07-12.63.54-18.95.5-13.6-.11-27.34-1.41-40.92-.62-1.28.08-1.76,2.2-.33,2.4Z"/><path class="cls-1" d="M147.83,105c4.49,2.73,9.79,3.35,14.88,4.36,5.44,1.08,10.92,2,16.39,3,10.42,1.83,21,5.08,31.54,5.49a1.35,1.35,0,0,0,.67-2.49c-9.14-5.15-20.6-6.13-30.85-7.94-5.47-1-10.94-1.92-16.42-2.87-5.13-.89-10.31-2.45-15.54-2a1.34,1.34,0,0,0-.67,2.48Z"/><path class="cls-1" d="M56.4,119.72c-2.56-4.15-9.95-2.75-8.18,2.74,1.29,4,8.39,6.22,11.87,7.29,7,2.13,13.89,5.18,21.13,6.13,4.54.59,9.15.61,13.72.79,4.25.17,9.36-.6,13.49.47a1.19,1.19,0,0,0,.92-2.17c-3.88-2.63-8.07-2.33-12.65-2.72-5.72-.48-11.45-.88-17.16-1.53a123.93,123.93,0,0,1-15.4-3.25,33,33,0,0,1-6.78-2c-1.16-.58-2.12-1.89-3.25-2.31l.28-.71q-2.43,1.37,0,.78c1.67-.19,3-1.87,2-3.52Z"/><path class="cls-1" d="M129.76,144a45.88,45.88,0,0,1,11.3,9.92c1.59,1.86,3.62,3.72,4.55,6,1.17,2.87-.28,5.69-1.1,8.46-.45,1.54,1.79,2.08,2.35.65,1-2.66,3.17-5.65,2.85-8.62s-2.85-5.48-4.65-7.79c-3.95-5.07-7.36-11.12-14.51-11.56-1.6-.1-2.08,2.17-.79,2.93Z"/><path class="cls-1" d="M109.94,140.55c-4.36-2.91-9.85.49-14.56,1-7.28.74-14.42,1.08-21.66,2.32-7,1.21-13.86,3.8-20.83,5.42-4.76,1.1-10.84,2.7-12.94,7.61-.68,1.58.45,3.82,2.44,3.17s3.63-1.9,5.58-2.83a36.32,36.32,0,0,1,7.46-2.12c6.09-1.44,12.18-3.17,18.12-5.14a88.56,88.56,0,0,1,19.08-4.32c5.42-.61,10-1.66,15.49-.76a2.37,2.37,0,0,0,1.82-4.32Z"/><path class="cls-1" d="M54.68,151.45c-3.06,1.75-4.12,4.07-6.25,6.78-2.6,3.32-5.91,6-8.56,9.33-3.42,4.25-7.44,10.37-6.84,16.12.47,4.4,3.77,9,6.66,12.23,3.8,4.17,9.66,5.52,12.57,10.54,1.58,2.71,5.64.31,4.19-2.44-1.8-3.44-5-6.7-7.7-9.44-3.14-3.18-8.07-4.69-10.42-8.56-3.11-5.11,2.12-11.56,4.94-15.82a60.56,60.56,0,0,1,13.89-14.5c2.44-1.86.35-5.85-2.48-4.24Z"/><path class="cls-1" d="M50.28,121.68c-6.22.64-11,6.84-13.82,12a46.14,46.14,0,0,0-5.64,20.85c-.25,8.64,1,16.69-3.08,24.72a16.38,16.38,0,0,1-10.61,8.42c-4.69,1.13-8.69-.21-13.25-1-2-.34-4.62,1.34-3.69,3.69,3.15,7.95,9.5,14.93,18.7,12.58,5-1.28,8.93-2.68,14.19-2.51,4.8.16,9.14,1.17,13.09,4,2.49,1.75,4.87-1.94,3.08-4-4.6-5.3-14-5.9-20.46-5.43-4.1.29-7.38,2-11.31,2.85-3.67.8-5.85-.1-8.16-2.74A13.1,13.1,0,0,1,6,188.74l-4.41,3.38c6.5,4.23,15.84,2.32,21.93-1.74,7-4.68,9.16-11.23,9.66-19.27.54-8.63.52-17.36,3.2-25.67a43.06,43.06,0,0,1,5.72-11.62c2.67-3.79,6.24-6,9.39-9.25.94-1,.33-3-1.19-2.89Z"/><path class="cls-1" d="M247.34,203.53c7.85-3.63,15.33,4.25,23.24,3.69,6.18-.43,11.27-6.44,16-9.84a114.83,114.83,0,0,1,19.54-11.94c1.73-.79,1.29-3.75-.53-4.11-3.37-.66-5.82.93-8.66,2.66-3.95,2.41-7.81,4.93-11.58,7.61-3.26,2.31-6.41,4.61-9.43,7.21-2.71,2.34-4.83,4.89-8.55,3.89-3.93-1.07-23.39-11.69-23.33-1.08a2.25,2.25,0,0,0,3.34,1.91Z"/><path class="cls-1" d="M51.1,157.69c-.47,5.73.9,11.7,1.13,17.46.22,5.54.22,11.12,1.66,16.51.77,2.86,2,5.49,3,8.29,1.15,3.49.8,6.31.64,9.87-.26,5.6,1.26,11.13,2.07,16.63,1.66,11.2,5.42,21.64,8.8,32.42a108.2,108.2,0,0,0,5.51,14.55c1.82,3.8,3.59,8.45,7.75,10.07,1.61.63,2.56-1.37,2-2.61-2-4.42-5-8.4-7.1-12.84a102.12,102.12,0,0,1-6-15.86c-1.47-5.31-1.67-10.52-2.55-15.9-.86-5.22-2.3-10.33-3.41-15.5-2.25-10.46-3.11-21-5.47-31.44A90.24,90.24,0,0,1,57.3,171.6c-.13-5.14.27-10.3-2-15-1-2.19-4-.87-4.19,1.14Z"/><path class="cls-1" d="M82,282.75c4.16,2.07,9.43,2.45,14,3,4.73.54,11-1.09,12.79-5.92.75-2-1.14-3.5-2.84-3.72-2.53-.32-4.87-1.37-7.44-1.61l2.35,2.35c.45-3.63,1.44-7.61,1.1-11.25-.19-2.12-3.43-3.65-4.51-1.23-1.74,3.88-.36,7.78-1.21,11.86a2.4,2.4,0,0,0,1.65,2.89,20.48,20.48,0,0,1,6.58,2.47l-1.06-4c-2.13,2.92-6.09,3.61-9.46,4.33s-7.73,0-11-1.19c-1.19-.44-2,1.49-.87,2.06Z"/><path class="cls-1" d="M90.59,262.7c5.82,5,17.31,4.92,24.61,5.06,10.21.19,20.59-.12,30.77-.9,4.53-.34,9.1-.63,13.62-1.15,5.58-.65,10.83.37,16.36-.09,4.58-.38,9.15-1.21,13.75-1.32,3.77-.09,7.51.48,11.14-.81s2.08-6.89-1.57-5.7c-3.8,1.24-7.64.38-11.53.22a67.49,67.49,0,0,0-12.68,1.06c-4.85.73-9.27,2.17-14.22,2.13s-9.9.42-14.87.49c-9.34.12-18.71.13-28,.12A107.93,107.93,0,0,1,103,260.62c-3.83-.55-7.85-1.86-11.65-.84a1.76,1.76,0,0,0-.77,2.92Z"/><path class="cls-1" d="M197.23,254.32c-.83,6.78,2.88,13.31,2.19,20l2-2.59c-3.87,1-10,1.15-10.81,6.14-.86,5.42,5.72,6.25,9.6,6.55a121.76,121.76,0,0,0,16.32,0c7.94-.51,10.45-6,13.27-12.66,6.92-16.4,10.38-35.49,12-53.15a45.82,45.82,0,0,1,.82-7.28c.57-2.25,1.42-4.41,1.91-6.68,1.33-6.16,2.09-12.92.8-19.13-.83-4-2.77-7.09-5.25-10.25a67.31,67.31,0,0,1-8.77-13.94c-2.71-6-.86-10.27,1.26-16.14,1.25-3.48-4.29-5-5.53-1.53.38-1.05-.32.77-.47,1.15a38,38,0,0,0-2.6,8c-.73,5.15,1.78,10.15,4.41,14.39,3.7,5.94,9,11.81,10.81,18.68,1.53,5.8.58,11.85-.9,17.54-.68,2.61-1.86,5.2-2.37,7.83-.67,3.46-.51,7.26-.92,10.79-.56,4.73-1.35,9.41-2.2,14.09q-2.11,11.78-5.17,23.32a79,79,0,0,1-3,9.25c-1.29,3.24-2.84,8.48-6.62,9.43-4.67,1.17-10.42-.93-15.19-1.2-.46,0-7.21-.86-7.32-.71-.42.57,1.93,1.69,2.12,1.71a9.55,9.55,0,0,0,1.93-.48c1.08-.23,2.19-.34,3.27-.6a2.77,2.77,0,0,0,2-2.59c.84-7-1.14-13.85-2.51-20.72-.62-3.09-4.73-1.95-5.05.68Z"/><path class="cls-1" d="M129.73,229.6c1.35.41,2.74-.09,4.13,0,1.77.09,2.75.72,4.48-.09a2.56,2.56,0,0,0,.91-3.48c-1.26-1.85-3.71-1.92-5.75-1.81s-4.47.49-5.3,2.72a2.21,2.21,0,0,0,1.53,2.68Z"/><path class="cls-4" d="M52.17,125.06c-6.24,3.33-13.3,24.11-10,31.59,10-2.08,19.54-7.9,29.93-10.39,11.22-2.08,24.11-4.16,35.74-5.4a10,10,0,0,0,0-5c-10-.83-20.36.41-30.34-1.25-8.73-1.25-19.53-6.23-26.6-10"/><path class="cls-4" d="M129.06,134.21v7.06c9.15,0,17.46,4.57,26.19,7.48,8.31,2.5,16.62,1.25,25.35.84,15.8-.42,29.93-6.66,45.31-7.49,8.73-.41,12.88,3.33,18.29,9.56h0c.83-7.48,1.25-14.13-.42-21.61-1.24-5.82-.41-7.07-6.23-7.07-4.16.42-9.56,3.74-13.72,4.58-17.87,5-39.07,5.81-57.77,6.23-8.32.42-32.84-5.82-38.66,1.66"/><path class="cls-4" d="M132,146.26a69.43,69.43,0,0,1,13.72,22.45c2.08-7.9,5-7.9-1.25-14.55-2.91-3.33-6.65-8.73-11.64-9.56"/><path class="cls-1" d="M129.32,134.52c5.79,3.51,13.54,1.95,20,2.35,8.44.52,17-.55,25.46-.74S191.66,135,200,134c4.47-.53,8.66-2.6,13-3.06a54.22,54.22,0,0,0,5.66-.56c7.55-1.58,16.05-3,22.52-7.49,2.38-1.65,4.85-4.1,4.15-7.28-.89-4.09-5.27-4.89-8.46-2.86a2.22,2.22,0,0,0,.52,4c2.06.59,1.07.64,1.7-.34a2.86,2.86,0,0,1-.5.42c-1.14.69-2.2,1.48-3.38,2.13-2.85,1.56-5.86,2.67-8.77,4.09a59.59,59.59,0,0,1-7.71,3.26c-.76.25-1.51.53-2.27.77a26.62,26.62,0,0,1-10,1.13c-6.33-.19-11.86,1.33-18,2.8-6.45,1.54-13.47,1.58-20.08,1.89-6.34.3-12.87-.36-19.18-.92-6-.53-12.22-.31-18.12-1.84a2.44,2.44,0,0,0-1.87,4.43Z"/><path class="cls-1" d="M127.84,141c1.55,2,4.31,2.8,6.66,3.48,3.64,1,7.26,2,10.87,3.2,8.37,2.75,16.6,5.75,25.43,6.66,8.2.85,15.71-.75,23.38-3.56,3.6-1.32,7.19-2.73,10.91-3.69,3.43-.88,6.77-.47,10.14-1.11,1.9-.36,1.88-2.92.5-3.84-4.66-3.12-12.86.1-17.56,1.76-7.36,2.6-14.34,5.69-22.32,5.73-8.8.05-17.58-2.43-25.91-5-3.54-1.11-7.06-2.33-10.65-3.25-3.22-.82-6.5-1.32-9.44-2.94-1.76-1-3.11,1.18-2,2.6Z"/><path class="cls-1" d="M241.06,116.6c1.26,3.83,1.91,8.18,6,9.91,5.4,2.26,11.71-2,16.72,1.14,5.17,3.21,7.78,9.7,10.26,14.95,2.37,5,4.33,10.32,6.91,15.22,5.59,10.55,16.32,16.66,28,12.62,7.69-2.66,15.84-3.47,23.8-1.35,7.26,1.93,11.91,6.33,16.46,12.08,2.59,3.28,7.56-1.46,4.68-4.68-7-7.78-18.5-10.8-28.16-6.84-13.65,5.58-26.42,16.16-41.95,10.19a67.71,67.71,0,0,1-20.73-12.31c-5-4.49-9.13-9.74-13.74-14.57-8.32-8.71-20.63-19.72-33-12-2.51,1.56-.32,5,2.27,3.89,13.8-6.12,26,11.16,34.15,20,8.41,9.16,19,16.87,30.94,20.74s24-.49,34.23-6.35c5.37-3.06,9.95-6.91,16.4-7.25,6.26-.33,12.12,1.41,14.09,7.74l6-2.55c-3.44-4.46-7.18-9-12.22-11.71S330.4,162.32,324.7,163c-7.15.81-13.86,4-20.92,5-8,1.12-14.69-5.5-18.25-12.09-5.07-9.39-5.71-20.4-13.32-28.47-3.38-3.58-7.63-6.28-12.7-6.15-3.08.08-6.54,1.62-9.58.79s-3.28-4.12-4.2-6.76c-1-2.92-5.66-1.69-4.67,1.29Z"/><path class="cls-1" d="M145.56,167.19c-1.52-2.88-.62-5.87-1.36-8.84a22.17,22.17,0,0,0-3.77-7.26c-2.52-3.54-5.73-9.49-9.94-11a1.73,1.73,0,0,0-2.17,1.66c-.09,4.74,4.93,10.06,7.16,14.16a68.37,68.37,0,0,0,8.9,12.17c.58.66,1.55-.18,1.18-.91Z"/><path class="cls-4" d="M110.29,131.33c-1.79,1.92-1.54,10.16.26,12.64,2.56,3.29,8.2,1.37,12,1.09,5.64-.27,7.44-.27,7.69-6.59.26-3.3,1-6.31-1.79-8.23-2-1.38-15.91-.56-17.7,1.09"/><path class="cls-1" d="M109.14,129.36c-5.29,3.41-3.74,16,2.22,17.86,4.09,1.29,8.13-.14,12.25-.23,2.69-.05,6.42.11,7.65-2.88.55-1.34.26-3.1.3-4.53.07-2.31.61-4.79.51-7.09a6.11,6.11,0,0,0-4.87-6.08,24.23,24.23,0,0,0-10.75,0c-2.25.48-6.51,1.43-7.56,3.77-.61,1.35.06,3.54,1.91,3.34,3.65-.39,7.26-.2,10.93-.33,1.7-.05,4-.51,5.68-.14,2.34.52,2.39,5.81,1.08,7.88-1,1.62-3.18,1.85-4.88,2.07-2.56.33-5.45,1.06-8,.88-5-.34-4-8.41-3.1-12a2.3,2.3,0,0,0-3.34-2.58Z"/><g class="cls-6"><path class="cls-5" d="M62.14,167.57c0,21.61,4.16,33.56,7.48,54.34.84,5.82,2.5,18.29,6.65,23.28,8.32,10,12.47,5,11.64-5-1.66-11.64-8.31-24.94-10-39.07-2.5-19.12-8.32-34.09,5-48.22-6.66,0-21.68,1.76-20.79,14.66"/></g><path d="M192.58,36.36l.39.09-.43-.25a1.48,1.48,0,0,0,1.22.39,1.08,1.08,0,0,0,0-2.16,1.52,1.52,0,0,0-1.22.4l.43-.25-.39.09a.88.88,0,0,0,0,1.69Z"/><path d="M203.83,38.28a1.91,1.91,0,0,0-.2-.9,1,1,0,0,0-1.68,0,1.91,1.91,0,0,0-.2.9c-.08,1.34,2.16,1.34,2.08,0Z"/><path d="M203.31,39.74c.34.48.83,1.17,1.52,1s.62-.9.48-1.39a.31.31,0,0,0-.6,0,2.17,2.17,0,0,0-.12.36.36.36,0,0,1,0,.09c-.08.11,0,.12.33,0,0,0-.3-.51-.32-.56-.38-1-1.78-.26-1.25.53Z"/><path d="M208.47,34.54a1.7,1.7,0,0,0,.64-1.16.88.88,0,0,0-.86-.85,1.71,1.71,0,0,0-1.16.63c-1,.83.55,2.34,1.38,1.38Z"/><path d="M211.66,43.17l-.26-.1-.34-.34c-.06-.34-.09-.39-.1-.16l.19-.46a3.52,3.52,0,0,1-.35.31.43.43,0,0,0,.09.67,1.48,1.48,0,0,0,1.65-.13,1.05,1.05,0,0,0-.61-1.76,1,1,0,1,0-.27,2Z"/><path d="M207.78,49.37a3.62,3.62,0,0,0-.64-1.76,4.91,4.91,0,0,0-.62-.76,1.34,1.34,0,0,0-1-.34.65.65,0,0,0-.64.64,1.85,1.85,0,0,0,.06.66c.08.2.21.39.29.59s.15.4.22.6l.06.24c.09.31,0-.12,0,.13a1.13,1.13,0,0,0,1.11,1.11,1.11,1.11,0,0,0,1.11-1.11Z"/><path d="M198.91,42.51a4.79,4.79,0,0,0,2.46-.49.49.49,0,0,0,0-.82,4.79,4.79,0,0,0-2.46-.49c-1.15-.06-1.16,1.86,0,1.8Z"/><path d="M217.52,42.4a1.43,1.43,0,0,0-.27-1.32.87.87,0,0,0-1.2,0,1.4,1.4,0,0,0-.27,1.32.91.91,0,0,0,1.74,0Z"/><path d="M216.65,56.53a1.07,1.07,0,0,0,0-2.13,1.07,1.07,0,0,0,0,2.13Z"/><path d="M213.31,58.24a.63.63,0,0,1-.14-.24.47.47,0,0,0-.8,0,.55.55,0,0,1-.15.24.77.77,0,1,0,1.09,0Z"/><path d="M210,55.11a.75.75,0,0,0,0-1.5.75.75,0,0,0,0,1.5Z"/><path d="M218,51.77a1,1,0,0,1,.71.15.39.39,0,0,0,.53-.53,2.48,2.48,0,0,0-1.06-1,.76.76,0,1,0-.18,1.4Z"/><path d="M221.08,64.18a1,1,0,0,0,0-1.91,1,1,0,0,0,0,1.91Z"/><path d="M216.92,66.12a2,2,0,0,0-.94-.07.55.55,0,0,0-.39.39,2,2,0,0,0,.08.93,1,1,0,1,0,1.25-1.25Z"/><path d="M210.81,65.26a1.59,1.59,0,0,0,.8-.49c.1-.1.23-.42.35-.48a.6.6,0,0,0-.14-1.08,1.43,1.43,0,0,0-.82,0,1.65,1.65,0,0,0-.36.16c-.27.18.22,0-.09,0-1.33-.13-1.17,2.26.26,1.88Z"/><path d="M217.82,75.48l.29-.27a.5.5,0,0,0,0-.7l-.29-.27a.87.87,0,1,0,0,1.24Z"/><path d="M221.64,76.67a.15.15,0,0,0,0-.3.15.15,0,0,0,0,.3Z"/><path d="M222.74,76.64a5.45,5.45,0,0,0,1.83-.35c.56-.18,1-.4,1.18-1s-.86-1.53-1.43-.83a3.75,3.75,0,0,1-.49.6,2.26,2.26,0,0,1-1.09.27.67.67,0,0,0,0,1.34Z"/><path d="M227.29,72.26c-.12-.28-.21-.54-.3-.82a.38.38,0,0,0-.73,0c-.09.28-.18.54-.3.82a.77.77,0,1,0,1.33,0Z"/><path d="M226.61,71.54c0-1.15-1.05-3.21-2.51-2.29a1.09,1.09,0,0,0-.49,1.2,1,1,0,0,0,.46.68l-.35-.46a1.25,1.25,0,0,0,.36.64.47.47,0,0,0,.65,0,3.31,3.31,0,0,0,.39-.45l-.66.37c.08,0,.36,0,.21,0s.64,0,0,0c0,0-.52-.11-.32,0l-.11-.08h0c0-.08,0,0,0,.07s.08.2,0,0l.06.21c.07.3,0-.18,0,.13,0,1.4,2.24,1.41,2.19,0Z"/><path d="M224.63,86.25c-.07,0,.31.29.13,0a.41.41,0,0,0-.7,0c-.19.25.24-.07.13,0a.84.84,0,0,0-.44,1.31.83.83,0,0,0,1.31,0,.84.84,0,0,0-.43-1.31Z"/><path d="M215.81,81.44c.1-.14-.08.08,0,0a.65.65,0,0,0,0-.91c-.11-.1.05.1,0,0a1,1,0,1,0,0,1Z"/><path d="M222.19,81.8a.84.84,0,0,0,0-1.68.84.84,0,0,0,0,1.68Z"/><path d="M216.09,91.83a.9.9,0,0,0,0-1.8.9.9,0,0,0,0,1.8Z"/><path d="M222.19,99.77a1.08,1.08,0,0,0,0-2.15,1.08,1.08,0,0,0,0,2.15Z"/><path d="M228,100.62c.53-.17,1.07-.34,1.59-.56a.31.31,0,0,0,0-.52c-.52-.22-1.06-.38-1.59-.56a.85.85,0,1,0,0,1.64Z"/><path d="M227.2,100.33l1.44,1.44a4.2,4.2,0,0,0,1.55,1.24.62.62,0,0,0,.75-.75,4.2,4.2,0,0,0-1.24-1.55l-1.44-1.44a.75.75,0,0,0-1.06,1.06Z"/><path d="M223.85,115.8a1,1,0,0,0,0-2.07,1,1,0,0,0,0,2.07Z"/><path d="M216.09,108.88a.77.77,0,0,0,0-1.53.77.77,0,0,0,0,1.53Z"/><path d="M227.36,111.53c.4,0,1.29,0,1.28-.64s-.87-.59-1.28-.65a.66.66,0,1,0,0,1.29Z"/><path d="M230.5,114.59a.94.94,0,0,0,0-1.87.94.94,0,0,0,0,1.87Z"/><path d="M216.09,122.66a3.66,3.66,0,0,0,1-.08,8.57,8.57,0,0,0,.85-.3.36.36,0,0,0,0-.62,8.57,8.57,0,0,0-.85-.3,3.69,3.69,0,0,0-1-.08.69.69,0,0,0,0,1.38Z"/><path d="M226.62,122.65a.68.68,0,0,0,0-1.36.68.68,0,0,0,0,1.36Z"/><path d="M231.61,121.16a.86.86,0,0,0,0-1.71.86.86,0,0,0,0,1.71Z"/><path d="M227.73,159.79a.69.69,0,0,0,0-1.38.69.69,0,0,0,0,1.38Z"/><path d="M228.84,164.87a.79.79,0,0,0,0-1.57.79.79,0,0,0,0,1.57Z"/><path d="M223.85,152.76a6,6,0,0,1,.94.16,1.57,1.57,0,0,0,.93-.12.41.41,0,0,0,0-.7c-.57-.38-.92-.9-1.64-1-1.27-.25-1.46,1.75-.23,1.7Z"/><path d="M233.61,161a3,3,0,0,1,.53.17.48.48,0,0,0,.65-.65,1.93,1.93,0,0,1-.17-.53.82.82,0,1,0-1,1Z"/><path d="M237.08,167.71c-.07,0-.06-.09,0,0a.55.55,0,0,0-.94,0c.05-.07.05,0,0,0a.95.95,0,1,0,1,0Z"/><path d="M224.41,170.58a5.67,5.67,0,0,1,1.15-.43c.14-.07.16-.07.05,0a1.55,1.55,0,0,0,.37,0c.22,0,.43,0,.64,0a.46.46,0,0,0,.39-.68,2.76,2.76,0,0,0-1.45-1.11,3.06,3.06,0,0,0-2.26.39c-1.27.58-.16,2.55,1.11,1.9Z"/><path d="M235.71,176a1.19,1.19,0,0,0,.53-.2.68.68,0,0,0,0-1.15,1.21,1.21,0,0,0-.53-.21.8.8,0,1,0,0,1.56Z"/><path d="M238.26,180.7a1.1,1.1,0,0,0,0-2.19,1.1,1.1,0,0,0,0,2.19Z"/><path d="M239.37,190.07a1,1,0,0,0,0-2.08,1,1,0,0,0,0,2.08Z"/><path d="M238.26,197.91a1.12,1.12,0,0,0,0-2.24,1.12,1.12,0,0,0,0,2.24Z"/><path d="M238.8,197.7c.9-.45,2.24-.59,2.8-1.49a.87.87,0,0,0-.52-1.28,3.49,3.49,0,0,0-1.71.3,13.59,13.59,0,0,0-1.64.64c-1.23.57-.16,2.45,1.07,1.83Z"/><path d="M221.89,196.05c.42-.1,1.32-.3,1.32-.93s-.89-.81-1.32-.92a1,1,0,0,0-1.21.92,1,1,0,0,0,1.21.93Z"/><path d="M228.49,196.34a2.41,2.41,0,0,1-.38-.77.4.4,0,0,0-.76,0,2.39,2.39,0,0,1-.37.77.88.88,0,1,0,1.51,0Z"/><path d="M220.6,190.41a4.3,4.3,0,0,0,.7.29.74.74,0,0,0,.9-.9,4.3,4.3,0,0,0-.29-.7,1,1,0,1,0-1.31,1.31Z"/><path d="M223.3,204.11a.67.67,0,0,0,0-1.34.67.67,0,0,0,0,1.34Z"/><path d="M225.7,214.4c.15-.25-.59-.17-.56.06a.46.46,0,0,0,.11.22.31.31,0,0,0,.53,0A1,1,0,0,0,226,214a1,1,0,0,0-.17-.31c-.09-.14,0,0-.08-.1a.85.85,0,1,0,0,.86Z"/><path d="M228.53,221c.51-.17,1-.34,1.51-.54a.36.36,0,0,0,0-.69c-.49-.21-1-.37-1.51-.55a.92.92,0,1,0,0,1.78Z"/><path d="M229.39,221.48c.73,0,1.33.44,2.05.52a.84.84,0,0,0,.81-.62.85.85,0,0,0,0-.23.86.86,0,0,0-.62-.81l-.41-.16-.48-.19a4.31,4.31,0,0,0-1.38-.24.87.87,0,0,0,0,1.73Z"/><path d="M229.39,234.71a.8.8,0,0,0,0-1.59.8.8,0,0,0,0,1.59Z"/><path d="M226.62,241.05a1,1,0,0,0,0-2.07,1,1,0,0,0,0,2.07Z"/><path d="M224.23,234.73c.06-.17,0,.13-.2.29a.65.65,0,0,0,0-1.09c.46.34.24.44.2.29a.9.9,0,0,0-.34-.51,1,1,0,0,0-1.43.27,1,1,0,1,0,1.77.75Z"/><path d="M223.22,235.76a4.19,4.19,0,0,0,.89,1.66.36.36,0,0,0,.6,0c.34-.69-.21-1.16-.2-1.84,0-.92-1.46-.8-1.29.18Z"/><path d="M223.3,256.67a1.14,1.14,0,0,0,0-2.28,1.14,1.14,0,0,0,0,2.28Z"/><path d="M215,260.21a.8.8,0,0,0,0-1.59.8.8,0,0,0,0,1.59Z"/><path d="M213.63,257.11a1.64,1.64,0,0,0,.55.53c.12.06.34.08.39.22.14.36.74.46.83,0a1.3,1.3,0,0,0,0-.62c-.07-.23-.06-.36-.16-.13a.93.93,0,1,0-1.6,0Z"/><path d="M218.55,265.84c-.12-.37-.33-.83-.79-.83s-.68.47-.79.83c-.4,1.32,2,1.33,1.58,0Z"/><path d="M216.89,266.06a1.87,1.87,0,0,1-.33,1.1c-.25.34-.67.48-.89.87a.45.45,0,0,0,0,.5,1.4,1.4,0,0,0,2.15-.12,3.51,3.51,0,0,0,.8-2.35.87.87,0,0,0-1.73,0Z"/><path d="M209.77,269.08c0,.08-.1.11,0,.05a.42.42,0,0,0,0-.59c-.09-.08,0,0,0,0a1.12,1.12,0,0,0-.42-.54.9.9,0,0,0-1.29.43c-.49,1.16,1.41,1.8,1.71.6Z"/><path d="M213.88,275.92a1,1,0,0,0,0-2,1,1,0,0,0,0,2Z"/><path d="M220,271.34a.29.29,0,0,0,0-.58.29.29,0,0,0,0,.58Z"/><polygon class="cls-1" points="106.15 76.24 66.87 57.01 68.87 53.48 112.56 65.12 106.15 76.24"/><path class="cls-5" d="M185.78,60.8c4.3,12.44.21,24.8-12.38,27.82-11.1,2.85-17.71-9.13-21-18.61"/><path class="cls-1" d="M183.86,60.8c.6,4.69,1.95,9.21.89,14a15.29,15.29,0,0,1-9.94,11.08c-11.69,4.39-16.7-7.41-20-16.49-1.09-3-5.93-1.73-4.85,1.33,3.78,10.73,12.91,23.8,26,19.52,12-3.89,17.31-19.46,11.43-30.37-.85-1.58-3.83-1-3.58,1Z"/><path class="cls-1" d="M179.33,61.15c1.52,4.4,2.51,10.42-3.54,14-5.72,3.42-13.35.27-14.73-4.75-1.49-6.43,12.48-8.08,18.59-9.32"/><polygon class="cls-1" points="149.09 75.56 194.25 54.28 192.03 50.22 141.96 62.76 149.09 75.56"/><path class="cls-1" d="M105.51,115c8.27-4,21.8-3.78,30.6-1.39,7.19,2,13.23,6.44,19.11,10.83.92.68,7.05-3,7.35-2.76-9.19-6.86-21.09-10.46-32.87-10.83-9.34-.29-16.64-.44-25.14,3.67-1.56.75.36.76,1,.48Z"/><g class="cls-6"><path class="cls-5" d="M137.47,234c8.53,1.28,16.46-4.19,23.35-9.38a27.21,27.21,0,0,1,1.62,10.76,5.17,5.17,0,0,1-.51,2.31,5.38,5.38,0,0,1-2,1.75c-8.37,5.13-19.09,7.29-28.15,3.49-3.23-1.36-8.8-6-6.66-10.34C127.51,227.89,133.22,233.4,137.47,234Z"/></g><path class="cls-3" d="M155,193.31c1.58,4.55,2.54,9.64.71,14.09a15,15,0,0,1-8.91,8,26.54,26.54,0,0,1-12.18,1c-2.55-.31-5.21-.91-7.08-2.67-3.29-3.1-2.79-8.73-.15-12.39s6.82-5.81,10.85-7.84c3.41-1.71,7.4-4.66,11.12-5.5C152.87,187.18,154,190.4,155,193.31Z"/><path class="cls-3" d="M154.6,173.52l16.74-15.22a20.64,20.64,0,0,0-5.68-1.35,4.62,4.62,0,0,0-2.31.24,5.6,5.6,0,0,0-2.24,2.7c-2.67,5-6.54,9.11-10,13.52-.62.79-4.74,5.11-2.57,5.68C149.62,179.38,153.61,174.41,154.6,173.52Z"/><polygon class="cls-1" points="145.94 179.12 163.9 150.57 168.82 152.05 146.92 181.58 145.94 179.12"/><polygon class="cls-1" points="122.05 177.69 95.07 142.48 89.86 145.45 121.52 181.22 122.05 177.69"/><path class="cls-4" d="M108.24,144c-2.82,2.74-6.93,5.49-9.49,8.5-2.82,3.57-4.62,8.78-6.92,12.91a23.89,23.89,0,0,0,7.94,3.84c.77-8,4.11-20,10.78-25"/><path class="cls-1" d="M107.84,142.51c-9.51,3.65-13.94,13.17-17.94,21.74a2.27,2.27,0,0,0,.8,3.05,31.3,31.3,0,0,0,8.62,3.57,1.74,1.74,0,0,0,2.17-1.65c.42-4.72,2.38-9.24,4.29-13.52,1.77-4,4.39-6.78,6.66-10.36,1-1.54-.67-3.88-2.48-3.22-9.94,3.67-10.79,18.4-11.9,27.1l2.17-1.66A23.23,23.23,0,0,1,93,163.45l.8,3.05c2.3-3.76,3.63-8.13,6.21-11.73,2.69-3.76,7.59-5.85,9.58-10,.51-1.06-.36-2.74-1.7-2.22Z"/><circle class="cls-7" cx="133.56" cy="195.3" r="19.35"/><path class="cls-1" d="M133.56,216.08a20.78,20.78,0,1,1,20.78-20.78A20.8,20.8,0,0,1,133.56,216.08Zm0-38.7a17.92,17.92,0,1,0,17.92,17.92A17.94,17.94,0,0,0,133.56,177.38Z"/><polygon class="cls-1" points="145.59 183.29 120.23 183.29 130.21 191.68 116.43 202.46 140.19 202.66 145.59 183.29"/><polygon class="cls-1" points="146.58 179.91 136.44 215.14 138.47 215.14 147.5 179.73 146.58 179.91"/><path class="cls-8" d="M174.54,228.79c5.33,1.23,11.23,2,16.05-.58a23.71,23.71,0,0,0,4.21-3.13c4.24-3.69,30.95-35,35.63-43.89a7.74,7.74,0,0,0,1.15-3.85c-.14-2.87-3-4.74-5.52-6.13-5.43-3-14.42-6.65-22.82-5.4-2.57.39-48.7,23.77-58.47,29.51-7.14,4.19-7.61,10.32-7.66,13.6C137,217.94,162.82,226.09,174.54,228.79Z"/><path class="cls-1" d="M174.57,228.65a40.39,40.39,0,0,0,7.4,1.07,16.55,16.55,0,0,0,7.23-1.27A19.67,19.67,0,0,0,195,224c1.67-1.8,3.29-3.73,4.88-5.65l19.06-23.22c3.17-3.86,6.37-7.73,9.22-11.79.37-.5.7-1,1-1.53a18,18,0,0,0,.93-1.57,5.61,5.61,0,0,0,.82-3.23,5,5,0,0,0-1.6-2.9A14.76,14.76,0,0,0,226.4,172a45.31,45.31,0,0,0-13.86-5.28,27.47,27.47,0,0,0-7.34-.42c-.61,0-1.21.16-1.82.23-.26.08-.5.19-.75.28s-.55.25-.83.37c-1.12.5-2.24,1.07-3.36,1.62-8.93,4.54-17.78,9.26-26.68,13.88l-13.3,7c-4.38,2.38-8.89,4.69-13.12,7.16a16.26,16.26,0,0,0-2.74,2,13.49,13.49,0,0,0-2.12,2.59,14.16,14.16,0,0,0-1.91,6.46c0,.3,0,.6,0,.9s0,.46,0,.7l.15.68c.1.23.17.46.28.69a9.46,9.46,0,0,0,2,2.65,31.11,31.11,0,0,0,5.78,4.32,86.29,86.29,0,0,0,13.49,6.38A117.9,117.9,0,0,0,174.57,228.65Zm-.07.28c-2.45-.54-4.88-1.18-7.3-1.84s-4.84-1.37-7.25-2.1a95.82,95.82,0,0,1-14.16-5.43,30.13,30.13,0,0,1-6.56-4.22,12.22,12.22,0,0,1-2.68-3.23c-.17-.33-.31-.69-.46-1s-.21-.76-.29-1.15-.09-.84-.09-1.17,0-.65,0-1a16.18,16.18,0,0,1,2.15-7.86,16.75,16.75,0,0,1,2.58-3.27,19.33,19.33,0,0,1,3.24-2.5c8.84-5.09,17.8-9.45,26.8-14s18-8.82,27.25-12.88c1.16-.5,2.3-1,3.49-1.48.31-.12.57-.24.91-.36s.7-.22,1-.3c.64,0,1.28-.14,1.93-.15a32.38,32.38,0,0,1,7.62.69,52.9,52.9,0,0,1,14.14,5.44,17.79,17.79,0,0,1,3.19,2.2,6.28,6.28,0,0,1,2.06,3.51,6.83,6.83,0,0,1-.73,4c-.26.6-.58,1.15-.89,1.72s-.62,1.13-1,1.66c-2.69,4.31-5.66,8.37-8.68,12.41a267.3,267.3,0,0,1-19.6,22.93c-1.74,1.82-3.48,3.62-5.37,5.36a32.63,32.63,0,0,1-3,2.38,14.89,14.89,0,0,1-3.4,1.84,18.09,18.09,0,0,1-7.53,1A42.63,42.63,0,0,1,174.5,228.93Z"/><path class="cls-1" d="M141.31,198s-1.93,3,4.49,5.81,25.52,12.87,34.14,12.71,15.53-5.44,28.18-19,18.64-20.22,18.95-22.86-1-3.4-1-3.4,6.54,4.28,5.45,7.13-8.7,14-13.82,20.32-21,24.58-21,24.58-6.82,6.78-11.92,6.63-18.28-2.2-27.94-6.44S138,215,137.4,210.67s.74-9,2.32-10.84Z"/><path class="cls-1" d="M155.6,196.6a39.64,39.64,0,0,0,5.66,2.51,4.82,4.82,0,0,0,4.4-.79c.88-.92.48-1.94-.95-2.44l-1.26-.47-.62-.25c.55.23-.13-.06-.19-.09q-1.2-.54-2.34-1.17a5,5,0,0,0-4.5.14c-1,.65-1.54,1.83-.2,2.56Z"/><path class="cls-1" d="M168.06,203.42q2.74,1.14,5.54,2.21a4.19,4.19,0,0,0,4.25-1.09c.75-.87,1.1-2.33-.47-2.94q-2.79-1.07-5.54-2.21a4.17,4.17,0,0,0-4.25,1.1c-.78.9-1.07,2.29.47,2.93Z"/><path class="cls-1" d="M182.59,208.62c2,.89,4.12,1.7,6.25,2.4a3.13,3.13,0,0,0,2.06-.24,3.28,3.28,0,0,0,1.56-1.49,2,2,0,0,0-1.36-2.95c-.91-.3-1.82-.63-2.72-1l-.59-.23-.31-.12-1.38-.59a3.27,3.27,0,0,0-3.85.89,2.42,2.42,0,0,0-.63,1.83,1.87,1.87,0,0,0,1,1.47Z"/><path class="cls-1" d="M165.77,190.22l3.62,1.51a5,5,0,0,0,2.25.45,2.7,2.7,0,0,0,1.72-.63c.82-.9.09-2.11-1.1-2.6l-3.62-1.51a5,5,0,0,0-2.25-.45,2.72,2.72,0,0,0-1.72.63c-.82.9-.08,2.11,1.1,2.6Z"/><path class="cls-1" d="M177.37,196.11l4,1.9a3.76,3.76,0,0,0,4.14-.94,1.83,1.83,0,0,0-.73-3l-4-1.9a3.76,3.76,0,0,0-4.14.93,1.85,1.85,0,0,0,.73,3Z"/><path class="cls-1" d="M190.11,202.17a25.48,25.48,0,0,1,2.44.75l.53.19c.68.25-.46-.2.21.09.41.17.82.35,1.22.54a3.71,3.71,0,0,0,4.12-.75c.81-.86,1.24-2.49-.14-3.14a31.92,31.92,0,0,0-5.61-2,3.75,3.75,0,0,0-3.95,1.52,1.84,1.84,0,0,0,1.18,2.85Z"/><path class="cls-1" d="M177.65,184.8a32.58,32.58,0,0,0,4.73,2.09,4,4,0,0,0,3.67-.66c.74-.76.4-1.61-.79-2l-1-.39-.52-.21c.46.19-.11-.05-.16-.07-.67-.3-1.32-.63-2-1a4.16,4.16,0,0,0-3.75.12c-.86.54-1.29,1.53-.17,2.14Z"/><path class="cls-1" d="M188.06,190.49c1.52.64,3.06,1.25,4.62,1.85a3.51,3.51,0,0,0,3.55-.91c.63-.73.92-2-.4-2.46-1.55-.59-3.09-1.21-4.62-1.84a3.5,3.5,0,0,0-3.55.91c-.65.75-.89,1.91.4,2.45Z"/><path class="cls-1" d="M200.19,194.83c1.69.74,3.44,1.42,5.21,2a2.77,2.77,0,0,0,3-1.45,1.7,1.7,0,0,0-1.13-2.46c-.76-.26-1.52-.52-2.27-.81l-.49-.19c.36.14-.25-.1-.26-.11l-1.16-.49a2.73,2.73,0,0,0-3.21.74,2.06,2.06,0,0,0-.52,1.54,1.53,1.53,0,0,0,.81,1.22Z"/><path class="cls-1" d="M186.33,180l3,1.2a4.18,4.18,0,0,0,1.86.36,2.35,2.35,0,0,0,1.43-.49c.67-.71.06-1.67-.92-2.06l-3-1.21a4.52,4.52,0,0,0-1.87-.36,2.36,2.36,0,0,0-1.42.49c-.67.72-.07,1.68.92,2.07Z"/><path class="cls-1" d="M196,184.68l3.28,1.52a3.2,3.2,0,0,0,3.43-.73,1.43,1.43,0,0,0-.61-2.37l-3.29-1.51a3.17,3.17,0,0,0-3.42.73,1.42,1.42,0,0,0,.61,2.36Z"/><path class="cls-1" d="M206.52,189.52c.68.17,1.36.36,2,.59l.44.16c.56.2-.38-.16.18.07l1,.43a3.19,3.19,0,0,0,3.41-.58c.67-.68,1-2-.12-2.49a28.2,28.2,0,0,0-4.65-1.64,3.18,3.18,0,0,0-3.27,1.19,1.46,1.46,0,0,0,1,2.27Z"/><path class="cls-1" d="M194.32,174.7a27.15,27.15,0,0,0,3.76,1.67,3.2,3.2,0,0,0,2.93-.53c.59-.61.32-1.29-.63-1.62l-.84-.32-.41-.17c.37.16-.09,0-.13,0-.53-.25-1.05-.51-1.55-.78a3.33,3.33,0,0,0-3,.09c-.68.43-1,1.22-.13,1.71Z"/><path class="cls-1" d="M202.61,179.24c1.22.51,2.44,1,3.68,1.48a2.8,2.8,0,0,0,2.83-.73c.5-.58.73-1.56-.32-2-1.23-.47-2.46-1-3.68-1.47a2.77,2.77,0,0,0-2.83.73c-.51.6-.71,1.53.32,2Z"/><path class="cls-1" d="M212.27,182.71c1.35.59,2.74,1.13,4.15,1.6a2.05,2.05,0,0,0,1.37-.16,2.14,2.14,0,0,0,1-1,1.37,1.37,0,0,0-.9-2c-.61-.2-1.21-.42-1.81-.65l-.39-.15-.21-.08-.92-.39a2.17,2.17,0,0,0-2.56.59,1.6,1.6,0,0,0-.41,1.22,1.24,1.24,0,0,0,.64,1Z"/><path class="cls-1" d="M201.23,170.87l2.39,1a3.56,3.56,0,0,0,1.49.28,1.84,1.84,0,0,0,1.13-.39c.54-.57,0-1.33-.73-1.65l-2.39-1a3.7,3.7,0,0,0-1.49-.29,1.84,1.84,0,0,0-1.13.4c-.54.57-.05,1.33.73,1.65Z"/><path class="cls-1" d="M208.9,174.61l2.61,1.21a2.54,2.54,0,0,0,2.73-.59,1.14,1.14,0,0,0-.49-1.89l-2.61-1.21a2.56,2.56,0,0,0-2.73.58,1.15,1.15,0,0,0,.49,1.9Z"/><path class="cls-1" d="M217.32,178.46c.54.14,1.08.3,1.61.48l.34.12c.46.17-.3-.12.15.06l.8.35a2.52,2.52,0,0,0,2.71-.47c.54-.54.82-1.57-.1-2a21.37,21.37,0,0,0-3.7-1.31,2.5,2.5,0,0,0-2.6.95,1.15,1.15,0,0,0,.79,1.8Z"/><ellipse class="cls-7" cx="156.84" cy="215.95" rx="4.94" ry="6.47" transform="translate(-103.22 275.97) rotate(-67.01)"/><path class="cls-1" d="M158.91,211.06c3.53,1.5,5.46,4.9,4.32,7.6s-4.94,3.67-8.47,2.17-5.46-4.9-4.32-7.6S155.38,209.56,158.91,211.06Zm-3.86,9.1c3,1.29,6.32.45,7.3-1.87s-.68-5.27-3.72-6.56-6.32-.45-7.31,1.88S152,218.87,155.05,220.16Z"/><polygon class="cls-1" points="151.94 217.2 159.74 220.51 157.51 217.24 162.82 216.5 155.53 213.35 151.94 217.2"/><polygon class="cls-1" points="151.3 217.86 157.93 210.9 157.31 210.64 150.99 217.79 151.3 217.86"/><path class="cls-2" d="M236.05,179.38c-2.93,3-5.79,6.56-9.16,7.65-6,1.87-15.82-8.88-21.59-9.29-1.77-5.6-13.26.87,6.36,20.82,4.69,4.78,13,9.6,20,9.88,10.51.42,10.79-11.61,7.76-19.41Z"/><path class="cls-3" d="M236.05,179.38c-2.93,3-8.13,2.7-9.16,7.65-3,14.53-28.76-8.74-17.15,10.72,3.43,5.75,14.87,10.41,21.87,10.69,10.51.42,10.79-11.61,7.76-19.41Z"/><path class="cls-1" d="M242.52,202.24c-4.26.28-7.43,3.94-11.74,3.79a13.83,13.83,0,0,1-4.93-1.46c-2.23-1-4-2.53-6.19-3.57s-4.39-1.58-6.53-3a17.6,17.6,0,0,1-3.7-3c-1.21-1.38-.65-.37-1.22-1.63-.49-1.08-.43-2.13-1.08-3.24a14,14,0,0,0-2.47-2.68c-3.45-3.41-3.67-7.8.31-11.15l-1.91.5c2.61.64,5.62,1.59,7.6,3.52,1.57,1.52,2.37,2.79,4.28,4.15,3.44,2.45,7.64,4.81,11.95,4.92a2.39,2.39,0,0,0,1.67-4c-3.15-2.92-8.15-6.49-12.26-7.84-1.86-.6-3.53-.67-5.39-1.52-2.26-1-4.48-2.07-6.81-3a2,2,0,0,0-1.9.5c-4.3,3.54-5.82,7.74-4.17,13.13.79,2.59,1.51,5.87,3.52,7.78,1.26,1.19,2.39,1.14,3.81,1.78a22.8,22.8,0,0,1,4.6,3.36c2.43,2,4.63,4.92,7.3,6.48a51.2,51.2,0,0,0,7.75,3.42c6.18,2.32,15,1,19.09-4.49a1.84,1.84,0,0,0-1.58-2.76Z"/><path d="M232.44,186.85a.67.67,0,0,0,0-1.34.67.67,0,0,0,0,1.34Z"/><path d="M234.84,197.14c.16-.25-.58-.17-.56.07a.7.7,0,0,0,.11.21.31.31,0,0,0,.54,0,1,1,0,0,0,.16-.73.94.94,0,0,0-.17-.31c-.09-.13,0,0-.08-.1a.85.85,0,1,0,0,.86Z"/><path d="M228.84,203.73c.72,0,1.33.44,2,.52a.86.86,0,0,0,.82-.62,1.66,1.66,0,0,0,0-.22.88.88,0,0,0-.62-.82l-.41-.16-.48-.19a4.31,4.31,0,0,0-1.38-.24.87.87,0,0,0,0,1.73Z"/><path d="M238.26,201a.8.8,0,0,0,0-1.59.8.8,0,0,0,0,1.59Z"/><path d="M236.6,194a1,1,0,0,0,0-2.07,1,1,0,0,0,0,2.07Z"/><path d="M226.82,193.26a4.46,4.46,0,0,0,.89,1.66.35.35,0,0,0,.6,0c.35-.69-.21-1.16-.2-1.83,0-.93-1.46-.81-1.29.17Z"/><path class="cls-4" d="M72.6,132a8.17,8.17,0,0,1,8.05-1.69,8.64,8.64,0,0,1,3.91,2.88,1.41,1.41,0,0,0,1.1.42,6.81,6.81,0,0,1,6,1.73c.84.75,1.69.31,2.48.3a8,8,0,0,1,7.26,3.56,5.28,5.28,0,0,0,2.25,2,6.5,6.5,0,0,1,3.11,3.1,1.72,1.72,0,0,0,.86.8,6.85,6.85,0,0,1,4.34,5.09,4,4,0,0,0,.86,1.46,5.94,5.94,0,0,1,.81,6.64,13.48,13.48,0,0,0-.34,2.61q-1.36,6-2.81,12c-.58,2.41-1.16,4.82-1.82,7.21-1.13,4.12-2.35,8.21-3.49,12.32q-2.85,10.31-5.65,20.63c-.77,2.8-1.53,5.59-2.28,8.39a38.17,38.17,0,0,0-.89,3.77,2.74,2.74,0,0,1-2.22,2.29A73.71,73.71,0,0,1,80,230.65a43.62,43.62,0,0,1-11.3-.05,60.46,60.46,0,0,1-18.2-5.55,8.68,8.68,0,0,0-.84-.34,2,2,0,0,1-1.49-1.8c-.6-4.23-1.32-8.44-1.93-12.67-.75-5.09-1.4-10.2-2.17-15.29-.71-4.7-1.56-9.39-2.28-14.09-.61-4-1.15-8-1.67-12-.46-3.63-.76-7.28-1.3-10.9a18,18,0,0,0-1.38-4.65,6.6,6.6,0,0,1,4.17-9.16,1.34,1.34,0,0,0,.8-.76c1.07-4,5-6.49,8.82-6.67a1.23,1.23,0,0,0,.91-.55c1.46-3.1,4.75-3.76,7.39-2.94a1.88,1.88,0,0,0,2-.37A9.5,9.5,0,0,1,70,131,18.51,18.51,0,0,1,72.6,132Zm-1.17,1.09A5.7,5.7,0,0,0,66.21,132c-3.13.71-5.55,2.28-6.6,5.58l.35-3a3,3,0,0,0-.6-.32,5.33,5.33,0,0,0-6.78,3.12,1.33,1.33,0,0,1-.9.71,8.48,8.48,0,0,0-8.6,6.06,2,2,0,0,1-1.59,1.5,4.82,4.82,0,0,0-3.11,6.56l2.8-1.67.17.28A13.25,13.25,0,0,0,40.28,152a6.63,6.63,0,0,0-.84,1.49c-.71,1.9.33,3.34,2.36,3.41a5.62,5.62,0,0,1,1.87.33,100.48,100.48,0,0,0,30.8,7.17,121.31,121.31,0,0,0,15-.17A88.38,88.38,0,0,0,110,160.47c3-.92,4.22-5.67,2.11-7.88l-1.09,2.61-.38-.1c.21-2.31.35-4.6-1-6.66a8.8,8.8,0,0,0-5.46-3.94l1.35-.18-2.81-2.45-.33,2.32-.3,0c-1.12-2.46-1.91-5.14-4.5-6.56a9.32,9.32,0,0,0-8-.41l1.09-.8a6.7,6.7,0,0,0-5.26-1.84l0,1.53-.25.12c-1.91-2.54-4-4.94-7.42-5a9,9,0,0,0-7.74,4.22Zm-8.25,31.32c0,1.14.08,2.13.09,3.11,0,5.48,0,10.95,0,16.42,0,8.84-.22,17.68-.16,26.52,0,5.66.39,11.31.63,17,0,.31.27.83.5.88,1.92.43,3.86.77,5.86,1.14C71,208.11,71.94,187,72.84,165.8Zm16.94,64.81c1.44-.22,2.9-.47,4.36-.65a1.29,1.29,0,0,0,1.26-1.31c.73-4.95,1.53-9.9,2.29-14.85,1.09-7.11,2.14-14.22,3.24-21.33,1-6.5,2.08-13,3.12-19.48.35-2.14.69-4.28,1-6.52l-8,.81C85.24,187.1,83.21,208.19,80.12,229.25ZM45.69,159.64c.13,1.49.25,2.89.39,4.29,1.06,10.41,2.05,20.83,3.19,31.24,1.06,9.56,2.26,19.11,3.42,28.67a1.35,1.35,0,0,0,.49.94c.82.41,1.71.7,2.68,1.09,0-.47,0-.73,0-1-.18-4.58-.37-9.16-.53-13.75q-.29-7.91-.51-15.82-.3-10.31-.57-20.63c-.1-3.86-.13-7.73-.25-11.59a1.31,1.31,0,0,0-.62-1C50.9,161.25,48.38,160.48,45.69,159.64ZM91.25,227a24.33,24.33,0,0,0,2.54-.8,1.64,1.64,0,0,0,.8-.92c2.76-10,5.45-20,8.22-30.06s5.57-19.87,8.37-29.79c.39-1.4.87-2.78,1.31-4.19-2.33.66-4.54,1.26-6.72,1.94a1.41,1.41,0,0,0-.82.87c-1.67,8.43-3.17,16.9-5,25.31-2.18,10.12-4.6,20.19-6.93,30.28C92.49,222,91.89,224.36,91.25,227Z"/><path class="cls-1" d="M72.6,132a7.84,7.84,0,0,1,4.08-2.16,9.62,9.62,0,0,1,4.72.34,7,7,0,0,1,2.08,1.28c.31.26.6.53.88.81a7.74,7.74,0,0,0,.74.69,1.46,1.46,0,0,0,.36.11c.06,0,.09,0,.1,0l.31-.05a6.36,6.36,0,0,1,1.24-.13,7.14,7.14,0,0,1,2.5.38,8.58,8.58,0,0,1,2.23,1.2l.24.2.2.15a.81.81,0,0,0,.28.14,2,2,0,0,0,.78,0,5,5,0,0,1,1.29-.12,10.53,10.53,0,0,1,1.25.05,9.21,9.21,0,0,1,2.49.59,8.74,8.74,0,0,1,4,3.22,4.16,4.16,0,0,0,1.36,1.22,2.74,2.74,0,0,0,.42.21l.58.29a7.6,7.6,0,0,1,2.94,2.82l.28.5.13.13,0,0h0c.21.08.42.15.63.25a7.76,7.76,0,0,1,3.9,3.82,9.38,9.38,0,0,1,.51,1.23c.07.2.13.42.2.61a1.16,1.16,0,0,0,.11.24,5.15,5.15,0,0,0,.52.69,7.86,7.86,0,0,1,.82,1.14,7.2,7.2,0,0,1,1,2.74,7.61,7.61,0,0,1-.18,2.9,11.54,11.54,0,0,1-.45,1.33c-.07.15,0,.11,0,.14l0,.08c0,.08,0,.2,0,.35s0,.7,0,1.22a3.5,3.5,0,0,1,0,.41l-.07.36-.12.56-1,4.54c-.67,3-1.26,6-2,9.07-1.35,6.12-3.09,12-4.68,18l-4.73,17.9L100,220.39c-.38,1.47-.83,3-1.12,4.37l-.1.5-.11.62a5,5,0,0,1-.89,2,6,6,0,0,1-3.15,2,71.07,71.07,0,0,1-18.8,3.55,42.2,42.2,0,0,1-4.9-.12c-.82-.07-1.64-.15-2.46-.27s-1.58-.25-2.37-.39a64.31,64.31,0,0,1-9.31-2.41q-2.28-.77-4.49-1.73c-.74-.32-1.47-.65-2.2-1l-.54-.26a2.46,2.46,0,0,0-.42-.17l-.47-.19a5.62,5.62,0,0,1-1-.5,4.3,4.3,0,0,1-1.6-2,4.85,4.85,0,0,1-.28-1l-.09-.61-.35-2.29-.66-4.58c-.91-6.1-1.66-12.23-2.48-18.35s-1.86-12.19-2.64-18.34L38.5,170c-.35-3.07-.65-6.13-1-9.2l-.22-2.3a13.06,13.06,0,0,0-.38-2.09,17.08,17.08,0,0,0-.65-2l-.21-.52-.23-.65a8,8,0,0,1-.31-1.37,8.21,8.21,0,0,1,1.08-5.35,7.6,7.6,0,0,1,4.29-3.32l.33-.1.07,0,0,0h0s.08,0,.09-.05l0,.08c0,.09,0,0,0-.07l0-.16c.07-.21.14-.42.22-.62A10,10,0,0,1,42.94,140a11.17,11.17,0,0,1,6.43-3.85,10,10,0,0,1,1.24-.17l.6,0s.09,0,.16,0l.07-.05s0,0,0,0l0-.05.32-.57a7.4,7.4,0,0,1,.83-1,6,6,0,0,1,2.19-1.41,7.29,7.29,0,0,1,4.94,0,1.56,1.56,0,0,0,1.71-.41,11,11,0,0,1,2.09-1.17A9.73,9.73,0,0,1,72.6,132Zm0,0a9.36,9.36,0,0,0-8.74-.19A10.84,10.84,0,0,0,62,133.06a3.53,3.53,0,0,1-1.11.7,2.44,2.44,0,0,1-1.44,0,6,6,0,0,0-4.12.25,4.73,4.73,0,0,0-1.61,1.18,6.66,6.66,0,0,0-.57.82l-.23.45-.1.2a1.8,1.8,0,0,1-.18.25,2.07,2.07,0,0,1-.38.31,1.93,1.93,0,0,1-.91.35l-.56.06a9,9,0,0,0-1,.21,9.13,9.13,0,0,0-5.09,3.41,7.71,7.71,0,0,0-.92,1.78c0,.15-.09.32-.14.47l-.1.33a2.07,2.07,0,0,1-.31.58,2.63,2.63,0,0,1-.78.7,2,2,0,0,1-.29.14l-.24.09-.22.08a5.1,5.1,0,0,0-2.77,2.35,5.39,5.39,0,0,0-.56,3.58,5.58,5.58,0,0,0,.24.89l.18.42.24.55a19.32,19.32,0,0,1,.87,2.34,17.83,17.83,0,0,1,.55,2.44l.32,2.3,1.28,9.2,1.42,9.12c1,6.08,2.18,12.16,3.1,18.26s1.81,12.23,2.83,18.32l.73,4.58.35,2.29.09.53c0,.06,0,.08,0,.07a.63.63,0,0,0-.17-.23l.06,0,.6.24c.52.2.82.35,1.16.51.66.32,1.34.62,2,.91,1.36.58,2.75,1.1,4.15,1.57A60.54,60.54,0,0,0,67,227.86c.73.12,1.47.24,2.2.34s1.43.18,2.15.23a39.38,39.38,0,0,0,4.35.08,66,66,0,0,0,17.52-3.21A3.78,3.78,0,0,0,94,225s0,0,0-.09l.09-.52.13-.63c.38-1.69.8-3.08,1.21-4.59.82-3,1.62-6,2.48-8.94L103,192.4l2.61-8.89c.44-1.48.9-2.95,1.32-4.43l1.19-4.43c.82-2.94,1.51-6,2.28-9l1.11-4.49.14-.56,0-.2,0-.17c0-.25,0-.61.08-1.09a7.19,7.19,0,0,1,.11-.8c0-.15.08-.31.14-.47a3.29,3.29,0,0,1,.17-.4,6.45,6.45,0,0,0,.33-.85,4.17,4.17,0,0,0-.31-3.3,6.33,6.33,0,0,0-.5-.77,6.92,6.92,0,0,1-.8-1.2,4.22,4.22,0,0,1-.33-.83l-.13-.5a8.33,8.33,0,0,0-.34-.92,5,5,0,0,0-2.45-2.64c-.14-.08-.29-.13-.44-.2l-.23-.1a1.48,1.48,0,0,1-.25-.14,2.75,2.75,0,0,1-.41-.31,3,3,0,0,1-.61-.76l-.27-.52a5.29,5.29,0,0,0-1.16-1.48,4.58,4.58,0,0,0-.75-.56l-.44-.25c-.2-.1-.4-.22-.6-.34a6.43,6.43,0,0,1-2-2,6.72,6.72,0,0,0-3-2.67,7.8,7.8,0,0,0-2-.58c-.35,0-.71-.09-1.07-.11a4.34,4.34,0,0,0-1,0,3.33,3.33,0,0,1-1.51-.08,2.34,2.34,0,0,1-.74-.42l-.24-.21-.2-.18a6.62,6.62,0,0,0-1.76-1.11,5.87,5.87,0,0,0-2-.45,6.42,6.42,0,0,0-1.07,0l-.26,0a1.27,1.27,0,0,1-.48,0,2.16,2.16,0,0,1-.72-.28,2.34,2.34,0,0,1-.53-.49l-.38-.43c-.25-.28-.51-.56-.78-.81a6.32,6.32,0,0,0-1.76-1.26,9.21,9.21,0,0,0-4.39-.67A7.7,7.7,0,0,0,72.6,132Z"/><path class="cls-1" d="M71.43,133.12A5.3,5.3,0,0,0,68.08,132a9.58,9.58,0,0,0-3.43.86,7.75,7.75,0,0,0-2.79,2,7.19,7.19,0,0,0-1.54,3,.72.72,0,0,1-.9.52.74.74,0,0,1-.55-.77v-.06l.22-3,.45.86a1.76,1.76,0,0,0-.74-.3,4.08,4.08,0,0,0-.83-.13,4.22,4.22,0,0,0-1.59.21A4.38,4.38,0,0,0,54,137.19c-.06.13-.14.24-.19.37l-.22.46a2.77,2.77,0,0,1-.57.73,2.26,2.26,0,0,1-.89.52,1.33,1.33,0,0,1-.43.07h-.37l-.45,0c-.29,0-.58.07-.86.13a7.33,7.33,0,0,0-3,1.37,7,7,0,0,0-2,2.58c-.1.26-.22.51-.3.78l-.13.41a5.06,5.06,0,0,1-.28.72A3.45,3.45,0,0,1,43,146.76a5.12,5.12,0,0,1-.71.35l-.31.11-.18.08a3.07,3.07,0,0,0-1.75,4.23l-2.65-.89,2.76-1.73a1.87,1.87,0,0,1,2.56.56l0,.07.18.28a1.86,1.86,0,0,1-.17,2.26l0,0c-.38.41-.67.71-.83.92s-.18.27-.28.42a4.57,4.57,0,0,0-.23.42,1.7,1.7,0,0,0-.19.64c0,.16,0,.21,0,.2s0,0,.06,0a1.33,1.33,0,0,0,.47.08l.33,0,.43,0a6.35,6.35,0,0,1,.92.13,6,6,0,0,1,1,.29l.63.24a103.14,103.14,0,0,0,10.18,3.28,100.79,100.79,0,0,0,21,3.29c3.52.14,7.09,0,10.7-.18,1.82-.08,3.59-.17,5.34-.33s3.51-.38,5.26-.66a88.85,88.85,0,0,0,10.39-2.3l1.28-.37.17-.06.12,0c.07-.05.15-.07.23-.13a2.67,2.67,0,0,0,.86-1.15,3.39,3.39,0,0,0,.3-1.61,2,2,0,0,0-.4-1.14l3.66-.68-1.12,2.6,0,.06a2.15,2.15,0,0,1-2.56,1.21l-.39-.11h-.06a2.14,2.14,0,0,1-1.54-2.3,18,18,0,0,0,.14-3,5.1,5.1,0,0,0-.7-2.33,6.86,6.86,0,0,0-4.18-3.15l-.08,0a1.94,1.94,0,0,1,.33-3.79l1.35-.15-1,3.35-2.75-2.52,3-1.12-.39,2.31v.08a1.73,1.73,0,0,1-1.61,1.44l-.29,0h-.08a1.73,1.73,0,0,1-1.68-1c-.58-1.33-1-2.58-1.58-3.6A5.63,5.63,0,0,0,96.88,139a7.33,7.33,0,0,0-3.21-1,9.66,9.66,0,0,0-3.52.5l-.08,0a1.32,1.32,0,0,1-1.14-2.34l1.12-.76-.12,2a6,6,0,0,0-2-1.31,5.77,5.77,0,0,0-2.37-.4l1-1.1,0,1.54v.08a1,1,0,0,1-.58.86l-.26.11-.07,0a1,1,0,0,1-1.17-.33,17.29,17.29,0,0,0-2.81-3.37,6.33,6.33,0,0,0-3.76-1.61,8.09,8.09,0,0,0-4.23.82,10.45,10.45,0,0,0-3.43,2.87h0a.15.15,0,0,1-.25-.17Zm0,0-1.14,2.43-.26-.16a11,11,0,0,1,3.28-3.4A9.06,9.06,0,0,1,78,130.64a7.56,7.56,0,0,1,4.75,1.55,19.15,19.15,0,0,1,3.4,3.46l-1.24-.3.25-.14-.57.94-.09-1.53a1,1,0,0,1,.92-1.09h.08a8.08,8.08,0,0,1,3.29.31,7.89,7.89,0,0,1,2.91,1.67,1.26,1.26,0,0,1,.11,1.78l-.16.15-.06,0-1.07.83L89.26,136a12.45,12.45,0,0,1,4.5-.9,10.24,10.24,0,0,1,4.61,1.14,8.85,8.85,0,0,1,3.55,3.41c.8,1.35,1.32,2.67,1.88,3.82l-1.76-1,.29,0-1.62,1.52.29-2.33a1.81,1.81,0,0,1,2-1.58,1.91,1.91,0,0,1,.94.41l.06.06,2.86,2.39a1.91,1.91,0,0,1,.24,2.68,1.85,1.85,0,0,1-1.17.65l-.09,0-1.35.2.25-3.81a11.46,11.46,0,0,1,3.79,1.65,10.6,10.6,0,0,1,2.94,3,9.38,9.38,0,0,1,1.41,4.17,21,21,0,0,1-.05,3.83L111.24,153l.39.1-2.58,1.27,1-2.63a2.21,2.21,0,0,1,2.87-1.22,2.18,2.18,0,0,1,.77.52l0,0a6.4,6.4,0,0,1,1.68,3.8,8.08,8.08,0,0,1-.54,3.73,7.34,7.34,0,0,1-2.36,3.18,9,9,0,0,1-.93.58l-.52.22-.47.17-1.34.41a94.27,94.27,0,0,1-10.91,2.52q-2.78.47-5.58.75c-1.87.19-3.74.29-5.56.39a108.86,108.86,0,0,1-11.15.11,95.23,95.23,0,0,1-22-3.76,106.48,106.48,0,0,1-10.52-3.69l-.65-.26a1.58,1.58,0,0,0-.31-.11l-.43-.07-.25,0-.36,0a5.18,5.18,0,0,1-2.15-.6,4.12,4.12,0,0,1-1.81-1.92,4.44,4.44,0,0,1-.32-2.47,5.85,5.85,0,0,1,.67-1.94,8.55,8.55,0,0,1,.46-.74,7.81,7.81,0,0,1,.52-.7c.41-.5.79-.82,1-1.08l-.22,2.31-.16-.28,2.6.63-2.83,1.61-.06,0a1.82,1.82,0,0,1-2.48-.68,2.56,2.56,0,0,1-.11-.24,6.8,6.8,0,0,1,.12-5.29,6.56,6.56,0,0,1,3.92-3.45l.3-.1.16,0,.19-.07c.07,0,0,0,.09-.06a.73.73,0,0,0,.1-.2l.21-.53c.13-.36.32-.7.48-1A9.66,9.66,0,0,1,49.61,137a10.43,10.43,0,0,1,1.11-.11,5.23,5.23,0,0,1,.56,0h.38a.61.61,0,0,0-.19,0c-.21.12.08-.07,0,0s0,0,0,0l0-.06.07-.13.14-.26c.09-.17.21-.32.31-.49a6.66,6.66,0,0,1,3.78-2.76,6.23,6.23,0,0,1,3.48.13,3.76,3.76,0,0,1,.61.23,3.57,3.57,0,0,1,.46.29l.1.06a.83.83,0,0,1,.35.8l-.47,3-1.44-.31A8.55,8.55,0,0,1,61,134a8.91,8.91,0,0,1,3.34-1.92,9.78,9.78,0,0,1,3.72-.51A5.53,5.53,0,0,1,71.43,133.12Z"/><path class="cls-1" d="M63.18,164.44c.06.78.16,1.53.24,2.23s.15,1.4.21,2.14l.31,4.38c.21,2.92.35,5.84.52,8.76q.42,8.78.62,17.51c.07,2.92.17,5.83.2,8.75l0,2.19.13,2.17.23,4.36.43,8.7,0,1.09,0,.54s0,.15,0,0a1.3,1.3,0,0,0,0-.18l0-.15a1.34,1.34,0,0,0-.1-.17,1.88,1.88,0,0,0-.72-.6A2.85,2.85,0,0,0,65,226l-.17,0h.08l.13,0,.27.05,1.06.2,4.24.81-2.9,2.31q.66-15.93,1.71-31.83c.4-5.3.76-10.6,1.22-15.89l.7-7.95.8-7.94.64.76C69.75,165.89,66.61,165.12,63.18,164.44Zm0,0,9.76.63a.68.68,0,0,1,.63.66v.1l.12,8,0,8c0,5.32-.09,10.63-.15,15.94q-.28,15.95-1,31.86v0A2.44,2.44,0,0,1,70,231.94a2.35,2.35,0,0,1-.37-.05L65.31,231l-1.09-.21-.27-.06-.13,0-.07,0h0l-.21-.06a4,4,0,0,1-.39-.15,2.84,2.84,0,0,1-1.11-1,4.33,4.33,0,0,1-.36-.64,4.76,4.76,0,0,1-.23-.67,3.58,3.58,0,0,1-.08-.46,1.57,1.57,0,0,1,0-.29l0-.55,0-1.1-.22-8.8-.1-4.4,0-2.19.07-2.2c.07-2.92.2-5.84.3-8.76.19-5.84.51-11.69.8-17.52.17-2.92.3-5.84.5-8.76l.3-4.37c.06-.73.11-1.47.15-2.24S63.16,165.11,63.18,164.44Z"/><path class="cls-1" d="M80.12,229.25c1.53-.31,2.93-.68,4.24-1,.71-.14.84-.41.88-1.12l.18-2.17c.24-2.88.54-5.76.81-8.64.61-5.76,1.2-11.51,1.92-17.25s1.42-11.48,2.26-17.2,1.7-11.44,2.59-17.14l2.68,2.83-8,.78,2.19-2.17c-.58,5.28-1.18,10.56-1.83,15.83l-1,7.92-1.12,7.9c-.36,2.64-.77,5.27-1.21,7.9s-.84,5.26-1.34,7.87C82.4,218.84,81.37,224.06,80.12,229.25Zm0,0c.29-5.32.67-10.63,1-15.93.16-2.66.39-5.3.57-7.95s.37-5.3.59-8l.6-7.94.65-7.94c.45-5.29.92-10.58,1.44-15.88a2.44,2.44,0,0,1,2.17-2.17h0l8-.82a2.44,2.44,0,0,1,2.69,2.19,2.28,2.28,0,0,1,0,.64q-1.38,8.56-2.88,17.09l-1.53,8.53-1.56,8.53c-1,5.68-2.16,11.36-3.32,17-.61,2.83-1.19,5.66-1.83,8.49l-.48,2.12a2.37,2.37,0,0,1-.55,1.22,1.83,1.83,0,0,1-1.27.47C82.9,229.08,81.44,229.14,80.12,229.25Z"/><path class="cls-1" d="M45.69,159.64c1,5.65,2,11.28,2.87,16.94s1.7,11.3,2.44,17,1.68,11.3,2.43,17L54.54,219l.54,4.25,0,.26c0,.09,0,0,0,0v-.05a.85.85,0,0,0-.12-.25,1.78,1.78,0,0,0-.49-.47l-.14-.09-.06,0h0l0,0,.09,0,.39.17c.54.23,1.22.46,1.94.74l-3.35,2.27v-1l0-1.12-.08-2.26-.16-4.5-.24-9c-.09-6-.21-12-.15-18.05l.06-9,.18-9,.32-8.81a.92.92,0,0,0-.11-.29s0-.07,0-.06-.07,0-.13-.06l-1-.4-2-.83Q48,160.49,45.69,159.64Zm0,0c1.34.34,2.76.67,4.25,1l2.29.53,1.16.28a1.38,1.38,0,0,1,.79.45,2.12,2.12,0,0,1,.43.68,1.53,1.53,0,0,1,.12.48l0,.29.06.56L54.9,165l.17,2.25.36,4.5.64,9,.56,9c.37,6,.67,12,1,18l.4,9,.19,4.5.1,2.25,0,1.13v1.23a2.45,2.45,0,0,1-2.44,2.45,2.5,2.5,0,0,1-.91-.18c-.61-.24-1.28-.48-2.05-.81l-.59-.26-.16-.08-.07,0L52,226.9l-.2-.12a3,3,0,0,1-.85-.85,3.81,3.81,0,0,1-.55-1.23,2.82,2.82,0,0,1-.07-.31l0-.17v-.12l0-.27-.48-4.26L48.85,211c-.59-5.69-1.16-11.38-1.59-17.08s-.74-11.42-1-17.14S45.65,165.39,45.69,159.64Z"/><path class="cls-1" d="M91.25,227c.68-.28,1.39-.51,2-.81a1.63,1.63,0,0,0,.79-.56,1.27,1.27,0,0,0,.19-.39l.1-.53.87-4.32c.57-2.89,1.21-5.75,1.82-8.63,1.28-5.73,2.57-11.47,4-17.17s2.85-11.39,4.36-17.07l2.28-8.5,1.16-4.25,1.33-4.27,3,3.1-4.32,1.24-2.17.62c-.07,0-.29.1,0,0a.93.93,0,0,0,.25-.15.7.7,0,0,0,.22-.25,1.66,1.66,0,0,0,.19-.52l0,.28-.12.55-1.84,8.91-1.91,8.9c-.68,3-1.24,5.93-2.07,8.85L99,200.79l-2.43,8.77-2.54,8.74c-.44,1.51-.87,2.78-1.36,4.2S91.71,225.4,91.25,227Zm0,0c.26-1.36.48-2.81.7-4.34L92.7,218l1.51-9,1.63-8.94,1.72-8.91,3.17-17.88,1.67-8.92.1-.55.06-.28a3,3,0,0,1,.41-1,4,4,0,0,1,1-1.1,3.52,3.52,0,0,1,.74-.44,2.56,2.56,0,0,1,.54-.19l2.2-.65,4.4-1.27a2.45,2.45,0,0,1,3,1.66,2.48,2.48,0,0,1,0,1.43h0l-1.31,4.12-1.21,4.23-2.48,8.44q-2.49,8.44-5.16,16.83c-1.7,5.62-3.51,11.21-5.32,16.79-.95,2.78-1.85,5.58-2.82,8.35l-1.46,4.17-.2.54a1.78,1.78,0,0,1-.37.54,1.9,1.9,0,0,1-.52.37,5.3,5.3,0,0,1-.56.19C92.7,226.73,92,226.83,91.25,227Z"/><path class="cls-5" d="M71.43,133.12l-1.27,2.36a9,9,0,0,1,7.74-4.22c3.46.05,5.51,2.45,7.42,5l.25-.12,0-1.53a6.7,6.7,0,0,1,5.26,1.84l-1.09.8a9.32,9.32,0,0,1,8,.41c2.59,1.42,3.38,4.1,4.5,6.56l.3,0,.33-2.32,2.81,2.45-1.35.18a8.8,8.8,0,0,1,5.46,3.94c1.3,2.06,1.16,4.35,1,6.66l.38.1,1.09-2.61c2.11,2.21.91,7-2.11,7.88a88.38,88.38,0,0,1-20.56,3.77,121.31,121.31,0,0,1-15,.17,100.48,100.48,0,0,1-30.8-7.17,5.62,5.62,0,0,0-1.87-.33c-2-.07-3.07-1.51-2.36-3.41a6.63,6.63,0,0,1,.84-1.49,13.25,13.25,0,0,1,1.07-1.18l-.17-.28-2.8,1.67a4.82,4.82,0,0,1,3.11-6.56,2,2,0,0,0,1.59-1.5,8.48,8.48,0,0,1,8.6-6.06,1.33,1.33,0,0,0,.9-.71,5.33,5.33,0,0,1,6.78-3.12,3,3,0,0,1,.6.32l-.35,3c1-3.3,3.47-4.87,6.6-5.58A5.7,5.7,0,0,1,71.43,133.12Zm10.08,21.49A2.66,2.66,0,0,0,80,157.79c.55,2.16,2.87,3.33,5.32,2.72,4-1,4.49-5.95,2.21-9.11.16.6.27.95.35,1.3a5.62,5.62,0,0,1-1,5.29,3.5,3.5,0,0,1-4.63.8C80.84,157.84,80.6,156.48,81.51,154.61Zm-19.84-4.06c1.84,1.86,1.27,4.08-1.27,4.55a9.6,9.6,0,0,1-4.12-.28,3.24,3.24,0,0,1-2.38-3.19,3.41,3.41,0,0,0,1.47,4.13,6.35,6.35,0,0,0,5.17.73,4.06,4.06,0,0,0,3.19-2.65C64.22,152.42,63.33,150.43,61.67,150.55ZM90.09,144l.13.35a11.77,11.77,0,0,1,1.57-.05,10.26,10.26,0,0,1,2.55.47,2.42,2.42,0,0,1,1.59,2.64,2.17,2.17,0,0,1-2.24,1.76,10.09,10.09,0,0,1-1.81-.1l-.76-.08-.05.28a20.29,20.29,0,0,0,2.75.64,3.07,3.07,0,0,0,3.53-3.15c-.26-2.69-3.89-4.7-6.3-3.46A6.35,6.35,0,0,0,90.09,144ZM69.36,157.35c.09-1.8.56-3.39,2.34-4.24a3.13,3.13,0,0,1,3.61.61c1.74,1.6,1.33,3.46.3,5.4a3.52,3.52,0,0,0,1.81-4.7,4.25,4.25,0,0,0-5.26-2.49A4.43,4.43,0,0,0,69.36,157.35Zm5.13-14c-1.51,1.7-1.65,3.55-.49,5a4,4,0,0,0,5,1.06c1.67-.88,2.69-2.93,2.19-4.44-1.44,2.92-3.26,4.11-5.15,3.37S73.62,146.12,74.49,143.35Zm11.37-.28a3.2,3.2,0,0,0,2.81-2.26,2.42,2.42,0,0,0-1-2.49,3.69,3.69,0,0,0-4.09-.19,2.21,2.21,0,0,0-1.25,2.15A2.42,2.42,0,0,0,84,142.17c-1-1.79-1-2.21-.18-2.78a2.64,2.64,0,0,1,3.43.32C88,140.66,87.73,141.3,85.86,143.07ZM74,139.63c-1.11-.48-2.09-.94-1.7-2.26a2.38,2.38,0,0,1,3.09-1.21,2.1,2.1,0,0,1,1.15,1c.19.37,0,.92,0,1.47.93-1.12.93-2,.06-2.88a3.42,3.42,0,0,0-5.47,1,2.3,2.3,0,0,0,.48,2.74A1.73,1.73,0,0,0,74,139.63Zm-21.42,7.53a10,10,0,0,1-1.85.72,2.21,2.21,0,0,1-2.41-1,1.79,1.79,0,0,1,.28-2.33,5.38,5.38,0,0,1,2.28-1.13,7.87,7.87,0,0,1,2.26.09v-.5c-1-.06-2.09-.17-3.14-.17a3,3,0,0,0-3.06,3.59,3.27,3.27,0,0,0,3,2.62A2.57,2.57,0,0,0,52.57,147.16Zm52.24,2.45a3.93,3.93,0,0,0-1.23-3.29,2.79,2.79,0,0,0-3.92.25,2.75,2.75,0,0,0,.39,3.89,1.83,1.83,0,0,0,2.7-.12,5.64,5.64,0,0,1-1.92-.76,2,2,0,0,1-.61-1.72,2.25,2.25,0,0,1,1.66-1,2.78,2.78,0,0,1,1.76.86A9.46,9.46,0,0,1,104.81,149.61Zm-9.28,7,0,.41a28.57,28.57,0,0,0,3.66.45,2.56,2.56,0,0,0,2.57-2.45,2.4,2.4,0,0,0-1.69-2.75,3.09,3.09,0,0,0-3.53,1.61,8.12,8.12,0,0,0,.91,0,5.55,5.55,0,0,1,1.67-.25,2.22,2.22,0,0,1,1.5.91,1.65,1.65,0,0,1-.44,1.56,5.6,5.6,0,0,1-2.39.83A9.53,9.53,0,0,1,95.53,156.59ZM59.45,144.45c.07-.68.1-1.13.17-1.58a3,3,0,0,1,2.76-2.74,3,3,0,0,1,2,1c.57.67.22,1.52-.4,2.14a1.92,1.92,0,0,1-.55.29c1.15.1,1.76-.16,1.95-1a3.34,3.34,0,0,0-.27-2.21,3,3,0,0,0-3.94-1A4.35,4.35,0,0,0,59.45,144.45Zm-13.3,9.08a1.68,1.68,0,0,0-.22,2.52,2.81,2.81,0,0,0,3.88.53,2.19,2.19,0,0,0,.23-3.3c-.13,1.2-.32,2.44-1.67,2.71a2.22,2.22,0,0,1-1.82-.59C46.18,155,46.26,154.12,46.15,153.53Zm24.79-6.69-1,.58c-.34.18-.68.52-1,.5a10,10,0,0,1-1.85-.38q.27-.84.57-1.68c0-.09.14-.15.22-.25-1.11-.06-1.7.4-1.83,1.39a2,2,0,0,0,1.78,2.24A2.78,2.78,0,0,0,70.94,146.84Zm-3.47,11.22c-.74,1.17-1.24,2.55-2.84,2.18s-1.66-1.55-1.53-3a2.4,2.4,0,0,0,.16,3.24,2.69,2.69,0,0,0,3.55.26A2,2,0,0,0,67.47,158.06Zm37-4.55a8.73,8.73,0,0,1,2.45-.1,2.43,2.43,0,0,1,1.6,1.17c.21.54-.2,1.32-.33,1.95a2.11,2.11,0,0,0,1.17-2.32,2.82,2.82,0,0,0-2.6-2.22A2.09,2.09,0,0,0,104.44,153.51Z"/><path class="cls-2" d="M63.18,164.44l9.66,1.36c-.9,21.15-1.81,42.31-2.72,63.68-2-.37-3.94-.71-5.86-1.14-.23-.05-.48-.57-.5-.88-.24-5.66-.59-11.31-.63-17-.06-8.84.12-17.68.16-26.52,0-5.47,0-10.94,0-16.42C63.26,166.57,63.21,165.58,63.18,164.44Z"/><path class="cls-2" d="M80.12,229.25c3.09-21.06,5.12-42.15,7.32-63.33l8-.81c-.35,2.24-.69,4.38-1,6.52-1,6.49-2.1,13-3.12,19.48-1.1,7.11-2.15,14.22-3.24,21.33-.76,4.95-1.56,9.9-2.29,14.85a1.29,1.29,0,0,1-1.26,1.31C83,228.78,81.56,229,80.12,229.25Z"/><path class="cls-2" d="M45.69,159.64c2.69.84,5.21,1.61,7.7,2.45a1.31,1.31,0,0,1,.62,1c.12,3.86.15,7.73.25,11.59q.26,10.32.57,20.63.22,7.92.51,15.82c.16,4.59.35,9.17.53,13.75,0,.27,0,.53,0,1-1-.39-1.86-.68-2.68-1.09a1.35,1.35,0,0,1-.49-.94c-1.16-9.56-2.36-19.11-3.42-28.67-1.14-10.41-2.13-20.83-3.19-31.24C45.94,162.53,45.82,161.13,45.69,159.64Z"/><path class="cls-2" d="M91.25,227c.64-2.62,1.24-5,1.79-7.36,2.33-10.09,4.75-20.16,6.93-30.28,1.81-8.41,3.31-16.88,5-25.31a1.41,1.41,0,0,1,.82-.87c2.18-.68,4.39-1.28,6.72-1.94-.44,1.41-.92,2.79-1.31,4.19-2.8,9.92-5.62,19.85-8.37,29.79s-5.46,20-8.22,30.06a1.64,1.64,0,0,1-.8.92A24.33,24.33,0,0,1,91.25,227Z"/><path class="cls-1" d="M81.51,154.61c-.91,1.87-.67,3.23.73,4.18a3.5,3.5,0,0,0,4.63-.8,5.62,5.62,0,0,0,1-5.29c-.08-.35-.19-.7-.35-1.3,2.28,3.16,1.83,8.11-2.21,9.11-2.45.61-4.77-.56-5.32-2.72A2.66,2.66,0,0,1,81.51,154.61Z"/><path class="cls-1" d="M61.67,150.55c1.66-.12,2.55,1.87,2.06,3.29a4.06,4.06,0,0,1-3.19,2.65,6.35,6.35,0,0,1-5.17-.73,3.41,3.41,0,0,1-1.47-4.13,3.24,3.24,0,0,0,2.38,3.19,9.6,9.6,0,0,0,4.12.28C62.94,154.63,63.51,152.41,61.67,150.55Z"/><path class="cls-1" d="M90.09,144a6.35,6.35,0,0,1,1-.7c2.41-1.24,6,.77,6.3,3.46a3.07,3.07,0,0,1-3.53,3.15,20.29,20.29,0,0,1-2.75-.64l.05-.28.76.08a10.09,10.09,0,0,0,1.81.1,2.17,2.17,0,0,0,2.24-1.76,2.42,2.42,0,0,0-1.59-2.64,10.26,10.26,0,0,0-2.55-.47,11.77,11.77,0,0,0-1.57.05Z"/><path class="cls-1" d="M69.36,157.35a4.43,4.43,0,0,1,2.8-5.42,4.25,4.25,0,0,1,5.26,2.49,3.52,3.52,0,0,1-1.81,4.7c1-1.94,1.44-3.8-.3-5.4a3.13,3.13,0,0,0-3.61-.61C69.92,154,69.45,155.55,69.36,157.35Z"/><path class="cls-1" d="M74.49,143.35c-.87,2.77-.39,4.27,1.5,5s3.71-.45,5.15-3.37c.5,1.51-.52,3.56-2.19,4.44a4,4,0,0,1-5-1.06C72.84,146.9,73,145.05,74.49,143.35Z"/><path class="cls-1" d="M85.86,143.07c1.87-1.77,2.14-2.41,1.42-3.36a2.64,2.64,0,0,0-3.43-.32c-.81.57-.79,1,.18,2.78a2.42,2.42,0,0,1-1.75-1.89,2.21,2.21,0,0,1,1.25-2.15,3.69,3.69,0,0,1,4.09.19,2.42,2.42,0,0,1,1,2.49A3.2,3.2,0,0,1,85.86,143.07Z"/><path class="cls-1" d="M74,139.63a1.73,1.73,0,0,1-2.43-.16,2.3,2.3,0,0,1-.48-2.74,3.42,3.42,0,0,1,5.47-1c.87.92.87,1.76-.06,2.88,0-.55.23-1.1,0-1.47a2.1,2.1,0,0,0-1.15-1,2.38,2.38,0,0,0-3.09,1.21C71.9,138.69,72.88,139.15,74,139.63Z"/><path class="cls-1" d="M52.57,147.16a2.57,2.57,0,0,1-2.68,1.93,3.27,3.27,0,0,1-3-2.62A3,3,0,0,1,50,142.88c1,0,2.1.11,3.14.17v.5a7.87,7.87,0,0,0-2.26-.09,5.38,5.38,0,0,0-2.28,1.13,1.79,1.79,0,0,0-.28,2.33,2.21,2.21,0,0,0,2.41,1A10,10,0,0,0,52.57,147.16Z"/><path class="cls-1" d="M104.81,149.61a9.46,9.46,0,0,0-1.17-1.92,2.78,2.78,0,0,0-1.76-.86,2.25,2.25,0,0,0-1.66,1,2,2,0,0,0,.61,1.72,5.64,5.64,0,0,0,1.92.76,1.83,1.83,0,0,1-2.7.12,2.75,2.75,0,0,1-.39-3.89,2.79,2.79,0,0,1,3.92-.25A3.93,3.93,0,0,1,104.81,149.61Z"/><path class="cls-1" d="M95.53,156.59a9.53,9.53,0,0,0,2.23.28,5.6,5.6,0,0,0,2.39-.83,1.65,1.65,0,0,0,.44-1.56,2.22,2.22,0,0,0-1.5-.91,5.55,5.55,0,0,0-1.67.25,8.12,8.12,0,0,1-.91,0,3.09,3.09,0,0,1,3.53-1.61,2.4,2.4,0,0,1,1.69,2.75,2.56,2.56,0,0,1-2.57,2.45A28.57,28.57,0,0,1,95.5,157Z"/><path class="cls-1" d="M59.45,144.45a4.35,4.35,0,0,1,1.72-5.15,3,3,0,0,1,3.94,1,3.34,3.34,0,0,1,.27,2.21c-.19.87-.8,1.13-1.95,1a1.92,1.92,0,0,0,.55-.29c.62-.62,1-1.47.4-2.14a3,3,0,0,0-2-1,3,3,0,0,0-2.76,2.74C59.55,143.32,59.52,143.77,59.45,144.45Z"/><path class="cls-1" d="M46.15,153.53c.11.59,0,1.42.4,1.87a2.22,2.22,0,0,0,1.82.59c1.35-.27,1.54-1.51,1.67-2.71a2.19,2.19,0,0,1-.23,3.3,2.81,2.81,0,0,1-3.88-.53A1.68,1.68,0,0,1,46.15,153.53Z"/><path class="cls-1" d="M70.94,146.84a2.78,2.78,0,0,1-3.16,2.4A2,2,0,0,1,66,147c.13-1,.72-1.45,1.83-1.39-.08.1-.19.16-.22.25q-.3.84-.57,1.68a10,10,0,0,0,1.85.38c.33,0,.67-.32,1-.5Z"/><path class="cls-1" d="M67.47,158.06a2,2,0,0,1-.66,2.69,2.69,2.69,0,0,1-3.55-.26,2.4,2.4,0,0,1-.16-3.24c-.13,1.44.07,2.66,1.53,3S66.73,159.23,67.47,158.06Z"/><path class="cls-1" d="M104.44,153.51a2.09,2.09,0,0,1,2.29-1.52,2.82,2.82,0,0,1,2.6,2.22,2.11,2.11,0,0,1-1.17,2.32c.13-.63.54-1.41.33-1.95a2.43,2.43,0,0,0-1.6-1.17A8.73,8.73,0,0,0,104.44,153.51Z"/><path d="M37.46,153.32a6.6,6.6,0,0,1,4.17-9.16,1.34,1.34,0,0,0,.8-.76c1.07-4,5-6.49,8.82-6.67a1.23,1.23,0,0,0,.91-.55c1.46-3.1,4.75-3.76,7.39-2.94a1.88,1.88,0,0,0,2-.37A9.5,9.5,0,0,1,70,131,18.51,18.51,0,0,1,72.6,132a8.17,8.17,0,0,1,8.05-1.69,8.64,8.64,0,0,1,3.91,2.88,1.41,1.41,0,0,0,1.1.42,6.81,6.81,0,0,1,6,1.73c.84.75,1.69.31,2.48.3a8,8,0,0,1,7.26,3.56,5.28,5.28,0,0,0,2.25,2,6.5,6.5,0,0,1,3.11,3.1,1.72,1.72,0,0,0,.86.8,6.85,6.85,0,0,1,4.34,5.09,4,4,0,0,0,.86,1.46,5.94,5.94,0,0,1,.81,6.64,13.48,13.48,0,0,0-.34,2.61l-3.3-.41c3-.92,4.22-5.67,2.11-7.88l-1.09,2.61-.38-.1c.21-2.31.35-4.6-1-6.66a8.8,8.8,0,0,0-5.46-3.94l1.35-.18-2.81-2.45-.33,2.32-.3,0c-1.12-2.46-1.91-5.14-4.5-6.56a9.32,9.32,0,0,0-8-.41l1.09-.8a6.7,6.7,0,0,0-5.26-1.84l0,1.53-.25.12c-1.91-2.54-4-4.94-7.42-5a9,9,0,0,0-7.74,4.22l1.27-2.36A5.7,5.7,0,0,0,66.21,132c-3.13.71-5.55,2.28-6.6,5.58l.35-3a3,3,0,0,0-.6-.32,5.33,5.33,0,0,0-6.78,3.12,1.33,1.33,0,0,1-.9.71,8.48,8.48,0,0,0-8.6,6.06,2,2,0,0,1-1.59,1.5,4.82,4.82,0,0,0-3.11,6.56l2.8-1.67.17.28A13.25,13.25,0,0,0,40.28,152a6.63,6.63,0,0,0-.84,1.49Z"/><path d="M78.38,166.57c-21.67,0-39.78-9.13-40-9.22l.45-.88c.18.09,18.08,9.11,39.51,9.11,22.77,0,33.18-3.78,34.39-6.16l.88.45C112,163.2,99.29,166.57,78.38,166.57Z"/><path class="cls-9" d="M59.53,151.15c-.69.2-2.28.52-2.8-.13l.38.65v.16l-.37.65.13-.16-.65.38.18-.08-1.85-1.41c-.42,3.77,5.72,4.59,7.14,1.5a1.5,1.5,0,0,0-.53-2,1.47,1.47,0,0,0-2,.53c-.27.58-1.76.72-1.68,0a1.47,1.47,0,0,0-1.86-1.41,2.1,2.1,0,0,0-.39,3.8,6.61,6.61,0,0,0,5.09.38,1.47,1.47,0,0,0-.78-2.83Z"/><path class="cls-9" d="M61,141.47c.15-.14-.17.1-.21.12l-.39.26a2.47,2.47,0,0,0-.8.9,2.13,2.13,0,0,0,.31,2.44,1.93,1.93,0,0,0,2.68-.05,2.49,2.49,0,0,0,.44-2.59l-2.15,1.66-.4-1.12a1.52,1.52,0,0,0,1,1.81,1.49,1.49,0,0,0,1.81-1,1.94,1.94,0,0,0-1-2.19,1.47,1.47,0,0,0-2.15,1.65,3.37,3.37,0,0,1,.1.34.58.58,0,0,1,.21-.6c1.35-.12,1.93.19,1.74.91a.67.67,0,0,1-.19.28c-.1.05-.08,0,.07-.06l.27-.16a5.56,5.56,0,0,0,.67-.5A1.46,1.46,0,1,0,61,141.47Z"/><path class="cls-9" d="M70,145.94c-.1,0-.55-.09-.21,0a2.91,2.91,0,0,0,.58.09,2,2,0,0,0,1-.27,1.69,1.69,0,0,0,.79-2,1.52,1.52,0,0,0-1.81-1,1.48,1.48,0,0,0-1,1.8l0,.09v-.78c1.31-.41,1.66-.68,1.06-.81l-.34-.05a1.74,1.74,0,0,0-.85.07,1.47,1.47,0,0,0,.77,2.83Z"/><path class="cls-9" d="M77.64,146.72c1.11-.86,2.49-1.35,2.68-2.94s-1.42-3.23-3-2.39c-1.34.72-1.17,2.62-.73,3.85a1.79,1.79,0,0,0,2.17,1.27,2,2,0,0,0,1.33-2.15,1.5,1.5,0,0,0-1.47-1.46,1.47,1.47,0,0,0-1.46,1.46c0,.2,0,.25,0,.17l.38-.65.08,0,.74-.2-.14,0,.74.2-.12-.06.53.53c0,.21,0,.19,0,0l0-.18a2.73,2.73,0,0,0-.07-.37,3.72,3.72,0,0,0,0-.58c-.89,1-1.48,1.19-1.79.42a.37.37,0,0,1,0-.18c0-.11.15-.15,0-.07a1.39,1.39,0,0,0-.24.2c-.35.23-.72.41-1,.67a1.51,1.51,0,0,0-.53,2,1.48,1.48,0,0,0,2,.53Z"/><path class="cls-9" d="M78.38,145a1.47,1.47,0,0,0,0-2.93,1.47,1.47,0,0,0,0,2.93Z"/><path class="cls-9" d="M71.42,155.77a1.6,1.6,0,0,1,0,.21c0,.1,0,.09,0,0l.25-.24a.56.56,0,0,1,.82.22c.51.37.43.2.44.59l0,.06c.05-.09,0-.07,0,0-.3.1-.56.3-.82,0a.75.75,0,0,1-.07-.86c.09-.14.67-.32.29-.25a1.46,1.46,0,1,0,.78,2.82A2.26,2.26,0,0,0,74.41,155a2.41,2.41,0,1,0-3.48,3.24,2.29,2.29,0,0,0,3.32-1.7,1.47,1.47,0,0,0-2.83-.78Z"/><path class="cls-9" d="M66,155.89l.35,0-1-2.51c-.94,1-1.51,2.59-.37,3.68a2,2,0,0,0,2.26.35,1.87,1.87,0,0,0,1.06-1.76,1.5,1.5,0,0,0-1.47-1.46,1.47,1.47,0,0,0-1.46,1.46l.49-.82,1.31.31c.13.17,0,.39,0,.55s.08-.12,0-.05.17-.19.17-.18a1.48,1.48,0,0,0-1-2.5L66,153a1.46,1.46,0,1,0,0,2.92Z"/><path class="cls-9" d="M91.42,145.17l-.8.41-.32.17-.24.12q-.54.25.87.06l.53.53,0-.09.15,1.13c0,.08-.2.19-.26.25s-.18.06,0,0a.39.39,0,0,1-.35,0,.36.36,0,0,1-.29-.14l0-.06,0-.07a.51.51,0,0,1,0-.3,1.46,1.46,0,0,0,2.82.78,2.5,2.5,0,0,0-1-2.73,2.43,2.43,0,0,0-3,.34,1.79,1.79,0,0,0,.56,3.11c1,.27,2.08-.52,3-1a1.46,1.46,0,1,0-1.47-2.53Z"/><path class="cls-9" d="M84.31,156.35c.36-.15-.15,0,.07,0l.35,0a2.6,2.6,0,0,0,1.11-.33,2.07,2.07,0,0,0,1-1.83,2.13,2.13,0,0,0-3.23-1.71A2.32,2.32,0,0,0,83.2,156a1.83,1.83,0,0,0,2.55.07,1.67,1.67,0,0,0,0-2.37,1.5,1.5,0,0,0-2.07,0,1.47,1.47,0,0,0,0,2.07l.06.06-.38-.65,0,.08v-.78l.09-.18.53-.53-.08,0,.74-.2a1.41,1.41,0,0,1,.74.51.67.67,0,0,1-.2.64.47.47,0,0,1-.49.19c-.37,0-.88-.38-.83-.81s.35-.51.61-.81c0-.05.19,0,0,0a2.86,2.86,0,0,0-.92.15,1.51,1.51,0,0,0-1,1.8,1.49,1.49,0,0,0,1.81,1Z"/><path class="cls-9" d="M92.16,160.38a2.15,2.15,0,0,0,1-1.41,1.5,1.5,0,0,0-1-1.8,2.57,2.57,0,0,0-2.07.14,2,2,0,0,0-1,1.77c.05,1.61,1.87,2,3.16,2a2.24,2.24,0,0,0,1.89-.69,1.83,1.83,0,1,0-3.2-1.58,1.5,1.5,0,0,0,1,1.8,1.47,1.47,0,0,0,1.8-1l-1.22.72-.65-.38a1.25,1.25,0,0,1-.18-1.17l.53-.52q.58-.1.27-.09h-.27l-.33,0-.33-.07c-.29,0-.07-.06,0,.07l.38.65a.94.94,0,0,1-.76,1.14c-.11,0-.07,0,.11.05l-1-1.8c-.07.32,0,.2.33-.34a1.47,1.47,0,1,0,1.48,2.53Z"/><path class="cls-9" d="M97.94,156.52a1.47,1.47,0,0,0,0-2.93,1.47,1.47,0,0,0,0,2.93Z"/><path class="cls-9" d="M102.37,149.63a1.47,1.47,0,0,0,0-2.93,1.47,1.47,0,0,0,0,2.93Z"/><path class="cls-9" d="M104.71,155.51a3.37,3.37,0,0,0-1.42,1.52,1.47,1.47,0,0,0,1.65,2.15c1.73-.42,3.08-2.52,2.1-4.21a2.07,2.07,0,0,0-2.45-1,2,2,0,0,0-1.12,2.78,1.47,1.47,0,0,0,2,.53,1.5,1.5,0,0,0,.53-2l0-.1.2.74c0,.31-.4.76-.67.84a1.82,1.82,0,0,1-1-.33c-.06-.08-.05-.15-.09-.24l0-.13c0,.15,0,.18,0,.09s-.11.15,0,0l-.11.11c-.13.12.12,0,0,0s.32-.09-.11,0l1.66,2.15a1.69,1.69,0,0,1,.13-.27c.09-.14.11-.17.07-.1s0,.05.09-.07c-.1.07-.07.06.07,0a1.46,1.46,0,1,0-1.47-2.53Z"/><path class="cls-9" d="M77.67,134.68a4.72,4.72,0,0,1,2.2,1.69c.89,1.25,3.25.55,2.67-1.13l-.4-1.18L80,135.71a5.15,5.15,0,0,1,1.65,1.2c1.29,1.38,3.36-.7,2.07-2.08a7.44,7.44,0,0,0-2.24-1.65c-1.06-.49-2.61.34-2.16,1.66l.41,1.18,2.68-1.13a8.23,8.23,0,0,0-4-3c-1.77-.67-2.53,2.17-.78,2.82Z"/><path class="cls-9" d="M74.2,139.29a1.46,1.46,0,0,0,0-2.92,1.46,1.46,0,0,0,0,2.92Z"/><path class="cls-9" d="M55.73,135.12c-.48.45-1,.88-1.49,1.29a1.47,1.47,0,0,0,.3,2.3,4.53,4.53,0,0,0,2.43.46l-1.42-1.86a.59.59,0,0,1,.31-.27c.29-.17.32-.22.11-.15a1.48,1.48,0,0,0-1,1.8,1.51,1.51,0,0,0,1.81,1,2.14,2.14,0,0,0,1.63-1.62c.18-.82-.41-2-1.41-1.85a2.29,2.29,0,0,1-.69,0c.22,0-.42-.15-.26-.08l.3,2.3c.51-.41,1-.84,1.48-1.29a1.46,1.46,0,1,0-2.07-2.07Z"/><path class="cls-9" d="M41.59,150a1.47,1.47,0,0,0,0-2.93,1.47,1.47,0,0,0,0,2.93Z"/><path class="cls-9" d="M96.1,141.36c-.29,0,.11,0,.16,0-.24-.07.11.07.15.09l.12.08c-.12-.08-.11-.06,0,0,.15.26-.07-.13.1.15a1.46,1.46,0,1,0,2.53-1.47,3.87,3.87,0,0,0-3.08-1.88,1.48,1.48,0,0,0-1.47,1.46,1.51,1.51,0,0,0,1.47,1.47Z"/><path class="cls-9" d="M55.63,145.14,55.4,145c.49.31.46.85-.1,1.61l-.74.2h.11a1.47,1.47,0,0,0,1.46-1.46,1.49,1.49,0,0,0-1.46-1.47,1.85,1.85,0,0,0-1.84,1.84,2.24,2.24,0,0,0,1.33,1.94,1.46,1.46,0,1,0,1.47-2.53Z"/><path class="cls-2" d="M40.8,173.83C43.6,184,61.77,195,67.49,187c2.71-3.78,22.6,5.45,6.75,17.3-8.83-.22-23.93,2.89-35.37-13a9,9,0,0,1-3.14-10C37.68,174.74,40.8,173.83,40.8,173.83Z"/><path class="cls-1" d="M40.92,173.62a3.41,3.41,0,0,1,.27.61l.18.45c.12.3.25.59.39.88a17.45,17.45,0,0,0,1,1.68,20.77,20.77,0,0,0,2.41,3,29.54,29.54,0,0,0,6,4.89,24.78,24.78,0,0,0,7,3.05c2.4.6,5,.65,6.82-.49a4.91,4.91,0,0,0,1.19-1,2.34,2.34,0,0,0,.24-.31l.16-.21a2.43,2.43,0,0,1,.3-.34,3.58,3.58,0,0,1,1.37-.79,6.38,6.38,0,0,1,2.49-.21,12.06,12.06,0,0,1,2.2.42,15.24,15.24,0,0,1,4,1.81,12.81,12.81,0,0,1,3.32,3A8.84,8.84,0,0,1,82,194.52a9.11,9.11,0,0,1-.86,4.76,19.07,19.07,0,0,1-5.69,6.61l-.48.38h-.75c-3.14,0-6.51.37-9.94.36a37.61,37.61,0,0,1-10.46-1.28,27.86,27.86,0,0,1-9.59-4.89,34.32,34.32,0,0,1-7.1-7.86l.54.52a6.81,6.81,0,0,1-.69-.59,7.53,7.53,0,0,1-.56-.57A11.44,11.44,0,0,1,34,188a10.49,10.49,0,0,1-.11-6.05,12.62,12.62,0,0,1,1-2.6A14.87,14.87,0,0,1,36.39,177a11.36,11.36,0,0,1,1.87-2,7.53,7.53,0,0,1,1.14-.8c.21-.11.42-.21.64-.3l.33-.11.17-.05.09,0h0A.33.33,0,0,1,40.92,173.62Zm-.24.43a.18.18,0,0,0,.17,0l0,0-.06,0-.12.09c-.08.07-.16.12-.23.19s-.28.29-.42.43a6.7,6.7,0,0,0-.71,1A12.22,12.22,0,0,0,38.21,178a22.61,22.61,0,0,0-.7,2.3c-.18.78-.35,1.6-.45,2.3a7.2,7.2,0,0,0,.58,4,7.52,7.52,0,0,0,1.78,2.4l.38.32a3,3,0,0,0,.3.21h.1l.44.53a38.36,38.36,0,0,0,3.11,3.48,37.19,37.19,0,0,0,3.48,2.95,28.43,28.43,0,0,0,8,4.05,36.85,36.85,0,0,0,9.13,1.64c3.19.21,6.43,0,9.91.18l-1.23.39a15.55,15.55,0,0,0,4.84-5,5.31,5.31,0,0,0-.33-5.77A11.36,11.36,0,0,0,72,188a6,6,0,0,0-3.09-.38c-.42.15-.2,0-.92.81a7.41,7.41,0,0,1-1.87,1.47,8.88,8.88,0,0,1-4.4,1,14.83,14.83,0,0,1-4.18-.72,26.44,26.44,0,0,1-7.28-3.7A31.11,31.11,0,0,1,44.35,181a22.29,22.29,0,0,1-2.28-3.33,17.92,17.92,0,0,1-.88-1.82c-.13-.31-.24-.63-.35-.95l-.15-.48A1.23,1.23,0,0,1,40.68,174.05Z"/><g class="cls-6"><path class="cls-5" d="M40.56,177.35c.89,7.94,6.33,10.84,10.59,12.53,3.37,1.33,6.34,5.54.53,6.81S38.4,186.57,38.85,182.47C39.25,178.85,40.56,177.35,40.56,177.35Z"/></g></g></g></svg>