<?xml version="1.0" encoding="utf-8"?>
<!-- Generator: Adobe Illustrator 22.1.0, SVG Export Plug-In . SVG Version: 6.00 Build 0)  -->
<svg version="1.1" id="art" xmlns="http://www.w3.org/2000/svg" xmlns:xlink="http://www.w3.org/1999/xlink" x="0px" y="0px"
	 viewBox="0 0 1869.4 766.9" style="enable-background:new 0 0 1869.4 766.9;" xml:space="preserve">
<style type="text/css">
	.st0{fill:url(#SVGID_1_);}
	.st1{fill:#18334B;}
	.st2{fill:url(#SVGID_2_);}
	.st3{fill:#285778;}
	.st4{fill:#52A4BA;}
	.st5{fill:#223A55;}
	.st6{fill:#3090B8;}
	.st7{fill:url(#SVGID_3_);}
	.st8{opacity:0.53;fill:#1B4D7D;}
	.st9{fill:url(#SVGID_4_);}
	.st10{opacity:0.63;fill:#ADFFF5;}
	.st11{fill:#99886B;}
	.st12{opacity:0.41;fill:#780D78;}
	.st13{fill:#294D66;}
	.st14{fill:#1E7087;}
	.st15{fill:url(#SVGID_5_);}
	.st16{fill:#1D6B70;}
	.st17{fill:#113E54;}
	.st18{opacity:0.41;fill:#1D6B70;}
	.st19{fill:#174860;}
	.st20{fill:#3B8E99;}
	.st21{opacity:0.71;}
	.st22{opacity:0.66;fill:#255989;}
	.st23{opacity:0.22;fill:#B0A48C;}
	.st24{fill:#AD9158;}
	.st25{fill:url(#SVGID_6_);}
	.st26{fill:#87D6D4;}
	.st27{fill:url(#SVGID_7_);}
	.st28{opacity:0.63;fill:#FFE0CA;}
	.st29{fill:url(#SVGID_8_);}
	.st30{fill:url(#SVGID_9_);}
	.st31{fill:url(#SVGID_10_);}
	.st32{fill:url(#SVGID_11_);}
	.st33{fill:url(#SVGID_12_);}
	.st34{fill:url(#SVGID_13_);}
	.st35{fill:url(#SVGID_14_);}
	.st36{fill:url(#SVGID_15_);}
	.st37{fill:#FFEA8D;}
	.st38{fill:#CCAB75;}
	.st39{fill:#175670;}
	.st40{fill:#FFF2FE;}
	.st41{fill:#1A6D85;}
	.st42{opacity:0.63;fill:#FFE0BD;}
	.st43{fill:#184B61;}
	.st44{fill:#257DA3;}
	.st45{fill:#183048;}
	.st46{fill:#184052;}
	.st47{fill:#2B76A1;}
	.st48{fill:#784E42;}
	.st49{fill:#1A3C63;}
	.st50{fill:#161B3A;}
	.st51{fill:#2A869A;}
	.st52{fill:#995946;}
	.st53{opacity:0.31;fill:#1B4D7D;}
	.st54{fill:#A97391;}
	.st55{fill:#3A698B;}
	.st56{opacity:0.51;fill:#FFE0CA;}
	.st57{fill:url(#SVGID_16_);}
	.st58{fill:url(#SVGID_17_);}
	.st59{fill:url(#SVGID_18_);}
	.st60{fill:#205369;}
	.st61{opacity:0.63;fill:#EBE0BD;}
	.st62{fill:url(#SVGID_19_);}
	.st63{fill:url(#SVGID_20_);}
	.st64{fill:#1F617D;}
	.st65{fill:#3D6488;}
	.st66{fill:#144B5F;}
	.st67{opacity:0.63;fill:#F0F0F0;}
	.st68{fill:#154669;}
	.st69{fill:url(#SVGID_21_);}
	.st70{fill:#48ADBA;}
	.st71{fill:#A5D4DD;}
	.st72{fill:#2A455E;}
	.st73{opacity:0.63;fill:#FFFFFF;}
	.st74{opacity:0.27;fill:#780D78;}
	.st75{opacity:0.71;fill:#AD9158;}
	.st76{opacity:0.71;fill:#AD6858;}
	.st77{fill:#7DC7C6;}
	.st78{fill:#343E59;}
	.st79{opacity:0.63;fill:#F0F0FD;}
	.st80{fill:#233854;}
	.st81{fill:#1B2549;}
	.st82{fill:#C7A96D;}
	.st83{opacity:0.41;}
	.st84{fill:#780D78;}
	.st85{opacity:0.53;}
	.st86{opacity:0.44;fill:#F0F0F0;}
	.st87{fill:#509EB0;}
	.st88{opacity:0.42;fill:#FFE0CA;}
	.st89{fill:#3A8399;}
</style>
<g>
	<linearGradient id="SVGID_1_" gradientUnits="userSpaceOnUse" x1="1795.3345" y1="769.4365" x2="1795.3345" y2="366.5634">
		<stop  offset="9.090910e-02" style="stop-color:#1E294F"/>
		<stop  offset="1" style="stop-color:#205369"/>
	</linearGradient>
	<rect x="1662.4" y="366.6" class="st0" width="265.9" height="402.9"/>
	<polygon class="st1" points="1334,245.7 1275.1,292.3 1334,292.3 	"/>
	<linearGradient id="SVGID_2_" gradientUnits="userSpaceOnUse" x1="1603.375" y1="770.3857" x2="1603.375" y2="366.5634">
		<stop  offset="0" style="stop-color:#131433"/>
		<stop  offset="1" style="stop-color:#182140"/>
	</linearGradient>
	<polygon class="st2" points="1543.4,770.4 1663.4,770.4 1663.4,366.6 1543.4,404.1 	"/>
	<g>
		<rect x="423.4" y="167.7" class="st3" width="18.3" height="24.5"/>
		<rect x="436" y="167.7" class="st4" width="5.7" height="23.5"/>
	</g>
	<g>
		<rect x="134.2" y="346.4" class="st5" width="18.3" height="24.5"/>
		<rect x="146.9" y="346.4" class="st6" width="5.7" height="23.5"/>
	</g>
	<polygon class="st5" points="28.4,314.3 5.9,324.7 5.9,350.3 50.9,350.3 50.9,324.7 	"/>
	<g>
		<rect x="110.2" y="346.4" class="st5" width="18.3" height="24.5"/>
		<rect x="122.9" y="346.4" class="st6" width="5.7" height="23.5"/>
	</g>
	<g>
		<rect x="311.4" y="149.2" class="st3" width="18.3" height="24.5"/>
		<rect x="324" y="149.2" class="st4" width="5.7" height="23.5"/>
	</g>
	<g>
		<rect x="335.7" y="149.2" class="st3" width="18.3" height="24.5"/>
		<rect x="348.4" y="149.2" class="st4" width="5.7" height="23.5"/>
	</g>
	<linearGradient id="SVGID_3_" gradientUnits="userSpaceOnUse" x1="177.4516" y1="770.3857" x2="177.4516" y2="355.0225">
		<stop  offset="1.818180e-02" style="stop-color:#14293B"/>
		<stop  offset="0.2331" style="stop-color:#162F42"/>
		<stop  offset="0.541" style="stop-color:#1C4055"/>
		<stop  offset="0.9034" style="stop-color:#255B74"/>
		<stop  offset="1" style="stop-color:#28637D"/>
	</linearGradient>
	<polygon class="st7" points="189.9,770.4 189.9,364.3 165,355 165,770.4 	"/>
	<polygon class="st8" points="171,357.6 171,770.4 176.2,770.4 176.2,359.5 	"/>
	<polygon class="st8" points="179.5,360.4 179.5,770.4 184,770.4 184,362.1 	"/>
	<linearGradient id="SVGID_4_" gradientUnits="userSpaceOnUse" x1="125.6889" y1="770.3857" x2="125.6889" y2="355.0225">
		<stop  offset="0.1212" style="stop-color:#11172E"/>
		<stop  offset="1" style="stop-color:#1C3857"/>
	</linearGradient>
	<rect x="86.4" y="355" class="st9" width="78.6" height="415.4"/>
	<g>
		<g>
			<rect x="105.3" y="378.5" class="st10" width="7.9" height="26.7"/>
			<rect x="125.8" y="378.5" class="st11" width="7.9" height="26.7"/>
		</g>
		<g>
			<rect x="105.3" y="433.2" class="st11" width="7.9" height="26.7"/>
			<rect x="125.8" y="433.2" class="st11" width="7.9" height="26.7"/>
		</g>
		<g>
			<rect x="105.3" y="492.8" class="st10" width="7.9" height="26.7"/>
			<rect x="125.8" y="492.8" class="st12" width="7.9" height="26.7"/>
		</g>
	</g>
	<g>
		<rect x="143.7" y="478.4" class="st13" width="18.3" height="24.5"/>
		<rect x="156.4" y="478.4" class="st6" width="5.7" height="23.5"/>
	</g>
	<rect x="1275" y="279.8" class="st14" width="36.7" height="24.5"/>
	<linearGradient id="SVGID_5_" gradientUnits="userSpaceOnUse" x1="47.2539" y1="770.3857" x2="47.2539" y2="330.8975">
		<stop  offset="1.818180e-02" style="stop-color:#14293B"/>
		<stop  offset="0.2331" style="stop-color:#162F42"/>
		<stop  offset="0.541" style="stop-color:#1C4055"/>
		<stop  offset="0.9034" style="stop-color:#255B74"/>
		<stop  offset="1" style="stop-color:#28637D"/>
	</linearGradient>
	<polygon class="st15" points="94.5,770.4 0,770.4 0,330.9 23.4,330.9 94.5,355 	"/>
	<polygon class="st8" points="37.2,335.5 37.2,770.4 48.7,770.4 48.7,339.5 	"/>
	<polygon class="st8" points="72.9,347.3 72.9,770.4 84.4,770.4 84.4,351.2 	"/>
	<polygon class="st1" points="1275,279.8 1257.4,291.7 1275,291.7 	"/>
	<polygon class="st8" points="54.5,341.5 54.5,770.4 66,770.4 66,345.4 	"/>
	<g>
		<polygon class="st11" points="171,380.7 171,403.5 173.7,404.4 173.7,381.6 		"/>
		<polygon class="st12" points="171,476.4 171,504.9 173.7,505.4 173.7,477 		"/>
		<polygon class="st16" points="171,427 171,452.1 173.7,452.8 173.7,427.7 		"/>
		<polygon class="st11" points="179.5,429.3 179.5,454.2 181.7,454.7 181.7,429.9 		"/>
		<polygon class="st16" points="179.5,383.7 179.5,406.1 181.7,406.8 181.7,384.4 		"/>
		<polygon class="st16" points="179.5,478.2 179.5,506.3 181.7,506.6 181.7,478.6 		"/>
		<polygon class="st12" points="37.2,483.4 37.2,513.4 42.7,514.1 42.7,484.3 		"/>
		<polygon class="st11" points="37.2,420.4 37.2,449.4 42.7,450.5 42.7,421.7 		"/>
		<polygon class="st16" points="37.2,547.4 37.2,578.4 42.7,578.6 42.7,547.8 		"/>
		<polygon class="st16" points="37.2,362.4 37.2,390.4 42.7,391.9 42.7,364.1 		"/>
		<polygon class="st11" points="37.2,670.4 37.2,701.4 42.7,700.8 42.7,670 		"/>
		<polygon class="st17" points="37.2,732.4 37.2,763.4 42.7,762.4 42.7,731.6 		"/>
		<polygon class="st11" points="37.2,608.4 37.2,639.4 42.7,639.2 42.7,608.4 		"/>
		<polygon class="st11" points="54.5,367.7 54.5,395.1 60.4,396.7 60.4,369.5 		"/>
		<polygon class="st12" points="54.5,730 54.5,760.3 60.4,759.3 60.4,729.1 		"/>
		<polygon class="st12" points="54.5,548.8 54.5,579.2 60.4,579.5 60.4,549.3 		"/>
		<polygon class="st16" points="54.5,608.6 54.5,638.9 60.4,638.7 60.4,608.6 		"/>
		<polygon class="st17" points="54.5,486.2 54.5,515.5 60.4,516.3 60.4,487.1 		"/>
		<polygon class="st11" points="54.5,424.5 54.5,452.9 60.4,454.1 60.4,425.9 		"/>
		<polygon class="st17" points="54.5,669.3 54.5,699.6 60.4,699 60.4,668.9 		"/>
		<polygon class="st18" points="71.9,550.3 71.9,580 77.9,580.3 77.9,550.8 		"/>
		<polygon class="st18" points="71.9,668.1 71.9,697.8 77.9,697.2 77.9,667.7 		"/>
		<polygon class="st12" points="71.9,373 71.9,399.9 77.9,401.5 77.9,374.9 		"/>
		<polygon class="st16" points="71.9,428.6 71.9,456.4 77.9,457.6 77.9,430 		"/>
		<polygon class="st18" points="71.9,727.5 71.9,757.2 77.9,756.1 77.9,726.7 		"/>
		<polygon class="st18" points="71.9,608.7 71.9,638.4 77.9,638.3 77.9,608.8 		"/>
		<polygon class="st11" points="71.9,489 71.9,517.7 77.9,518.5 77.9,489.9 		"/>
	</g>
	<g>
		<rect x="197.6" y="479.7" class="st1" width="3.5" height="20"/>
		<rect x="219" y="479.7" class="st1" width="3.5" height="20"/>
		
			<rect x="196.1" y="487.7" transform="matrix(0.7071 -0.7071 0.7071 0.7071 -284.1133 291.735)" class="st1" width="28" height="2.2"/>
		
			<rect x="209" y="474.8" transform="matrix(0.7071 -0.7071 0.7071 0.7071 -284.1133 291.735)" class="st1" width="2.2" height="28"/>
		<polygon class="st19" points="210.1,445.2 197.6,455.1 197.6,479.7 222.6,479.7 222.6,455.1 		"/>
		<polygon class="st20" points="210.1,445.2 214.6,455.6 214.6,479.7 222.6,479.7 222.6,455.1 		"/>
	</g>
	<g class="st21">
		<polygon class="st22" points="1591,422.3 1580.5,424.8 1580.5,445.9 1591,443.9 		"/>
		<polygon class="st23" points="1612.5,417.2 1601,419.9 1601,442 1612.5,439.8 		"/>
		<polygon class="st24" points="1637.5,411.3 1623.5,414.6 1623.5,437.6 1637.5,434.9 		"/>
		<polygon class="st24" points="1562.5,429 1562.5,449.4 1571,447.8 1571,427 		"/>
		<polygon class="st23" points="1591,459.6 1580.5,461.3 1580.5,481 1591,479.8 		"/>
		<polygon class="st24" points="1612.5,456.2 1601,458 1601,478.6 1612.5,477.2 		"/>
		<polygon class="st22" points="1637.5,452.1 1623.5,454.4 1623.5,475.9 1637.5,474.2 		"/>
		<polygon class="st24" points="1562.5,464.2 1562.5,483.2 1571,482.2 1571,462.8 		"/>
		<polygon class="st22" points="1562.5,500.5 1562.5,518.9 1571,518.6 1571,499.8 		"/>
		<polygon class="st22" points="1637.5,494.3 1623.5,495.5 1623.5,516.3 1637.5,515.7 		"/>
		<polygon class="st22" points="1591,498.1 1580.5,499 1580.5,518.2 1591,517.7 		"/>
		<polygon class="st24" points="1612.5,496.4 1601,497.3 1601,517.3 1612.5,516.8 		"/>
		<polygon class="st24" points="1562.5,536.2 1562.5,553.5 1571,553.8 1571,536.2 		"/>
		<polygon class="st24" points="1591,536.1 1580.5,536.1 1580.5,554.1 1591,554.5 		"/>
		<polygon class="st23" points="1612.5,536 1601,536 1601,554.8 1612.5,555.1 		"/>
		<polygon class="st24" points="1637.5,535.8 1623.5,535.9 1623.5,555.5 1637.5,555.9 		"/>
		<polygon class="st24" points="1591,573.4 1580.5,572.7 1580.5,591.1 1591,592.3 		"/>
		<polygon class="st22" points="1612.5,574.9 1601,574.1 1601,593.4 1612.5,594.6 		"/>
		<polygon class="st24" points="1637.5,576.7 1623.5,575.7 1623.5,595.8 1637.5,597.4 		"/>
		<polygon class="st24" points="1562.5,571.4 1562.5,589.2 1571,590.1 1571,572 		"/>
	</g>
	<linearGradient id="SVGID_6_" gradientUnits="userSpaceOnUse" x1="189.4507" y1="579.7852" x2="189.4507" y2="488.2929">
		<stop  offset="0.1879" style="stop-color:#1E3754"/>
		<stop  offset="1" style="stop-color:#1F5978"/>
	</linearGradient>
	<rect x="131.9" y="488.3" class="st25" width="115.1" height="91.5"/>
	<polygon class="st26" points="457,175.7 514.7,238.1 514.7,271.1 453.7,186.3 	"/>
	<linearGradient id="SVGID_7_" gradientUnits="userSpaceOnUse" x1="240.6895" y1="770.3857" x2="240.6895" y2="488.2929">
		<stop  offset="7.878790e-02" style="stop-color:#1B3049"/>
		<stop  offset="0.9939" style="stop-color:#2D6E82"/>
	</linearGradient>
	<polygon class="st27" points="247,488.3 247,561.6 188.2,555.7 188.2,536.9 183,536.4 183,770.4 184,770.4 188.2,770.4 
		290.9,770.4 298.4,498.4 	"/>
	<polygon class="st28" points="247,488.3 247,561.6 188.2,555.7 188.2,536.9 183,536.4 183,770.4 184,770.4 188.2,770.4 
		285.7,712.4 285.7,495.9 	"/>
	<linearGradient id="SVGID_8_" gradientUnits="userSpaceOnUse" x1="371.3525" y1="770.3857" x2="371.3525" y2="186.3134">
		<stop  offset="0.1212" style="stop-color:#1A2344"/>
		<stop  offset="1" style="stop-color:#194A78"/>
	</linearGradient>
	<rect x="285.7" y="186.3" class="st29" width="171.3" height="584.1"/>
	<linearGradient id="SVGID_9_" gradientUnits="userSpaceOnUse" x1="1320.4155" y1="770.3857" x2="1320.4155" y2="291.3057">
		<stop  offset="9.090910e-02" style="stop-color:#1E294F"/>
		<stop  offset="1" style="stop-color:#205369"/>
	</linearGradient>
	<rect x="1187.5" y="291.3" class="st30" width="265.9" height="479.1"/>
	<linearGradient id="SVGID_10_" gradientUnits="userSpaceOnUse" x1="1155.2075" y1="770.3857" x2="1155.2075" y2="291.3057">
		<stop  offset="0" style="stop-color:#131433"/>
		<stop  offset="1" style="stop-color:#203652"/>
	</linearGradient>
	<polygon class="st31" points="1187.5,291.3 1123,355.8 1123,770.4 1187.5,770.4 	"/>
	<linearGradient id="SVGID_11_" gradientUnits="userSpaceOnUse" x1="663.733" y1="770.3857" x2="663.733" y2="531.2911">
		<stop  offset="0.1212" style="stop-color:#182140"/>
		<stop  offset="1" style="stop-color:#184B61"/>
	</linearGradient>
	<rect x="498" y="531.3" class="st32" width="331.5" height="239.1"/>
	<linearGradient id="SVGID_12_" gradientUnits="userSpaceOnUse" x1="485.8697" y1="770.3857" x2="485.8697" y2="186.3134">
		<stop  offset="3.030300e-02" style="stop-color:#254263"/>
		<stop  offset="1" style="stop-color:#2D7096"/>
	</linearGradient>
	<polygon class="st33" points="457,186.3 514.7,247.2 514.7,770.4 457,770.4 	"/>
	<polygon class="st8" points="473.3,205 473.3,770.4 482.5,770.4 482.5,216 	"/>
	<polygon class="st8" points="487.2,221.6 487.2,770.4 496.4,770.4 496.4,232.4 	"/>
	<linearGradient id="SVGID_13_" gradientUnits="userSpaceOnUse" x1="839.9258" y1="770.3857" x2="839.9258" y2="491.8564">
		<stop  offset="6.060610e-03" style="stop-color:#1A2B4D"/>
		<stop  offset="1" style="stop-color:#228BAB"/>
	</linearGradient>
	<polygon class="st34" points="829.5,491.9 850.4,564.9 850.4,770.4 829.5,770.4 	"/>
	<linearGradient id="SVGID_14_" gradientUnits="userSpaceOnUse" x1="1019.167" y1="770.3857" x2="1019.167" y2="452.3857">
		<stop  offset="0.1212" style="stop-color:#1A2344"/>
		<stop  offset="1" style="stop-color:#205369"/>
	</linearGradient>
	<rect x="915.4" y="452.4" class="st35" width="207.6" height="318"/>
	<linearGradient id="SVGID_15_" gradientUnits="userSpaceOnUse" x1="898.375" y1="770.3857" x2="898.375" y2="424.8857">
		<stop  offset="0" style="stop-color:#131433"/>
		<stop  offset="1" style="stop-color:#223D5C"/>
	</linearGradient>
	<polygon class="st36" points="881.4,770.4 915.4,770.4 915.4,424.9 881.4,555.4 	"/>
	<g>
		<polygon class="st12" points="473.3,609 473.3,632.6 478,632.4 478,609.1 		"/>
		<polygon class="st16" points="473.3,564.1 473.3,587.5 478,587.9 478,564.8 		"/>
		<polygon class="st37" points="473.3,653.9 473.3,677.7 478,676.9 478,653.4 		"/>
		<polygon class="st17" points="473.3,743.7 473.3,764.1 478,762.2 478,742 		"/>
		<polygon class="st38" points="473.3,519.2 473.3,543.3 478,544.3 478,520.5 		"/>
		<polygon class="st39" points="473.3,698.8 473.3,722.9 478,721.5 478,697.7 		"/>
		<polygon class="st40" points="473.3,294.6 473.3,318.5 478,322.5 478,298.9 		"/>
		<polygon class="st41" points="473.3,339.3 473.3,363.7 478,367.1 478,343 		"/>
		<polygon class="st16" points="473.3,249.7 473.3,273.4 478,278 478,254.6 		"/>
		<polygon class="st16" points="473.3,474.2 473.3,498.1 478,499.7 478,476.2 		"/>
		<polygon class="st41" points="473.3,429.3 473.3,453 478,455.2 478,431.9 		"/>
		<polygon class="st12" points="473.3,384.4 473.3,408.8 478,411.6 478,387.5 		"/>
		<polygon class="st41" points="487.2,566.2 487.2,588.7 492.4,589.1 492.4,567 		"/>
		<polygon class="st38" points="487.2,609.4 487.2,632 492.4,631.8 492.4,609.5 		"/>
		<polygon class="st37" points="487.2,523.1 487.2,546.2 492.4,547.3 492.4,524.5 		"/>
		<polygon class="st12" points="487.2,695.6 487.2,718.8 492.4,717.2 492.4,694.5 		"/>
		<polygon class="st17" points="487.2,652.5 487.2,675.4 492.4,674.5 492.4,652 		"/>
		<polygon class="st38" points="487.2,307.3 487.2,330.3 492.4,334.7 492.4,312.1 		"/>
		<polygon class="st12" points="487.2,479.9 487.2,502.9 492.4,504.6 492.4,482 		"/>
		<polygon class="st12" points="487.2,738.8 487.2,758.4 492.4,756.2 492.4,736.9 		"/>
		<polygon class="st37" points="487.2,264.2 487.2,287 492.4,292 492.4,269.6 		"/>
		<polygon class="st37" points="487.2,436.8 487.2,459.5 492.4,461.9 492.4,439.5 		"/>
		<polygon class="st16" points="487.2,350.2 487.2,373.7 492.4,377.4 492.4,354.2 		"/>
		<polygon class="st38" points="487.2,393.6 487.2,417.1 492.4,420.1 492.4,397.1 		"/>
	</g>
	<polygon class="st42" points="457,186.3 457,514.4 514.7,570.4 514.7,247.2 	"/>
	<rect x="415.5" y="222.4" class="st8" width="18" height="548"/>
	<rect x="1228.4" y="305.4" class="st12" width="30.9" height="465"/>
	<rect x="1203" y="305.4" class="st12" width="18" height="465"/>
	<rect x="1378.3" y="305.4" class="st12" width="30.9" height="465"/>
	<rect x="1416.6" y="305.4" class="st12" width="18" height="465"/>
	<rect x="1303.8" y="305.4" class="st12" width="30.9" height="465"/>
	<rect x="1278.3" y="305.4" class="st12" width="18" height="465"/>
	<rect x="815.7" y="491.4" class="st43" width="13.8" height="46.8"/>
	<rect x="1341.6" y="305.4" class="st12" width="18" height="465"/>
	<g>
		<rect x="1351.2" y="530.2" class="st1" width="18.3" height="24.5"/>
		<rect x="1363.9" y="530.2" class="st44" width="5.7" height="23.5"/>
	</g>
	<g>
		<rect x="1569.5" y="522.3" class="st1" width="18.3" height="24.5"/>
		<rect x="1582.2" y="522.3" class="st44" width="5.7" height="23.5"/>
	</g>
	<g>
		<rect x="1547.5" y="522.3" class="st1" width="18.3" height="24.5"/>
		<rect x="1560.2" y="522.3" class="st44" width="5.7" height="23.5"/>
	</g>
	<g>
		<rect x="1617" y="598.9" class="st45" width="2.6" height="25.9"/>
		<rect x="1642.7" y="598.9" class="st45" width="2.6" height="25.9"/>
		
			<rect x="1613.1" y="609.3" transform="matrix(0.7069 -0.7073 0.7073 0.7069 46.1373 1332.7175)" class="st45" width="36.3" height="2.7"/>
		
			<rect x="1629.8" y="592.5" transform="matrix(0.7071 -0.7071 0.7071 0.7071 45.93 1332.249)" class="st45" width="2.7" height="36.3"/>
		<polygon class="st46" points="1631.2,554.2 1615,567 1615,598.9 1647.3,598.9 1647.3,567 		"/>
	</g>
	<g>
		<g>
			<g>
				<g>
					<g>
						<rect x="1203" y="322.4" class="st11" width="13.3" height="23.3"/>
					</g>
					<rect x="1228.4" y="322.4" class="st47" width="25.4" height="23.3"/>
					<rect x="1278.3" y="322.4" class="st12" width="13.3" height="23.3"/>
					<rect x="1341.6" y="322.4" class="st48" width="13.3" height="23.3"/>
					<g>
						<rect x="1303.8" y="322.4" class="st11" width="25.4" height="23.3"/>
					</g>
					<rect x="1416.6" y="322.4" class="st47" width="13.3" height="23.3"/>
					<rect x="1378.3" y="322.4" class="st12" width="25.4" height="23.3"/>
				</g>
			</g>
			<g>
				<g>
					<g>
						<rect x="1203" y="365.9" class="st11" width="13.3" height="23.3"/>
					</g>
					<rect x="1228.4" y="365.9" class="st48" width="25.4" height="23.3"/>
					<rect x="1278.3" y="365.9" class="st49" width="13.3" height="23.3"/>
					<g>
						<rect x="1341.6" y="365.9" class="st11" width="13.3" height="23.3"/>
					</g>
					<rect x="1303.8" y="365.9" class="st47" width="25.4" height="23.3"/>
					<rect x="1416.6" y="365.9" class="st48" width="13.3" height="23.3"/>
					<g>
						<rect x="1378.3" y="365.9" class="st11" width="25.4" height="23.3"/>
					</g>
				</g>
			</g>
			<g>
				<g>
					<rect x="1203" y="409.4" class="st12" width="13.3" height="23.3"/>
					<rect x="1228.4" y="409.4" class="st49" width="25.4" height="23.3"/>
					<rect x="1278.3" y="409.4" class="st47" width="13.3" height="23.3"/>
					<rect x="1341.6" y="409.4" class="st47" width="13.3" height="23.3"/>
					<rect x="1303.8" y="409.4" class="st12" width="25.4" height="23.3"/>
					<rect x="1416.6" y="409.4" class="st49" width="13.3" height="23.3"/>
					<rect x="1378.3" y="409.4" class="st49" width="25.4" height="23.3"/>
				</g>
			</g>
			<g>
				<g>
					<rect x="1203" y="452.9" class="st49" width="13.3" height="23.3"/>
					<rect x="1228.4" y="452.9" class="st12" width="25.4" height="23.3"/>
					<rect x="1278.3" y="452.9" class="st12" width="13.3" height="23.3"/>
					<rect x="1341.6" y="452.9" class="st12" width="13.3" height="23.3"/>
					<rect x="1303.8" y="452.9" class="st47" width="25.4" height="23.3"/>
					<rect x="1416.6" y="452.9" class="st12" width="13.3" height="23.3"/>
					<g>
						<rect x="1378.3" y="452.9" class="st11" width="25.4" height="23.3"/>
					</g>
				</g>
			</g>
			<g>
				<g>
					<rect x="1203" y="496.4" class="st47" width="13.3" height="23.3"/>
					<rect x="1228.4" y="496.4" class="st49" width="25.4" height="23.3"/>
					<rect x="1278.3" y="496.4" class="st48" width="13.3" height="23.3"/>
					<rect x="1341.6" y="496.4" class="st48" width="13.3" height="23.3"/>
					<g>
						<rect x="1303.8" y="496.4" class="st11" width="25.4" height="23.3"/>
					</g>
					<rect x="1416.6" y="496.4" class="st47" width="13.3" height="23.3"/>
					<rect x="1378.3" y="496.4" class="st12" width="25.4" height="23.3"/>
				</g>
			</g>
			<g>
				<g>
					<rect x="1203" y="539.9" class="st48" width="13.3" height="23.3"/>
					<rect x="1228.4" y="539.9" class="st12" width="25.4" height="23.3"/>
					<rect x="1278.3" y="539.9" class="st49" width="13.3" height="23.3"/>
					<rect x="1341.6" y="539.9" class="st47" width="13.3" height="23.3"/>
					<rect x="1303.8" y="539.9" class="st49" width="25.4" height="23.3"/>
					<rect x="1416.6" y="539.9" class="st47" width="13.3" height="23.3"/>
					<rect x="1378.3" y="539.9" class="st47" width="25.4" height="23.3"/>
				</g>
			</g>
			<g>
				<g>
					<rect x="1203" y="583.4" class="st49" width="13.3" height="23.3"/>
					<rect x="1228.4" y="583.4" class="st47" width="25.4" height="23.3"/>
					<rect x="1278.3" y="583.4" class="st47" width="13.3" height="23.3"/>
					<rect x="1341.6" y="583.4" class="st47" width="13.3" height="23.3"/>
					<g>
						<rect x="1303.8" y="583.4" class="st11" width="25.4" height="23.3"/>
					</g>
					<rect x="1416.6" y="583.4" class="st47" width="13.3" height="23.3"/>
					<rect x="1378.3" y="583.4" class="st47" width="25.4" height="23.3"/>
				</g>
			</g>
			<g>
				<g>
					<rect x="1203" y="626.9" class="st48" width="13.3" height="23.3"/>
					<g>
						<rect x="1228.4" y="626.9" class="st11" width="25.4" height="23.3"/>
					</g>
					<rect x="1278.3" y="626.9" class="st12" width="13.3" height="23.3"/>
					<rect x="1341.6" y="626.9" class="st47" width="13.3" height="23.3"/>
					<rect x="1303.8" y="626.9" class="st49" width="25.4" height="23.3"/>
					<rect x="1416.6" y="626.9" class="st47" width="13.3" height="23.3"/>
					<rect x="1378.3" y="626.9" class="st47" width="25.4" height="23.3"/>
				</g>
			</g>
			<g>
				<g>
					<rect x="1203" y="670.4" class="st47" width="13.3" height="23.3"/>
					<rect x="1228.4" y="670.4" class="st12" width="25.4" height="23.3"/>
					<rect x="1278.3" y="670.4" class="st47" width="13.3" height="23.3"/>
					<rect x="1341.6" y="670.4" class="st47" width="13.3" height="23.3"/>
					<rect x="1303.8" y="670.4" class="st12" width="25.4" height="23.3"/>
					<rect x="1416.6" y="670.4" class="st47" width="13.3" height="23.3"/>
					<rect x="1378.3" y="670.4" class="st47" width="25.4" height="23.3"/>
				</g>
			</g>
			<g>
				<g>
					<rect x="1203" y="713.9" class="st47" width="13.3" height="23.3"/>
					<rect x="1228.4" y="713.9" class="st48" width="25.4" height="23.3"/>
					<rect x="1278.3" y="713.9" class="st49" width="13.3" height="23.3"/>
					<rect x="1341.6" y="713.9" class="st47" width="13.3" height="23.3"/>
					<rect x="1303.8" y="713.9" class="st48" width="25.4" height="23.3"/>
					<rect x="1416.6" y="713.9" class="st47" width="13.3" height="23.3"/>
					<rect x="1378.3" y="713.9" class="st47" width="25.4" height="23.3"/>
				</g>
			</g>
			<g>
				<g>
					<rect x="1203" y="757.4" class="st49" width="13.3" height="13"/>
					<rect x="1228.4" y="757.4" class="st12" width="25.4" height="13"/>
					<rect x="1278.3" y="757.4" class="st12" width="13.3" height="13"/>
					<rect x="1341.6" y="757.4" class="st47" width="13.3" height="13"/>
					<rect x="1303.8" y="757.4" class="st12" width="25.4" height="13"/>
					<rect x="1416.6" y="757.4" class="st47" width="13.3" height="13"/>
					<rect x="1378.3" y="757.4" class="st47" width="25.4" height="13"/>
				</g>
			</g>
		</g>
	</g>
	<polygon class="st50" points="1402.8,533.1 1402.7,508.1 1421,488.3 1500.4,470.1 1470.4,494.7 1470.4,531.3 	"/>
	<rect x="388.5" y="222.4" class="st8" width="18" height="548"/>
	<rect x="361.5" y="222.4" class="st8" width="18" height="548"/>
	<rect x="334.5" y="222.4" class="st8" width="18" height="548"/>
	<rect x="307.5" y="222.4" class="st8" width="18" height="548"/>
	<g>
		<rect x="418.9" y="232.6" class="st51" width="14.4" height="25"/>
		<rect x="391.9" y="232.6" class="st52" width="14.4" height="25"/>
		<rect x="365" y="232.6" class="st52" width="14.2" height="25"/>
		<rect x="418.9" y="279.6" class="st41" width="14.4" height="25"/>
		<rect x="391.9" y="279.6" class="st40" width="14.4" height="25"/>
		<rect x="365" y="279.6" class="st53" width="14.2" height="25"/>
		<polygon class="st53" points="424.4,352.6 433.3,351.6 433.3,326.6 424.4,327.6 		"/>
		<rect x="391.9" y="326.6" class="st53" width="14.4" height="25"/>
		<rect x="365" y="326.6" class="st52" width="14.2" height="25"/>
		<rect x="418.9" y="373.6" class="st37" width="14.4" height="25"/>
		<rect x="391.9" y="373.6" class="st37" width="14.4" height="25"/>
		<rect x="365" y="373.6" class="st52" width="14.2" height="25"/>
		<rect x="418.9" y="420.6" class="st40" width="14.4" height="25"/>
		<rect x="391.9" y="420.6" class="st53" width="14.4" height="25"/>
		<rect x="365" y="420.6" class="st41" width="14.2" height="25"/>
		<rect x="418.9" y="467.6" class="st52" width="14.4" height="25"/>
		<rect x="391.9" y="467.6" class="st40" width="14.4" height="25"/>
		<rect x="365" y="467.6" class="st53" width="14.2" height="25"/>
		<rect x="418.9" y="514.6" class="st41" width="14.4" height="25"/>
		<rect x="391.9" y="514.6" class="st41" width="14.4" height="25"/>
		<rect x="365" y="514.6" class="st37" width="14.2" height="25"/>
		<rect x="418.9" y="561.6" class="st37" width="14.4" height="25"/>
		<rect x="391.9" y="561.6" class="st52" width="14.4" height="25"/>
		<rect x="365" y="561.6" class="st53" width="14.2" height="25"/>
		<rect x="418.9" y="608.6" class="st41" width="14.4" height="25"/>
		<rect x="391.9" y="608.6" class="st37" width="14.4" height="25"/>
		<rect x="365" y="608.6" class="st41" width="14.2" height="25"/>
		<rect x="418.9" y="655.6" class="st52" width="14.4" height="25"/>
		<rect x="391.9" y="655.6" class="st53" width="14.4" height="25"/>
		<rect x="365" y="655.6" class="st41" width="14.2" height="25"/>
		<rect x="418.9" y="702.6" class="st41" width="14.4" height="25"/>
		<rect x="391.9" y="702.6" class="st53" width="14.4" height="25"/>
		<rect x="365" y="702.6" class="st53" width="14.2" height="25"/>
		<rect x="418.9" y="749.6" class="st8" width="14.4" height="21.3"/>
		<rect x="391.9" y="749.6" class="st41" width="14.4" height="21.3"/>
		<rect x="338.1" y="232.6" class="st37" width="14.4" height="25"/>
		<rect x="311.1" y="232.6" class="st41" width="14.4" height="25"/>
		<rect x="338.1" y="279.6" class="st41" width="14.4" height="25"/>
		<rect x="311.1" y="279.6" class="st53" width="14.4" height="25"/>
		<rect x="338.1" y="326.6" class="st37" width="14.4" height="25"/>
		<rect x="311.1" y="326.6" class="st40" width="14.4" height="25"/>
		<rect x="338.1" y="373.6" class="st53" width="14.4" height="25"/>
		<rect x="311.1" y="373.6" class="st37" width="14.4" height="25"/>
		<rect x="338.1" y="420.6" class="st53" width="14.4" height="25"/>
		<rect x="311.1" y="420.6" class="st52" width="14.4" height="25"/>
		<rect x="338.1" y="467.6" class="st52" width="14.4" height="25"/>
		<rect x="311.1" y="467.6" class="st53" width="14.4" height="25"/>
		<rect x="338.1" y="514.6" class="st37" width="14.4" height="25"/>
		<rect x="311.1" y="514.6" class="st8" width="14.4" height="25"/>
		<rect x="338.1" y="561.6" class="st41" width="14.4" height="25"/>
		<rect x="311.1" y="561.6" class="st37" width="14.4" height="25"/>
		<rect x="338.1" y="608.6" class="st53" width="14.4" height="25"/>
		<rect x="311.1" y="608.6" class="st52" width="14.4" height="25"/>
		<rect x="338.1" y="655.6" class="st8" width="14.4" height="25"/>
		<rect x="311.1" y="655.6" class="st41" width="14.4" height="25"/>
		<rect x="338.1" y="702.6" class="st52" width="14.4" height="25"/>
		<rect x="311.1" y="702.6" class="st53" width="14.4" height="25"/>
		<rect x="338.1" y="749.6" class="st8" width="14.4" height="21.3"/>
		<rect x="311.1" y="749.6" class="st41" width="14.4" height="21.3"/>
		<rect x="365" y="749.6" class="st52" width="14.2" height="21.3"/>
	</g>
	<g>
		<rect x="929.1" y="484.6" class="st11" width="13.7" height="18.5"/>
		<rect x="961.1" y="484.6" class="st12" width="13.7" height="18.5"/>
		<rect x="993.2" y="484.6" class="st47" width="13.7" height="18.5"/>
		<rect x="929.1" y="526.6" class="st10" width="13.7" height="18.5"/>
		<rect x="961.1" y="526.6" class="st11" width="13.7" height="18.5"/>
		<rect x="993.2" y="526.6" class="st47" width="13.7" height="18.5"/>
		<rect x="1025.2" y="484.6" class="st12" width="13.7" height="18.5"/>
		<rect x="1025.2" y="526.6" class="st54" width="13.7" height="18.5"/>
		<rect x="929.1" y="568.6" class="st10" width="13.7" height="18.5"/>
		<rect x="961.1" y="568.6" class="st11" width="13.7" height="18.5"/>
		<rect x="993.2" y="568.6" class="st12" width="13.7" height="18.5"/>
		<rect x="929.1" y="610.6" class="st12" width="13.7" height="18.5"/>
		<rect x="961.1" y="610.6" class="st47" width="13.7" height="18.5"/>
		<rect x="993.2" y="610.6" class="st11" width="13.7" height="18.5"/>
		<rect x="929.1" y="652.6" class="st47" width="13.7" height="18.5"/>
		<rect x="961.1" y="652.6" class="st11" width="13.7" height="18.5"/>
		<rect x="993.2" y="652.6" class="st10" width="13.7" height="18.5"/>
		<rect x="929.1" y="695.2" class="st11" width="13.7" height="18.5"/>
		<rect x="961.1" y="695.2" class="st47" width="13.7" height="18.5"/>
		<rect x="993.2" y="695.2" class="st12" width="13.7" height="18.5"/>
		<rect x="929.1" y="737.2" class="st12" width="13.7" height="18.5"/>
		<rect x="961.1" y="737.2" class="st10" width="13.7" height="18.5"/>
		<rect x="993.2" y="737.2" class="st12" width="13.7" height="18.5"/>
	</g>
	<rect x="285.7" y="175.7" class="st55" width="171.3" height="10.6"/>
	<rect x="303.3" y="154.4" class="st55" width="74.7" height="24.5"/>
	<polygon class="st56" points="829.5,687.3 850.4,687.4 850.4,564.9 829.5,491.9 	"/>
	<linearGradient id="SVGID_16_" gradientUnits="userSpaceOnUse" x1="1367.7568" y1="770.3857" x2="1367.7568" y2="531.2911">
		<stop  offset="0" style="stop-color:#0F1029"/>
		<stop  offset="1" style="stop-color:#1A2445"/>
	</linearGradient>
	<polygon class="st57" points="1416.6,770.4 1318.9,770.4 1318.9,545.2 1416.6,531.3 	"/>
	<linearGradient id="SVGID_17_" gradientUnits="userSpaceOnUse" x1="12.0069" y1="770.3857" x2="12.0069" y2="330.9278">
		<stop  offset="0.1212" style="stop-color:#11172E"/>
		<stop  offset="1" style="stop-color:#1C3857"/>
	</linearGradient>
	<rect y="330.9" class="st58" width="24" height="439.5"/>
	<g>
		<rect x="1349.4" y="238.1" class="st1" width="18.3" height="24.5"/>
		<rect x="1362" y="238.1" class="st6" width="5.7" height="23.5"/>
	</g>
	<g>
		<rect x="1375" y="233.1" class="st1" width="18.3" height="24.5"/>
		<rect x="1387.7" y="233.1" class="st6" width="5.7" height="23.5"/>
	</g>
	<linearGradient id="SVGID_18_" gradientUnits="userSpaceOnUse" x1="1540.001" y1="770.3857" x2="1540.001" y2="531.2911">
		<stop  offset="0.1212" style="stop-color:#1A2344"/>
		<stop  offset="1" style="stop-color:#165A82"/>
	</linearGradient>
	<polygon class="st59" points="1599.4,622.8 1599.4,531.3 1416.6,531.3 1416.6,770.4 1588.4,770.4 1599.4,770.4 1663.4,770.4 
		1663.4,622.8 	"/>
	<rect x="915.4" y="424.9" class="st60" width="11.5" height="34.5"/>
	<polygon class="st61" points="926.9,424.9 926.9,452.4 1116.7,452.4 1116.7,500.4 984.7,661.7 915.4,661.7 915.4,424.9 	"/>
	<linearGradient id="SVGID_19_" gradientUnits="userSpaceOnUse" x1="1071.5005" y1="770.3857" x2="1071.5005" y2="443.7198">
		<stop  offset="0" style="stop-color:#131433"/>
		<stop  offset="1" style="stop-color:#182140"/>
	</linearGradient>
	<polygon class="st62" points="1110,477.7 1110,443.7 1051.7,484.4 1051.7,510.7 1020,528.6 1020,770.4 1123,770.4 1123,470.4 	"/>
	<linearGradient id="SVGID_20_" gradientUnits="userSpaceOnUse" x1="1116.5005" y1="770.3857" x2="1116.5005" y2="443.7198">
		<stop  offset="0.1152" style="stop-color:#1B2549"/>
		<stop  offset="1" style="stop-color:#2F7A7C"/>
	</linearGradient>
	<rect x="1110" y="443.7" class="st63" width="12.9" height="326.7"/>
	<polygon class="st64" points="1530,531.3 1530,496.4 1500.4,470.1 1470.4,494.7 1470.4,531.3 	"/>
	<polygon class="st65" points="1421,488.3 1500.5,469.7 1470.4,494.7 1399.5,508.8 	"/>
	<rect x="1334" y="245.7" class="st66" width="74" height="45.6"/>
	<rect x="1343.1" y="252.1" class="st1" width="8" height="26.5"/>
	<rect x="1358.9" y="252.1" class="st1" width="8" height="26.5"/>
	<rect x="1374.6" y="252.1" class="st1" width="8" height="26.5"/>
	<rect x="1390.4" y="252.1" class="st1" width="8" height="26.5"/>
	<rect x="1334" y="245.7" class="st67" width="74" height="41.6"/>
	<polygon class="st68" points="652.4,531.3 652.4,519.4 636.9,519.4 636.9,509.9 544.7,509.9 544.7,531.3 	"/>
	<linearGradient id="SVGID_21_" gradientUnits="userSpaceOnUse" x1="126.4507" y1="770.3857" x2="126.4507" y2="536.3868">
		<stop  offset="0.1212" style="stop-color:#182140"/>
		<stop  offset="1" style="stop-color:#183D54"/>
	</linearGradient>
	<rect x="68.9" y="536.4" class="st69" width="115.1" height="234"/>
	<polygon class="st70" points="378,154.4 403,175.7 378,175.7 	"/>
	<polygon class="st71" points="1500.5,469.7 1531.9,498.2 1531.9,500.8 1500.4,472.2 1470.4,497.6 1470.4,494.7 	"/>
	<polygon class="st72" points="1470.4,497.6 1399.5,510.8 1399.5,508.8 1470.4,494.7 	"/>
	<polygon class="st28" points="1470.4,505.2 1499.5,479.7 1530,505.4 1530,529.3 1470.2,529.3 	"/>
	<polygon class="st6" points="1638,598.9 1638,566.7 1631.2,554.2 1647.3,567 1647.3,598.9 	"/>
	<polygon class="st42" points="285.9,346.3 298.5,346.3 303.1,361.8 365.6,361.8 428.7,539.6 457,514.4 457,191.7 285.9,191.7 	"/>
	<polygon class="st73" points="1123,549.4 1110,565.8 1110,484.1 1123,484.1 	"/>
	<rect x="1110" y="443.9" class="st73" width="12.9" height="30.5"/>
	<rect x="303.3" y="171.7" class="st3" width="74.7" height="4"/>
	<polygon class="st74" points="1171.4,307.5 1171.4,770.4 1162.4,770.4 1162.4,316.5 	"/>
	<polygon class="st74" points="1156.6,322.4 1156.6,770.4 1147.6,770.4 1147.6,331.4 	"/>
	<polygon class="st74" points="1142.4,336.4 1142.4,770.4 1133.9,770.4 1133.9,344.9 	"/>
	<g>
		<g>
			<rect x="1461.5" y="558.4" class="st37" width="9.8" height="21.8"/>
			<rect x="1430.1" y="558.4" class="st52" width="9.8" height="21.8"/>
			<rect x="1578.4" y="558.4" class="st52" width="9.8" height="21.8"/>
			<rect x="1474.1" y="558.4" class="st37" width="9.8" height="21.8"/>
			<rect x="1486.7" y="558.4" class="st37" width="9.8" height="21.8"/>
			<rect x="1524" y="558.4" class="st41" width="9.8" height="21.8"/>
			<rect x="1536.6" y="558.4" class="st41" width="9.8" height="21.8"/>
			<rect x="1549.2" y="558.4" class="st41" width="9.8" height="21.8"/>
		</g>
		<g>
			<rect x="1461.5" y="600.9" class="st41" width="9.8" height="21.8"/>
			<rect x="1430.1" y="600.9" class="st12" width="9.8" height="21.8"/>
			<rect x="1578.4" y="600.9" class="st52" width="9.8" height="21.8"/>
			<rect x="1474.1" y="600.9" class="st41" width="9.8" height="21.8"/>
			<rect x="1486.7" y="600.9" class="st41" width="9.8" height="21.8"/>
			<rect x="1524" y="600.9" class="st12" width="9.8" height="21.8"/>
			<rect x="1536.6" y="600.9" class="st12" width="9.8" height="21.8"/>
			<rect x="1549.2" y="600.9" class="st12" width="9.8" height="21.8"/>
		</g>
		<g>
			<rect x="1461.5" y="643.4" class="st37" width="9.8" height="21.8"/>
			<rect x="1430.1" y="643.4" class="st40" width="9.8" height="21.8"/>
			<rect x="1578.4" y="643.4" class="st40" width="9.8" height="21.8"/>
			<rect x="1474.1" y="643.4" class="st37" width="9.8" height="21.8"/>
			<rect x="1486.7" y="643.4" class="st37" width="9.8" height="21.8"/>
			<rect x="1524" y="643.4" class="st41" width="9.8" height="21.8"/>
			<rect x="1536.6" y="643.4" class="st41" width="9.8" height="21.8"/>
			<rect x="1549.2" y="643.4" class="st41" width="9.8" height="21.8"/>
			<rect x="1609" y="643.4" class="st12" width="9.8" height="21.8"/>
			<rect x="1621.6" y="643.4" class="st12" width="9.8" height="21.8"/>
			<rect x="1634.2" y="643.4" class="st12" width="9.8" height="21.8"/>
		</g>
		<g>
			<rect x="1461.5" y="685.9" class="st12" width="9.8" height="21.8"/>
			<rect x="1430.1" y="685.9" class="st12" width="9.8" height="21.8"/>
			<rect x="1578.4" y="685.9" class="st41" width="9.8" height="21.8"/>
			<rect x="1474.1" y="685.9" class="st12" width="9.8" height="21.8"/>
			<rect x="1486.7" y="685.9" class="st12" width="9.8" height="21.8"/>
			<rect x="1524" y="685.9" class="st37" width="9.8" height="21.8"/>
			<rect x="1536.6" y="685.9" class="st37" width="9.8" height="21.8"/>
			<rect x="1549.2" y="685.9" class="st40" width="9.8" height="21.8"/>
			<rect x="1609" y="685.9" class="st41" width="9.8" height="21.8"/>
			<rect x="1621.6" y="685.9" class="st41" width="9.8" height="21.8"/>
			<rect x="1634.2" y="685.9" class="st41" width="9.8" height="21.8"/>
		</g>
		<g>
			<rect x="1461.5" y="728.4" class="st52" width="9.8" height="21.8"/>
			<rect x="1430.1" y="728.4" class="st41" width="9.8" height="21.8"/>
			<rect x="1578.4" y="728.4" class="st12" width="9.8" height="21.8"/>
			<rect x="1474.1" y="728.4" class="st37" width="9.8" height="21.8"/>
			<rect x="1486.7" y="728.4" class="st37" width="9.8" height="21.8"/>
			<rect x="1524" y="728.4" class="st41" width="9.8" height="21.8"/>
			<rect x="1536.6" y="728.4" class="st41" width="9.8" height="21.8"/>
			<rect x="1549.2" y="728.4" class="st41" width="9.8" height="21.8"/>
			<rect x="1609" y="728.4" class="st52" width="9.8" height="21.8"/>
			<rect x="1621.6" y="728.4" class="st52" width="9.8" height="21.8"/>
			<rect x="1634.2" y="728.4" class="st52" width="9.8" height="21.8"/>
		</g>
	</g>
	<g>
		<polygon class="st75" points="1355.4,565.4 1344.9,566.5 1344.9,587.7 1355.4,587 		"/>
		<polygon class="st23" points="1376.9,563.2 1365.4,564.4 1365.4,586.5 1376.9,585.8 		"/>
		<polygon class="st22" points="1401.9,560.6 1387.9,562 1387.9,585.1 1401.9,584.3 		"/>
		<polygon class="st12" points="1326.9,568.4 1326.9,588.8 1335.4,588.2 1335.4,567.5 		"/>
		<polygon class="st76" points="1355.4,602.8 1344.9,603 1344.9,622.8 1355.4,622.9 		"/>
		<polygon class="st23" points="1376.9,602.2 1365.4,602.5 1365.4,623 1376.9,623.2 		"/>
		<polygon class="st12" points="1401.9,601.5 1387.9,601.9 1387.9,623.3 1401.9,623.5 		"/>
		<polygon class="st22" points="1326.9,603.5 1326.9,622.5 1335.4,622.6 1335.4,603.3 		"/>
		<polygon class="st75" points="1326.9,639.8 1326.9,658.3 1335.4,659 1335.4,640.3 		"/>
		<polygon class="st22" points="1401.9,643.6 1387.9,642.9 1387.9,663.8 1401.9,665.1 		"/>
		<polygon class="st23" points="1355.4,641.3 1344.9,640.7 1344.9,659.9 1355.4,660.8 		"/>
		<polygon class="st12" points="1376.9,642.4 1365.4,641.8 1365.4,661.7 1376.9,662.8 		"/>
		<polygon class="st12" points="1326.9,675.6 1326.9,692.9 1335.4,694.3 1335.4,676.6 		"/>
		<polygon class="st23" points="1355.4,679.2 1344.9,677.9 1344.9,695.8 1355.4,697.6 		"/>
		<polygon class="st76" points="1376.9,682 1365.4,680.5 1365.4,699.2 1376.9,701.1 		"/>
		<polygon class="st23" points="1401.9,688.2 1387.9,686.4 1387.9,706 1401.9,708.3 		"/>
		<polygon class="st22" points="1355.4,716.5 1344.9,714.4 1344.9,732.9 1355.4,735.4 		"/>
		<polygon class="st12" points="1376.9,720.9 1365.4,718.6 1365.4,737.8 1376.9,740.6 		"/>
		<polygon class="st22" points="1401.9,726 1387.9,723.2 1387.9,743.3 1401.9,746.7 		"/>
		<polygon class="st23" points="1326.9,710.7 1326.9,728.5 1335.4,730.6 1335.4,712.5 		"/>
	</g>
	<polygon class="st77" points="1599.4,532.6 1599.4,528.4 1416.6,528.4 1416.6,532.8 	"/>
	<polygon class="st78" points="1416.6,528.4 1318.9,543.2 1318.9,545.9 1416.6,532.8 	"/>
	<rect x="1599.4" y="618.1" class="st77" width="64" height="4.7"/>
	<polygon class="st79" points="1453.4,362.2 1433.7,362.2 1426.7,373.5 1329.5,373.5 1218.3,566.5 1200.6,531 1187.4,531 
		1187.4,291.3 1453.4,291.3 	"/>
	<rect x="1487.9" y="497.9" class="st12" width="11" height="12.5"/>
	<rect x="1501.4" y="497.9" class="st12" width="11" height="12.5"/>
	<polygon class="st28" points="1663.4,622.8 1599.4,622.8 1599.4,531.3 1416.6,532.8 1416.6,750.3 1484.9,750.3 1529.9,678.3 
		1589.9,678.3 1609.4,648.3 1663.4,648.3 	"/>
	<path class="st80" d="M1445.5,502.2c0.2,0,0,26.1,0,26.1h-6.4v-25L1445.5,502.2z"/>
	<polygon class="st74" points="1051.7,510.7 1110,477.7 1110,474.1 1051.7,507.4 	"/>
	<polygon class="st74" points="1067.9,501.5 1067.9,770.4 1060.6,770.4 1060.6,505.7 	"/>
	<polygon class="st74" points="1058.1,507.1 1058.1,770.4 1050.8,770.4 1050.8,511.2 	"/>
	<polygon class="st74" points="1097.4,484.8 1097.4,770.4 1089,770.4 1089,489.5 	"/>
	<polygon class="st74" points="1086.1,491.2 1086.1,770.4 1077.7,770.4 1077.7,496 	"/>
	<polygon class="st74" points="1043,515.6 1043,770.4 1036.6,770.4 1036.6,519.2 	"/>
	<polygon class="st74" points="1034.4,520.4 1034.4,770.4 1028,770.4 1028,524.1 	"/>
	<polygon class="st81" points="227.3,559.3 227.3,538.4 216.4,538.4 216.4,558.2 	"/>
	<rect x="215.4" y="504" class="st12" width="13" height="4.8"/>
	<rect x="192.9" y="504" class="st12" width="13" height="4.8"/>
	<rect x="170.4" y="504" class="st12" width="13" height="4.8"/>
	<rect x="147.9" y="504" class="st10" width="13" height="4.8"/>
	<g>
		<rect x="84.7" y="567.4" class="st41" width="13.7" height="18.5"/>
		<rect x="116.7" y="567.4" class="st37" width="13.7" height="18.5"/>
		<rect x="148.7" y="567.4" class="st52" width="13.7" height="18.5"/>
		<rect x="84.7" y="609.4" class="st12" width="13.7" height="18.5"/>
		<rect x="116.7" y="609.4" class="st11" width="13.7" height="18.5"/>
		<rect x="148.7" y="609.4" class="st41" width="13.7" height="18.5"/>
		<rect x="84.7" y="651.4" class="st37" width="13.7" height="18.5"/>
		<rect x="116.7" y="651.4" class="st41" width="13.7" height="18.5"/>
		<rect x="148.7" y="651.4" class="st12" width="13.7" height="18.5"/>
		<rect x="84.7" y="693.4" class="st52" width="13.7" height="18.5"/>
		<rect x="116.7" y="693.4" class="st12" width="13.7" height="18.5"/>
		<rect x="148.7" y="693.4" class="st37" width="13.7" height="18.5"/>
		<rect x="84.7" y="735.4" class="st12" width="13.7" height="18.5"/>
		<rect x="116.7" y="735.4" class="st41" width="13.7" height="18.5"/>
		<rect x="148.7" y="735.4" class="st12" width="13.7" height="18.5"/>
	</g>
	<rect x="779.6" y="531.3" class="st8" width="36.1" height="239.1"/>
	<rect x="726.8" y="531.3" class="st8" width="36.1" height="239.1"/>
	<rect x="685.3" y="531.3" class="st8" width="15.6" height="239.1"/>
	<rect x="526.4" y="531.3" class="st8" width="15.6" height="239.1"/>
	<rect x="621" y="531.3" class="st8" width="36.1" height="239.1"/>
	<rect x="568.2" y="531.3" class="st8" width="36.1" height="239.1"/>
	<g>
		<g>
			<rect x="784.1" y="559.2" class="st52" width="7.9" height="25.4"/>
			<rect x="804.6" y="559.2" class="st82" width="7.9" height="25.4"/>
		</g>
		<g>
			<rect x="784.1" y="615.9" class="st41" width="7.9" height="25.4"/>
			<rect x="804.6" y="615.9" class="st12" width="7.9" height="25.4"/>
		</g>
		<g>
			<rect x="784.1" y="672.6" class="st82" width="7.9" height="25.4"/>
			<rect x="804.6" y="672.6" class="st52" width="7.9" height="25.4"/>
		</g>
		<g>
			<rect x="784.1" y="729.4" class="st12" width="7.9" height="25.4"/>
			<rect x="804.6" y="729.4" class="st12" width="7.9" height="25.4"/>
		</g>
		<g>
			<rect x="731.3" y="559.2" class="st41" width="7.9" height="25.4"/>
			<rect x="751.7" y="559.2" class="st12" width="7.9" height="25.4"/>
		</g>
		<g>
			<rect x="731.3" y="615.9" class="st82" width="7.9" height="25.4"/>
			<rect x="751.7" y="615.9" class="st52" width="7.9" height="25.4"/>
		</g>
		<g>
			<rect x="731.3" y="672.6" class="st41" width="7.9" height="25.4"/>
			<rect x="751.7" y="672.6" class="st8" width="7.9" height="25.4"/>
		</g>
		<g>
			<rect x="731.3" y="729.4" class="st41" width="7.9" height="25.4"/>
			<rect x="751.7" y="729.4" class="st12" width="7.9" height="25.4"/>
		</g>
		<g>
			<rect x="689.3" y="559.2" class="st52" width="7.9" height="25.4"/>
		</g>
		<g class="st83">
			<rect x="689.3" y="615.9" class="st84" width="7.9" height="25.4"/>
		</g>
		<g>
			<rect x="689.3" y="672.6" class="st41" width="7.9" height="25.4"/>
		</g>
		<g class="st85">
			<rect x="689.3" y="729.4" class="st8" width="7.9" height="25.4"/>
		</g>
		<g>
			<rect x="530.5" y="559.2" class="st52" width="7.9" height="25.4"/>
		</g>
		<g class="st83">
			<rect x="530.5" y="615.9" class="st84" width="7.9" height="25.4"/>
		</g>
		<g>
			<rect x="530.5" y="672.6" class="st82" width="7.9" height="25.4"/>
		</g>
		<g>
			<rect x="530.5" y="729.4" class="st12" width="7.9" height="25.4"/>
		</g>
		<g>
			<rect x="625.5" y="559.2" class="st52" width="7.9" height="25.4"/>
			<rect x="646" y="559.2" class="st82" width="7.9" height="25.4"/>
		</g>
		<g>
			<rect x="625.5" y="615.9" class="st82" width="7.9" height="25.4"/>
			<rect x="646" y="615.9" class="st52" width="7.9" height="25.4"/>
		</g>
		<g>
			<rect x="625.5" y="672.6" class="st41" width="7.9" height="25.4"/>
			<rect x="646" y="672.6" class="st52" width="7.9" height="25.4"/>
		</g>
		<g>
			<rect x="625.5" y="729.4" class="st41" width="7.9" height="25.4"/>
			<rect x="646" y="729.4" class="st52" width="7.9" height="25.4"/>
		</g>
		<g>
			<rect x="572.7" y="559.2" class="st40" width="7.9" height="25.4"/>
			<rect x="593.1" y="559.2" class="st12" width="7.9" height="25.4"/>
		</g>
		<g>
			<rect x="572.7" y="615.9" class="st41" width="7.9" height="25.4"/>
			<rect x="593.1" y="615.9" class="st52" width="7.9" height="25.4"/>
		</g>
		<g class="st85">
			<rect x="572.7" y="672.6" class="st12" width="7.9" height="25.4"/>
			<rect x="593.1" y="672.6" class="st41" width="7.9" height="25.4"/>
		</g>
		<g>
			<rect x="572.7" y="729.4" class="st41" width="7.9" height="25.4"/>
			<rect x="593.1" y="729.4" class="st12" width="7.9" height="25.4"/>
		</g>
	</g>
	<polygon class="st86" points="514.4,577.7 537.7,577.7 546.1,585.1 685,585.1 808.7,711.4 829.5,688.2 829.5,491.4 815.7,491.4 
		815.7,531.3 514.4,531.3 	"/>
	<polygon class="st12" points="243.5,686.8 196.2,691.8 195.2,588 198.7,582.4 243.5,589.6 246,682 	"/>
	<polygon class="st87" points="246,682 198.7,687.1 198.7,582.4 246,584.8 	"/>
	<polygon class="st88" points="69.9,536.4 184,536.4 184,685.9 139,685.9 107.9,635.8 69.9,635.8 	"/>
	<polygon class="st88" points="24,330.9 24,472.4 58.7,472.4 94.5,520.4 94.5,355 	"/>
	<polygon class="st88" points="165,434.9 189.9,469.4 189.9,364.3 165,355 	"/>
	<rect x="514.4" y="527.4" class="st89" width="301.3" height="3.9"/>
	<g>
		<rect x="1686.3" y="403.9" class="st11" width="21.5" height="23.7"/>
		<rect x="1736.7" y="403.9" class="st12" width="21.5" height="23.7"/>
		<rect x="1787.1" y="403.9" class="st47" width="21.5" height="23.7"/>
		<rect x="1686.3" y="457.6" class="st10" width="21.5" height="23.7"/>
		<rect x="1736.7" y="457.6" class="st11" width="21.5" height="23.7"/>
		<rect x="1787.1" y="457.6" class="st47" width="21.5" height="23.7"/>
		<rect x="1837.5" y="403.9" class="st12" width="21.5" height="23.7"/>
		<rect x="1837.5" y="457.6" class="st54" width="21.5" height="23.7"/>
		<rect x="1686.3" y="511.4" class="st10" width="21.5" height="23.7"/>
		<rect x="1736.7" y="511.4" class="st11" width="21.5" height="23.7"/>
		<rect x="1787.1" y="511.4" class="st12" width="21.5" height="23.7"/>
		<rect x="1686.3" y="565.1" class="st12" width="21.5" height="23.7"/>
		<rect x="1736.7" y="565.1" class="st47" width="21.5" height="23.7"/>
		<rect x="1787.1" y="565.1" class="st11" width="21.5" height="23.7"/>
		<rect x="1686.3" y="618.9" class="st47" width="21.5" height="23.7"/>
		<rect x="1736.7" y="618.9" class="st11" width="21.5" height="23.7"/>
		<rect x="1787.1" y="618.9" class="st10" width="21.5" height="23.7"/>
		<rect x="1686.3" y="673.5" class="st11" width="21.5" height="23.7"/>
		<rect x="1736.7" y="673.5" class="st47" width="21.5" height="23.7"/>
		<rect x="1787.1" y="673.5" class="st12" width="21.5" height="23.7"/>
		<rect x="1686.3" y="727.3" class="st12" width="21.5" height="23.7"/>
		<rect x="1736.7" y="727.3" class="st10" width="21.5" height="23.7"/>
		<rect x="1787.1" y="727.3" class="st12" width="21.5" height="23.7"/>
	</g>
</g>
</svg>
