<svg xmlns="http://www.w3.org/2000/svg" xmlns:xlink="http://www.w3.org/1999/xlink" viewBox="0 0 1046.92 537.29"><defs><style>.cls-1{isolation:isolate;}.cls-2{fill:url(#linear-gradient);}.cls-3{fill:#18334b;}.cls-4{fill:url(#linear-gradient-2);}.cls-5{fill:#1e7087;}.cls-45,.cls-46,.cls-6{opacity:0.71;}.cls-7{fill:#255989;opacity:0.66;}.cls-8{fill:#b0a48c;opacity:0.22;}.cls-45,.cls-9{fill:#ad9158;}.cls-10{fill:url(#linear-gradient-3);}.cls-11{fill:url(#linear-gradient-4);}.cls-12{fill:url(#linear-gradient-5);}.cls-13{fill:url(#linear-gradient-6);}.cls-14,.cls-40{fill:#780d78;mix-blend-mode:multiply;}.cls-14{opacity:0.41;}.cls-15{fill:#257da3;}.cls-16{fill:#183048;}.cls-17{fill:#184052;}.cls-18{fill:#99886b;}.cls-19{fill:#2b76a1;}.cls-20{fill:#784e42;}.cls-21{fill:#1a3c63;}.cls-22{fill:#161b3a;}.cls-23{fill:#adfff5;}.cls-23,.cls-29,.cls-35,.cls-38,.cls-39,.cls-49{opacity:0.63;mix-blend-mode:overlay;}.cls-24{fill:#a97391;}.cls-25{fill:url(#linear-gradient-7);}.cls-26{fill:#3090b8;}.cls-27{fill:url(#linear-gradient-8);}.cls-28{fill:#205369;}.cls-29{fill:#ebe0bd;}.cls-30{fill:url(#linear-gradient-9);}.cls-31{fill:url(#linear-gradient-10);}.cls-32{fill:#1f617d;}.cls-33{fill:#3d6488;}.cls-34{fill:#144b5f;}.cls-35{fill:#f0f0f0;}.cls-36{fill:#a5d4dd;}.cls-37{fill:#2a455e;}.cls-38{fill:#ffe0ca;}.cls-39{fill:#fff;}.cls-40{opacity:0.27;}.cls-41{fill:#ffea8d;}.cls-42{fill:#995946;}.cls-43{fill:#1a6d85;}.cls-44{fill:#fff2fe;}.cls-46{fill:#ad6858;}.cls-47{fill:#7dc7c6;}.cls-48{fill:#343e59;}.cls-49{fill:#f0f0fd;}.cls-50{fill:#233854;}</style><linearGradient id="linear-gradient" x1="1795.33" y1="536.34" x2="1795.33" y2="133.46" gradientTransform="matrix(-1, 0, 0, 1, 1928.29, 0)" gradientUnits="userSpaceOnUse"><stop offset="0.09" stop-color="#1e294f"/><stop offset="1" stop-color="#205369"/></linearGradient><linearGradient id="linear-gradient-2" x1="1603.38" y1="537.29" x2="1603.38" y2="133.46" gradientTransform="matrix(-1, 0, 0, 1, 1928.29, 0)" gradientUnits="userSpaceOnUse"><stop offset="0" stop-color="#131433"/><stop offset="1" stop-color="#182140"/></linearGradient><linearGradient id="linear-gradient-3" x1="1320.42" y1="537.29" x2="1320.42" y2="58.21" xlink:href="#linear-gradient"/><linearGradient id="linear-gradient-4" x1="1155.21" y1="537.29" x2="1155.21" y2="58.21" gradientTransform="matrix(-1, 0, 0, 1, 1928.29, 0)" gradientUnits="userSpaceOnUse"><stop offset="0" stop-color="#131433"/><stop offset="1" stop-color="#203652"/></linearGradient><linearGradient id="linear-gradient-5" x1="1019.17" y1="537.29" x2="1019.17" y2="219.29" gradientTransform="matrix(-1, 0, 0, 1, 1928.29, 0)" gradientUnits="userSpaceOnUse"><stop offset="0.12" stop-color="#1a2344"/><stop offset="1" stop-color="#205369"/></linearGradient><linearGradient id="linear-gradient-6" x1="898.38" y1="537.29" x2="898.38" y2="191.79" gradientTransform="matrix(-1, 0, 0, 1, 1928.29, 0)" gradientUnits="userSpaceOnUse"><stop offset="0" stop-color="#131433"/><stop offset="1" stop-color="#223d5c"/></linearGradient><linearGradient id="linear-gradient-7" x1="1367.76" y1="537.29" x2="1367.76" y2="298.19" gradientTransform="matrix(-1, 0, 0, 1, 1928.29, 0)" gradientUnits="userSpaceOnUse"><stop offset="0" stop-color="#0f1029"/><stop offset="1" stop-color="#1a2445"/></linearGradient><linearGradient id="linear-gradient-8" x1="1540" y1="537.29" x2="1540" y2="298.19" gradientTransform="matrix(-1, 0, 0, 1, 1928.29, 0)" gradientUnits="userSpaceOnUse"><stop offset="0.12" stop-color="#1a2344"/><stop offset="1" stop-color="#165a82"/></linearGradient><linearGradient id="linear-gradient-9" x1="1071.5" y1="537.29" x2="1071.5" y2="210.62" xlink:href="#linear-gradient-2"/><linearGradient id="linear-gradient-10" x1="1116.5" y1="537.29" x2="1116.5" y2="210.62" gradientTransform="matrix(-1, 0, 0, 1, 1928.29, 0)" gradientUnits="userSpaceOnUse"><stop offset="0.12" stop-color="#1b2549"/><stop offset="1" stop-color="#2f7a7c"/></linearGradient></defs><title>city-back--2</title><g class="cls-1"><g id="Слой_2" data-name="Слой 2"><g id="art"><rect class="cls-2" y="133.46" width="265.92" height="402.87"/><polygon class="cls-3" points="594.25 12.62 653.24 59.21 594.25 59.21 594.25 12.62"/><polygon class="cls-4" points="384.92 537.29 264.92 537.29 264.92 133.46 384.92 171.03 384.92 537.29"/><rect class="cls-5" x="616.58" y="46.67" width="36.67" height="24.5"/><polygon class="cls-3" points="653.25 46.67 670.92 58.62 653.25 58.62 653.25 46.67"/><g class="cls-6"><polygon class="cls-7" points="337.25 189.18 347.75 191.67 347.75 212.84 337.25 210.81 337.25 189.18"/><polygon class="cls-8" points="315.75 184.08 327.25 186.81 327.25 208.88 315.75 206.66 315.75 184.08"/><polygon class="cls-9" points="290.75 178.15 304.75 181.47 304.75 204.54 290.75 201.84 290.75 178.15"/><polygon class="cls-9" points="365.75 195.94 365.75 216.32 357.25 214.68 357.25 193.93 365.75 195.94"/><polygon class="cls-8" points="337.25 226.52 347.75 228.21 347.75 247.93 337.25 246.67 337.25 226.52"/><polygon class="cls-9" points="315.75 223.06 327.25 224.91 327.25 245.47 315.75 244.09 315.75 223.06"/><polygon class="cls-7" points="290.75 219.03 304.75 221.29 304.75 242.77 290.75 241.09 290.75 219.03"/><polygon class="cls-9" points="365.75 231.12 365.75 250.09 357.25 249.07 357.25 229.75 365.75 231.12"/><polygon class="cls-7" points="365.75 267.4 365.75 285.82 357.25 285.46 357.25 266.7 365.75 267.4"/><polygon class="cls-7" points="290.75 261.21 304.75 262.36 304.75 283.22 290.75 282.62 290.75 261.21"/><polygon class="cls-7" points="337.25 265.05 347.75 265.91 347.75 285.06 337.25 284.61 337.25 265.05"/><polygon class="cls-9" points="315.75 263.27 327.25 264.22 327.25 284.18 315.75 283.69 315.75 263.27"/><polygon class="cls-9" points="365.75 303.13 365.75 320.44 357.25 320.71 357.25 303.08 365.75 303.13"/><polygon class="cls-9" points="337.25 302.98 347.75 303.03 347.75 321.01 337.25 321.35 337.25 302.98"/><polygon class="cls-8" points="315.75 302.86 327.25 302.93 327.25 321.67 315.75 322.04 315.75 302.86"/><polygon class="cls-9" points="290.75 302.73 304.75 302.81 304.75 322.39 290.75 322.85 290.75 302.73"/><polygon class="cls-9" points="337.25 340.32 347.75 339.57 347.75 358.04 337.25 359.19 337.25 340.32"/><polygon class="cls-7" points="315.75 341.84 327.25 341.02 327.25 360.28 315.75 361.54 315.75 341.84"/><polygon class="cls-9" points="290.75 343.61 304.75 342.62 304.75 362.74 290.75 364.27 290.75 343.61"/><polygon class="cls-9" points="365.75 338.3 365.75 356.08 357.25 357 357.25 338.9 365.75 338.3"/></g><rect class="cls-10" x="474.92" y="58.21" width="265.92" height="479.08"/><polygon class="cls-11" points="740.84 58.21 805.34 122.7 805.34 537.29 740.84 537.29 740.84 58.21"/><rect class="cls-12" x="805.33" y="219.29" width="207.58" height="318"/><polygon class="cls-13" points="1046.92 537.29 1012.92 537.29 1012.92 191.79 1046.92 322.35 1046.92 537.29"/><rect class="cls-14" x="669" y="72.29" width="30.85" height="465"/><rect class="cls-14" x="707.34" y="72.29" width="18" height="465"/><rect class="cls-14" x="519.15" y="72.29" width="30.85" height="465"/><rect class="cls-14" x="493.67" y="72.29" width="18" height="465"/><rect class="cls-14" x="593.67" y="72.29" width="30.85" height="465"/><rect class="cls-14" x="632" y="72.29" width="18" height="465"/><rect class="cls-14" x="568.67" y="72.29" width="18" height="465"/><rect class="cls-3" x="558.75" y="297.08" width="18.33" height="24.5"/><rect class="cls-15" x="558.75" y="297.08" width="5.67" height="23.45"/><rect class="cls-3" x="340.42" y="289.2" width="18.33" height="24.5"/><rect class="cls-15" x="340.42" y="289.2" width="5.67" height="23.45"/><rect class="cls-3" x="362.42" y="289.2" width="18.33" height="24.5"/><rect class="cls-15" x="362.42" y="289.2" width="5.67" height="23.45"/><rect class="cls-16" x="308.7" y="365.78" width="2.58" height="25.88"/><rect class="cls-16" x="282.98" y="365.78" width="2.58" height="25.88"/><rect class="cls-16" x="295.67" y="359.44" width="2.72" height="36.28" transform="translate(-179.98 320.51) rotate(-44.99)"/><rect class="cls-16" x="279.02" y="376.22" width="36.28" height="2.73" transform="translate(-179.95 320.72) rotate(-45)"/><polygon class="cls-17" points="297.13 321.05 313.28 333.91 313.28 365.78 280.98 365.78 280.98 333.91 297.13 321.05"/><rect class="cls-18" x="712.09" y="89.29" width="13.25" height="23.33"/><rect class="cls-19" x="674.42" y="89.29" width="25.44" height="23.33"/><rect class="cls-14" x="636.75" y="89.29" width="13.25" height="23.33"/><rect class="cls-20" x="573.42" y="89.29" width="13.25" height="23.33"/><rect class="cls-18" x="599.09" y="89.29" width="25.44" height="23.33"/><rect class="cls-19" x="498.42" y="89.29" width="13.25" height="23.33"/><rect class="cls-14" x="524.57" y="89.29" width="25.44" height="23.33"/><rect class="cls-18" x="712.09" y="132.79" width="13.25" height="23.33"/><rect class="cls-20" x="674.42" y="132.79" width="25.44" height="23.33"/><rect class="cls-21" x="636.75" y="132.79" width="13.25" height="23.33"/><rect class="cls-18" x="573.42" y="132.79" width="13.25" height="23.33"/><rect class="cls-19" x="599.09" y="132.79" width="25.44" height="23.33"/><rect class="cls-20" x="498.42" y="132.79" width="13.25" height="23.33"/><rect class="cls-18" x="524.57" y="132.79" width="25.44" height="23.33"/><rect class="cls-14" x="712.09" y="176.29" width="13.25" height="23.33"/><rect class="cls-21" x="674.42" y="176.29" width="25.44" height="23.33"/><rect class="cls-19" x="636.75" y="176.29" width="13.25" height="23.33"/><rect class="cls-19" x="573.42" y="176.29" width="13.25" height="23.33"/><rect class="cls-14" x="599.09" y="176.29" width="25.44" height="23.33"/><rect class="cls-21" x="498.42" y="176.29" width="13.25" height="23.33"/><rect class="cls-21" x="524.57" y="176.29" width="25.44" height="23.33"/><rect class="cls-21" x="712.09" y="219.79" width="13.25" height="23.33"/><rect class="cls-14" x="674.42" y="219.79" width="25.44" height="23.33"/><rect class="cls-14" x="636.75" y="219.79" width="13.25" height="23.33"/><rect class="cls-14" x="573.42" y="219.79" width="13.25" height="23.33"/><rect class="cls-19" x="599.09" y="219.79" width="25.44" height="23.33"/><rect class="cls-14" x="498.42" y="219.79" width="13.25" height="23.33"/><rect class="cls-18" x="524.57" y="219.79" width="25.44" height="23.33"/><rect class="cls-19" x="712.09" y="263.29" width="13.25" height="23.33"/><rect class="cls-21" x="674.42" y="263.29" width="25.44" height="23.33"/><rect class="cls-20" x="636.75" y="263.29" width="13.25" height="23.33"/><rect class="cls-20" x="573.42" y="263.29" width="13.25" height="23.33"/><rect class="cls-18" x="599.09" y="263.29" width="25.44" height="23.33"/><rect class="cls-19" x="498.42" y="263.29" width="13.25" height="23.33"/><rect class="cls-14" x="524.57" y="263.29" width="25.44" height="23.33"/><rect class="cls-20" x="712.09" y="306.79" width="13.25" height="23.33"/><rect class="cls-14" x="674.42" y="306.79" width="25.44" height="23.33"/><rect class="cls-21" x="636.75" y="306.79" width="13.25" height="23.33"/><rect class="cls-19" x="573.42" y="306.79" width="13.25" height="23.33"/><rect class="cls-21" x="599.09" y="306.79" width="25.44" height="23.33"/><rect class="cls-19" x="498.42" y="306.79" width="13.25" height="23.33"/><rect class="cls-19" x="524.57" y="306.79" width="25.44" height="23.33"/><rect class="cls-21" x="712.09" y="350.29" width="13.25" height="23.33"/><rect class="cls-19" x="674.42" y="350.29" width="25.44" height="23.33"/><rect class="cls-19" x="636.75" y="350.29" width="13.25" height="23.33"/><rect class="cls-19" x="573.42" y="350.29" width="13.25" height="23.33"/><rect class="cls-18" x="599.09" y="350.29" width="25.44" height="23.33"/><rect class="cls-19" x="498.42" y="350.29" width="13.25" height="23.33"/><rect class="cls-19" x="524.57" y="350.29" width="25.44" height="23.33"/><rect class="cls-20" x="712.09" y="393.79" width="13.25" height="23.33"/><rect class="cls-18" x="674.42" y="393.79" width="25.44" height="23.33"/><rect class="cls-14" x="636.75" y="393.79" width="13.25" height="23.33"/><rect class="cls-19" x="573.42" y="393.79" width="13.25" height="23.33"/><rect class="cls-21" x="599.09" y="393.79" width="25.44" height="23.33"/><rect class="cls-19" x="498.42" y="393.79" width="13.25" height="23.33"/><rect class="cls-19" x="524.57" y="393.79" width="25.44" height="23.33"/><rect class="cls-19" x="712.09" y="437.29" width="13.25" height="23.33"/><rect class="cls-14" x="674.42" y="437.29" width="25.44" height="23.33"/><rect class="cls-19" x="636.75" y="437.29" width="13.25" height="23.33"/><rect class="cls-19" x="573.42" y="437.29" width="13.25" height="23.33"/><rect class="cls-14" x="599.09" y="437.29" width="25.44" height="23.33"/><rect class="cls-19" x="498.42" y="437.29" width="13.25" height="23.33"/><rect class="cls-19" x="524.57" y="437.29" width="25.44" height="23.33"/><rect class="cls-19" x="712.09" y="480.79" width="13.25" height="23.33"/><rect class="cls-20" x="674.42" y="480.79" width="25.44" height="23.33"/><rect class="cls-21" x="636.75" y="480.79" width="13.25" height="23.33"/><rect class="cls-19" x="573.42" y="480.79" width="13.25" height="23.33"/><rect class="cls-20" x="599.09" y="480.79" width="25.44" height="23.33"/><rect class="cls-19" x="498.42" y="480.79" width="13.25" height="23.33"/><rect class="cls-19" x="524.57" y="480.79" width="25.44" height="23.33"/><rect class="cls-21" x="712.09" y="524.29" width="13.25" height="13"/><rect class="cls-14" x="674.42" y="524.29" width="25.44" height="13"/><rect class="cls-14" x="636.75" y="524.29" width="13.25" height="13"/><rect class="cls-19" x="573.42" y="524.29" width="13.25" height="13"/><rect class="cls-14" x="599.09" y="524.29" width="25.44" height="13"/><rect class="cls-19" x="498.42" y="524.29" width="13.25" height="13"/><rect class="cls-19" x="524.57" y="524.29" width="25.44" height="13"/><polygon class="cls-22" points="525.54 300.04 525.59 275.05 507.29 255.24 427.92 236.95 457.92 261.62 457.92 298.19 525.54 300.04"/><rect class="cls-18" x="985.5" y="251.45" width="13.65" height="18.48"/><rect class="cls-14" x="953.5" y="251.45" width="13.65" height="18.48"/><rect class="cls-19" x="921.49" y="251.45" width="13.65" height="18.48"/><rect class="cls-23" x="985.5" y="293.46" width="13.65" height="18.48"/><rect class="cls-18" x="953.5" y="293.46" width="13.65" height="18.48"/><rect class="cls-19" x="921.49" y="293.46" width="13.65" height="18.48"/><rect class="cls-14" x="889.49" y="251.45" width="13.65" height="18.48"/><rect class="cls-24" x="889.49" y="293.46" width="13.65" height="18.48"/><rect class="cls-23" x="985.5" y="335.46" width="13.65" height="18.48"/><rect class="cls-18" x="953.5" y="335.46" width="13.65" height="18.48"/><rect class="cls-14" x="921.49" y="335.46" width="13.65" height="18.48"/><rect class="cls-14" x="985.5" y="377.46" width="13.65" height="18.48"/><rect class="cls-19" x="953.5" y="377.46" width="13.65" height="18.48"/><rect class="cls-18" x="921.49" y="377.46" width="13.65" height="18.48"/><rect class="cls-19" x="985.5" y="419.47" width="13.65" height="18.48"/><rect class="cls-18" x="953.5" y="419.47" width="13.65" height="18.48"/><rect class="cls-23" x="921.49" y="419.47" width="13.65" height="18.48"/><rect class="cls-18" x="985.5" y="462.13" width="13.65" height="18.48"/><rect class="cls-19" x="953.5" y="462.13" width="13.65" height="18.48"/><rect class="cls-14" x="921.49" y="462.13" width="13.65" height="18.48"/><rect class="cls-14" x="985.5" y="504.13" width="13.65" height="18.48"/><rect class="cls-23" x="953.5" y="504.13" width="13.65" height="18.48"/><rect class="cls-14" x="921.49" y="504.13" width="13.65" height="18.48"/><polygon class="cls-25" points="511.67 537.29 609.41 537.29 609.41 312.09 511.67 298.19 511.67 537.29"/><rect class="cls-3" x="560.59" y="5" width="18.33" height="24.5"/><rect class="cls-26" x="560.59" y="5" width="5.67" height="23.45"/><rect class="cls-3" x="534.92" width="18.33" height="24.5"/><rect class="cls-26" x="534.92" width="5.67" height="23.45"/><polygon class="cls-27" points="328.92 389.69 328.92 298.19 511.67 298.19 511.67 537.29 339.86 537.29 328.92 537.29 264.92 537.29 264.92 389.69 328.92 389.69"/><rect class="cls-28" x="1001.42" y="191.79" width="11.5" height="34.5"/><polygon class="cls-29" points="1001.42 191.79 1001.42 219.29 811.59 219.29 811.59 267.29 943.59 428.62 1012.92 428.62 1012.92 191.79 1001.42 191.79"/><polygon class="cls-30" points="818.25 244.59 818.25 210.62 876.56 251.29 876.56 277.56 908.25 295.47 908.25 537.29 805.34 537.29 805.34 237.29 818.25 244.59"/><rect class="cls-31" x="805.33" y="210.62" width="12.92" height="326.67"/><polygon class="cls-32" points="398.25 298.19 398.25 263.29 427.92 236.95 457.92 261.62 457.92 298.19 398.25 298.19"/><polygon class="cls-33" points="507.29 255.24 427.79 236.6 457.92 261.62 528.82 275.69 507.29 255.24"/><rect class="cls-34" x="520.25" y="12.62" width="74" height="45.59"/><rect class="cls-3" x="577.17" y="19.04" width="8" height="26.5"/><rect class="cls-3" x="561.42" y="19.04" width="8" height="26.5"/><rect class="cls-3" x="545.67" y="19.04" width="8" height="26.5"/><rect class="cls-3" x="529.92" y="19.04" width="8" height="26.5"/><rect class="cls-35" x="520.25" y="12.62" width="74" height="41.59"/><polygon class="cls-36" points="427.79 236.6 396.36 265.06 396.36 267.72 427.92 239.12 457.92 264.54 457.92 261.62 427.79 236.6"/><polygon class="cls-37" points="457.92 264.54 528.82 277.66 528.82 275.69 457.92 261.62 457.92 264.54"/><polygon class="cls-38" points="457.92 272.12 428.75 246.62 398.25 272.29 398.25 296.19 458.09 296.23 457.92 272.12"/><polygon class="cls-26" points="290.25 365.78 290.25 333.62 297.13 321.05 280.98 333.91 280.98 365.78 290.25 365.78"/><polygon class="cls-39" points="805.34 316.29 818.25 332.69 818.25 250.95 805.34 250.95 805.34 316.29"/><rect class="cls-39" x="805.33" y="210.79" width="12.92" height="30.5"/><polygon class="cls-40" points="756.92 74.41 756.92 537.29 765.92 537.29 765.92 83.41 756.92 74.41"/><polygon class="cls-40" points="771.67 89.32 771.67 537.29 780.67 537.29 780.67 98.32 771.67 89.32"/><polygon class="cls-40" points="785.92 103.33 785.92 537.29 794.42 537.29 794.42 111.83 785.92 103.33"/><rect class="cls-41" x="457.04" y="325.29" width="9.75" height="21.8"/><rect class="cls-42" x="488.42" y="325.29" width="9.75" height="21.8"/><rect class="cls-42" x="340.17" y="325.29" width="9.75" height="21.8"/><rect class="cls-41" x="444.42" y="325.29" width="9.75" height="21.8"/><rect class="cls-41" x="431.8" y="325.29" width="9.75" height="21.8"/><rect class="cls-43" x="394.54" y="325.29" width="9.75" height="21.8"/><rect class="cls-43" x="381.92" y="325.29" width="9.75" height="21.8"/><rect class="cls-43" x="369.3" y="325.29" width="9.75" height="21.8"/><rect class="cls-43" x="457.04" y="367.79" width="9.75" height="21.8"/><rect class="cls-14" x="488.42" y="367.79" width="9.75" height="21.8"/><rect class="cls-42" x="340.17" y="367.79" width="9.75" height="21.8"/><rect class="cls-43" x="444.42" y="367.79" width="9.75" height="21.8"/><rect class="cls-43" x="431.8" y="367.79" width="9.75" height="21.8"/><rect class="cls-14" x="394.54" y="367.79" width="9.75" height="21.8"/><rect class="cls-14" x="381.92" y="367.79" width="9.75" height="21.8"/><rect class="cls-14" x="369.3" y="367.79" width="9.75" height="21.8"/><rect class="cls-41" x="457.04" y="410.29" width="9.75" height="21.8"/><rect class="cls-44" x="488.42" y="410.29" width="9.75" height="21.8"/><rect class="cls-44" x="340.17" y="410.29" width="9.75" height="21.8"/><rect class="cls-41" x="444.42" y="410.29" width="9.75" height="21.8"/><rect class="cls-41" x="431.8" y="410.29" width="9.75" height="21.8"/><rect class="cls-43" x="394.54" y="410.29" width="9.75" height="21.8"/><rect class="cls-43" x="381.92" y="410.29" width="9.75" height="21.8"/><rect class="cls-43" x="369.3" y="410.29" width="9.75" height="21.8"/><rect class="cls-14" x="309.54" y="410.29" width="9.75" height="21.8"/><rect class="cls-14" x="296.92" y="410.29" width="9.75" height="21.8"/><rect class="cls-14" x="284.3" y="410.29" width="9.75" height="21.8"/><rect class="cls-14" x="457.04" y="452.79" width="9.75" height="21.8"/><rect class="cls-14" x="488.42" y="452.79" width="9.75" height="21.8"/><rect class="cls-43" x="340.17" y="452.79" width="9.75" height="21.8"/><rect class="cls-14" x="444.42" y="452.79" width="9.75" height="21.8"/><rect class="cls-14" x="431.8" y="452.79" width="9.75" height="21.8"/><rect class="cls-41" x="394.54" y="452.79" width="9.75" height="21.8"/><rect class="cls-41" x="381.92" y="452.79" width="9.75" height="21.8"/><rect class="cls-44" x="369.3" y="452.79" width="9.75" height="21.8"/><rect class="cls-43" x="309.54" y="452.79" width="9.75" height="21.8"/><rect class="cls-43" x="296.92" y="452.79" width="9.75" height="21.8"/><rect class="cls-43" x="284.3" y="452.79" width="9.75" height="21.8"/><rect class="cls-42" x="457.04" y="495.29" width="9.75" height="21.8"/><rect class="cls-43" x="488.42" y="495.29" width="9.75" height="21.8"/><rect class="cls-14" x="340.17" y="495.29" width="9.75" height="21.8"/><rect class="cls-41" x="444.42" y="495.29" width="9.75" height="21.8"/><rect class="cls-41" x="431.8" y="495.29" width="9.75" height="21.8"/><rect class="cls-43" x="394.54" y="495.29" width="9.75" height="21.8"/><rect class="cls-43" x="381.92" y="495.29" width="9.75" height="21.8"/><rect class="cls-43" x="369.3" y="495.29" width="9.75" height="21.8"/><rect class="cls-42" x="309.54" y="495.29" width="9.75" height="21.8"/><rect class="cls-42" x="296.92" y="495.29" width="9.75" height="21.8"/><rect class="cls-42" x="284.3" y="495.29" width="9.75" height="21.8"/><polygon class="cls-45" points="572.92 332.32 583.42 333.41 583.42 354.58 572.92 353.95 572.92 332.32"/><polygon class="cls-8" points="551.42 330.08 562.92 331.28 562.92 353.35 551.42 352.66 551.42 330.08"/><polygon class="cls-7" points="526.42 327.49 540.42 328.94 540.42 352.01 526.42 351.17 526.42 327.49"/><polygon class="cls-14" points="601.42 335.28 601.42 355.65 592.92 355.15 592.92 334.39 601.42 335.28"/><polygon class="cls-46" points="572.92 369.65 583.42 369.95 583.42 389.67 572.92 389.81 572.92 369.65"/><polygon class="cls-8" points="551.42 369.06 562.92 369.38 562.92 389.94 551.42 390.09 551.42 369.06"/><polygon class="cls-14" points="526.42 368.36 540.42 368.75 540.42 390.24 526.42 390.43 526.42 368.36"/><polygon class="cls-7" points="601.42 370.45 601.42 389.43 592.92 389.54 592.92 370.21 601.42 370.45"/><polygon class="cls-45" points="601.42 406.73 601.42 425.16 592.92 425.93 592.92 407.17 601.42 406.73"/><polygon class="cls-7" points="526.42 410.54 540.42 409.83 540.42 430.68 526.42 431.95 526.42 410.54"/><polygon class="cls-8" points="572.92 408.18 583.42 407.65 583.42 426.79 572.92 427.74 572.92 408.18"/><polygon class="cls-14" points="551.42 409.27 562.92 408.69 562.92 428.64 551.42 429.69 551.42 409.27"/><polygon class="cls-14" points="601.42 442.46 601.42 459.77 592.92 461.18 592.92 443.55 601.42 442.46"/><polygon class="cls-8" points="572.92 446.11 583.42 444.77 583.42 462.75 572.92 464.49 572.92 446.11"/><polygon class="cls-46" points="551.42 448.86 562.92 447.39 562.92 466.14 551.42 468.04 551.42 448.86"/><polygon class="cls-8" points="526.42 455.06 540.42 453.27 540.42 472.86 526.42 475.18 526.42 455.06"/><polygon class="cls-7" points="572.92 483.45 583.42 481.31 583.42 499.78 572.92 502.32 572.92 483.45"/><polygon class="cls-14" points="551.42 487.84 562.92 485.49 562.92 504.75 551.42 507.54 551.42 487.84"/><polygon class="cls-7" points="526.42 492.94 540.42 490.08 540.42 510.21 526.42 513.61 526.42 492.94"/><polygon class="cls-8" points="601.42 477.63 601.42 495.41 592.92 497.47 592.92 479.37 601.42 477.63"/><polygon class="cls-47" points="328.92 299.54 328.92 295.29 511.67 295.29 511.67 299.66 328.92 299.54"/><polygon class="cls-48" points="511.67 295.29 609.41 310.09 609.41 312.79 511.67 299.66 511.67 295.29"/><rect class="cls-47" x="264.92" y="384.95" width="64" height="4.74"/><polygon class="cls-49" points="474.92 129.08 494.55 129.08 501.64 140.38 598.84 140.38 709.95 333.41 727.7 297.91 740.88 297.91 740.88 58.21 474.92 58.21 474.92 129.08"/><rect class="cls-14" x="429.42" y="264.79" width="11" height="12.5"/><rect class="cls-14" x="415.92" y="264.79" width="11" height="12.5"/><polygon class="cls-38" points="264.92 389.69 328.92 389.69 328.92 298.19 511.67 299.66 511.67 517.18 443.36 517.18 398.36 445.19 338.36 445.19 318.86 415.19 264.92 415.19 264.92 389.69"/><path class="cls-50" d="M482.8,269.14c-.19,0,0,26.15,0,26.15h6.37v-25Z"/><polygon class="cls-40" points="876.56 277.56 818.25 244.59 818.25 240.95 876.56 274.29 876.56 277.56"/><polygon class="cls-40" points="860.38 268.4 860.38 537.29 867.72 537.29 867.72 272.56 860.38 268.4"/><polygon class="cls-40" points="870.2 273.96 870.2 537.29 877.54 537.29 877.54 278.11 870.2 273.96"/><polygon class="cls-40" points="830.92 251.69 830.92 537.29 839.33 537.29 839.33 256.42 830.92 251.69"/><polygon class="cls-40" points="842.18 258.12 842.18 537.29 850.59 537.29 850.59 262.87 842.18 258.12"/><polygon class="cls-40" points="885.25 282.47 885.25 537.29 891.68 537.29 891.68 286.1 885.25 282.47"/><polygon class="cls-40" points="893.86 287.33 893.86 537.29 900.29 537.29 900.29 290.97 893.86 287.33"/><rect class="cls-18" x="220.47" y="170.76" width="21.49" height="23.66"/><rect class="cls-14" x="170.07" y="170.76" width="21.49" height="23.66"/><rect class="cls-19" x="119.68" y="170.76" width="21.49" height="23.66"/><rect class="cls-23" x="220.47" y="224.52" width="21.49" height="23.66"/><rect class="cls-18" x="170.07" y="224.52" width="21.49" height="23.66"/><rect class="cls-19" x="119.68" y="224.52" width="21.49" height="23.66"/><rect class="cls-14" x="69.29" y="170.76" width="21.49" height="23.66"/><rect class="cls-24" x="69.29" y="224.52" width="21.49" height="23.66"/><rect class="cls-23" x="220.47" y="278.29" width="21.49" height="23.66"/><rect class="cls-18" x="170.07" y="278.29" width="21.49" height="23.66"/><rect class="cls-14" x="119.68" y="278.29" width="21.49" height="23.66"/><rect class="cls-14" x="220.47" y="332.05" width="21.49" height="23.66"/><rect class="cls-19" x="170.07" y="332.05" width="21.49" height="23.66"/><rect class="cls-18" x="119.68" y="332.05" width="21.49" height="23.66"/><rect class="cls-19" x="220.47" y="385.81" width="21.49" height="23.66"/><rect class="cls-18" x="170.07" y="385.81" width="21.49" height="23.66"/><rect class="cls-23" x="119.68" y="385.81" width="21.49" height="23.66"/><rect class="cls-18" x="220.47" y="440.42" width="21.49" height="23.66"/><rect class="cls-19" x="170.07" y="440.42" width="21.49" height="23.66"/><rect class="cls-14" x="119.68" y="440.42" width="21.49" height="23.66"/><rect class="cls-14" x="220.47" y="494.18" width="21.49" height="23.66"/><rect class="cls-23" x="170.07" y="494.18" width="21.49" height="23.66"/><rect class="cls-14" x="119.68" y="494.18" width="21.49" height="23.66"/></g></g></g></svg>