<?xml version="1.0" encoding="utf-8"?>
<!-- Generator: Adobe Illustrator 22.1.0, SVG Export Plug-In . SVG Version: 6.00 Build 0)  -->
<svg version="1.1" id="art" xmlns="http://www.w3.org/2000/svg" xmlns:xlink="http://www.w3.org/1999/xlink" x="0px" y="0px"
	 viewBox="0 0 1663.4 766.9" style="enable-background:new 0 0 1663.4 766.9;" xml:space="preserve">
<style type="text/css">
	.st0{fill:#182C4B;}
	.st1{fill:#18385A;}
	.st2{fill:#173352;}
	.st3{fill:#206887;}
	.st4{fill:url(#SVGID_1_);}
	.st5{fill:#1A576B;}
	.st6{fill:#18334B;}
	.st7{fill:url(#SVGID_2_);}
	.st8{fill:#204E69;}
	.st9{fill:#257DA3;}
	.st10{fill:#1C3D5C;}
	.st11{fill:url(#SVGID_3_);}
	.st12{opacity:0.4;fill:#184052;}
	.st13{fill:#1F7083;}
	.st14{fill:#2F94A7;}
</style>
<g>
	<g>
		<g>
			<polygon class="st0" points="204.4,319.9 204.4,290.4 198.4,290.4 198.4,272.9 190.6,272.9 190.6,263.9 185.7,263.9 181.9,227.9 
				180.5,227.9 179.5,201.5 178,201.5 177,227.9 175.7,227.9 171.8,263.9 166.9,263.9 166.9,272.9 159.2,272.9 159.2,290.4 
				153.2,290.4 153.2,319.9 144.2,319.9 144.2,766.9 213.4,766.9 213.4,319.9 			"/>
		</g>
		<rect x="233.9" y="436.3" class="st1" width="115.1" height="139.5"/>
	</g>
	<g>
		<polygon class="st2" points="1477.4,227.5 1532.2,227.5 1532.2,160.9 1477.4,200 		"/>
		<rect x="1532.2" y="160.9" class="st3" width="67" height="42.7"/>
		<linearGradient id="SVGID_1_" gradientUnits="userSpaceOnUse" x1="1566.1758" y1="766.8672" x2="1566.1758" y2="196.7881">
			<stop  offset="0" style="stop-color:#39ACBF"/>
			<stop  offset="0.9879" style="stop-color:#206887"/>
		</linearGradient>
		<rect x="1499" y="196.8" class="st4" width="134.4" height="570.1"/>
		<g>
			<g>
				<rect x="1521" y="206.9" class="st5" width="14" height="318"/>
			</g>
			<g>
				<rect x="1550.7" y="206.9" class="st5" width="6" height="318"/>
			</g>
			<g>
				<rect x="1563.9" y="206.9" class="st5" width="6" height="318"/>
			</g>
			<g>
				<rect x="1577.7" y="206.9" class="st5" width="6" height="318"/>
			</g>
			<g>
				<rect x="1597.4" y="206.9" class="st5" width="14" height="318"/>
			</g>
		</g>
		<polygon class="st2" points="1429.4,243.1 1429.4,766.9 1499,766.9 1499,196.8 		"/>
	</g>
	<g>
		<rect x="1020" y="415.3" class="st1" width="103" height="63"/>
		<rect x="1042.7" y="400.8" class="st1" width="43.3" height="26.5"/>
		<polygon class="st6" points="965.5,431 953.4,436.5 953.4,450.3 977.5,450.3 977.5,436.5 		"/>
	</g>
	<g>
		<g>
			<polygon class="st1" points="558.7,410.7 551,416.2 551,429.7 566.4,429.7 566.4,416.2 			"/>
			<rect x="553" y="429.7" class="st1" width="1.6" height="11"/>
			<rect x="562.8" y="429.7" class="st1" width="1.6" height="11"/>
			<polygon class="st1" points="554.6,440.5 553.8,439.6 562.9,428.8 563.6,429.6 			"/>
			<polygon class="st1" points="562.9,440.5 563.6,439.6 554.6,428.8 553.8,429.6 			"/>
		</g>
		<linearGradient id="SVGID_2_" gradientUnits="userSpaceOnUse" x1="654.4302" y1="527.7725" x2="654.4302" y2="436.2803">
			<stop  offset="1.212120e-02" style="stop-color:#1F7083"/>
			<stop  offset="1" style="stop-color:#329BAE"/>
		</linearGradient>
		<polygon class="st7" points="601,436.3 707.9,527.8 601,527.8 		"/>
		<rect x="485.9" y="436.3" class="st1" width="115.1" height="91.5"/>
		<polygon class="st6" points="719.7,483.5 691.4,496.5 691.4,528.8 748,528.8 748,496.5 		"/>
		<g>
			<rect x="553" y="498.2" class="st8" width="18.3" height="24.5"/>
			<rect x="565.7" y="498.2" class="st9" width="5.7" height="23.5"/>
		</g>
		<g>
			<rect x="577.2" y="498.2" class="st8" width="18.3" height="24.5"/>
			<rect x="589.9" y="498.2" class="st9" width="5.7" height="23.5"/>
		</g>
		<polygon class="st9" points="719.7,483.5 748,496.5 748,527.8 733,527.8 733,496.2 		"/>
	</g>
	<g>
		<g>
			<polygon class="st10" points="873.2,317.4 862.4,325 862.4,343.9 884,343.9 884,325 			"/>
			<rect x="865.3" y="343.9" class="st10" width="2.3" height="15.4"/>
			<rect x="879" y="343.9" class="st10" width="2.3" height="15.4"/>
			<polygon class="st10" points="867.4,359.1 866.4,357.9 879.1,342.7 880.1,343.9 			"/>
			<polygon class="st10" points="879.1,359.1 880.1,357.9 867.4,342.7 866.4,343.9 			"/>
		</g>
		<linearGradient id="SVGID_3_" gradientUnits="userSpaceOnUse" x1="853.7227" y1="766.8672" x2="853.7227" y2="332.7852">
			<stop  offset="0" style="stop-color:#1F7994"/>
			<stop  offset="0.9879" style="stop-color:#1F7083"/>
		</linearGradient>
		<rect x="769" y="332.8" class="st11" width="169.5" height="434.1"/>
		<g>
			<g>
				<rect x="846.6" y="335.8" class="st5" width="14" height="431"/>
			</g>
			<g>
				<rect x="793.6" y="335.8" class="st5" width="14" height="431"/>
			</g>
			<g>
				<rect x="897.4" y="335.8" class="st5" width="14" height="431"/>
			</g>
		</g>
		<rect x="769" y="708.9" class="st12" width="169.5" height="58"/>
		<rect x="769" y="747.8" class="st12" width="169.5" height="19"/>
		<rect x="769" y="612.9" class="st12" width="169.5" height="154"/>
		<rect x="777.2" y="296.9" class="st13" width="67" height="36.9"/>
		<polygon class="st14" points="844.2,296.9 848.7,332.8 844.2,332.8 		"/>
	</g>
</g>
</svg>
