<svg xmlns="http://www.w3.org/2000/svg" viewBox="0 0 82.09 19.84"><defs><style>.cls-1{fill:#231f20;}</style></defs><title>logo</title><g id="Слой_2" data-name="Слой 2"><g id="Isolation_Mode" data-name="Isolation Mode"><path class="cls-1" d="M9.92,19.84a9.92,9.92,0,1,1,9.92-9.92A9.93,9.93,0,0,1,9.92,19.84Zm0-18.47a8.56,8.56,0,1,0,8.56,8.55A8.55,8.55,0,0,0,9.92,1.37Z"/><path class="cls-1" d="M22.53,4.34H27.6V5.9H24.55V7.1h2.87V8.66H24.55v2.6h-2Z"/><path class="cls-1" d="M28.83,4.43a19.15,19.15,0,0,1,2.55-.15,4.49,4.49,0,0,1,2.56.54,1.75,1.75,0,0,1,.75,1.52A1.85,1.85,0,0,1,33.41,8v0a1.83,1.83,0,0,1,1,1.22c.24.71.49,1.73.63,2H32.94a7.61,7.61,0,0,1-.56-1.58c-.22-.83-.51-1-1.19-1h-.36v2.57h-2Zm2,2.89h.6c.79,0,1.26-.31,1.26-.83s-.41-.8-1.09-.8a4.23,4.23,0,0,0-.77,0Z"/><path class="cls-1" d="M39.29,11.39a3.5,3.5,0,0,1-3.82-3.53,3.64,3.64,0,0,1,3.94-3.65c2.44,0,3.89,1.52,3.89,3.55s-1.53,3.63-4,3.63Zm.1-1.5c1.1,0,1.76-.89,1.76-2.08a1.79,1.79,0,1,0-3.53,0,1.85,1.85,0,0,0,1.76,2.08Z"/><path class="cls-1" d="M44.38,11.26V4.34h2.54l1.19,2A20.54,20.54,0,0,1,49.38,9h0a21.06,21.06,0,0,1-.14-2.81V4.34h1.87v6.92H48.93L47.62,9a29,29,0,0,1-1.39-2.68h0c.06,1,.07,2.06.07,3.1v1.87Z"/><path class="cls-1" d="M54.12,5.92h-2V4.34h6.13V5.92H56.14v5.34h-2Z"/><path class="cls-1" d="M59.17,4.34h2v5.3H64.3v1.62H59.17Z"/><path class="cls-1" d="M67.3,4.34v6.92h-2V4.34Z"/><path class="cls-1" d="M68.67,11.26V4.34h2.54l1.18,2A20.57,20.57,0,0,1,73.67,9h0a21.06,21.06,0,0,1-.14-2.81V4.34h1.87v6.92H73.22L71.91,9a29,29,0,0,1-1.39-2.68h0c0,1,.06,2.06.06,3.1v1.87Z"/><path class="cls-1" d="M81.75,8.52H78.82V9.7h3.27v1.56H76.8V4.34h5.13V5.9H78.82V7h2.93Z"/><path class="cls-1" d="M24.4,16.75a1.94,1.94,0,0,1-.83.15A1.46,1.46,0,0,1,22,15.31a1.55,1.55,0,0,1,1.64-1.64,1.58,1.58,0,0,1,.74.14l-.1.33a1.38,1.38,0,0,0-.63-.13,1.16,1.16,0,0,0-1.22,1.29,1.14,1.14,0,0,0,1.2,1.26,1.58,1.58,0,0,0,.66-.13Z"/><path class="cls-1" d="M24.91,13.76a4.34,4.34,0,0,1,.78-.07,1.24,1.24,0,0,1,.9.26.78.78,0,0,1,.25.6.82.82,0,0,1-.59.8h0a.79.79,0,0,1,.46.63,5.43,5.43,0,0,0,.24.87h-.42a4.38,4.38,0,0,1-.21-.75c-.09-.44-.26-.6-.63-.61h-.38v1.36h-.4Zm.4,1.43h.42c.43,0,.7-.24.7-.6s-.29-.58-.72-.58a1.77,1.77,0,0,0-.4,0Z"/><path class="cls-1" d="M29,15.38H27.82v1.14h1.36v.34H27.41V13.72h1.7v.34H27.82v1H29Z"/><path class="cls-1" d="M30.22,15.87l-.33,1h-.42l1.07-3.14H31l1.07,3.14h-.44l-.33-1Zm1-.32-.31-.9c-.07-.21-.12-.39-.17-.57h0c-.05.18-.1.37-.16.56l-.31.91Z"/><path class="cls-1" d="M32.8,14.06h-1v-.34h2.33v.34h-1v2.8H32.8Z"/><path class="cls-1" d="M34.92,13.72v3.14h-.4V13.72Z"/><path class="cls-1" d="M36.32,16.86l-1-3.14h.44l.48,1.54a12.23,12.23,0,0,1,.34,1.18h0c.09-.37.22-.76.36-1.17l.53-1.55h.43l-1.12,3.14Z"/><path class="cls-1" d="M39.86,15.38H38.64v1.14H40v.34H38.23V13.72h1.7v.34H38.64v1h1.22Z"/><path class="cls-1" d="M41.46,16.36a1.46,1.46,0,0,0,.73.21c.41,0,.65-.22.65-.54s-.17-.46-.59-.62-.83-.45-.83-.89a.91.91,0,0,1,1-.85,1.41,1.41,0,0,1,.69.15l-.11.33a1.19,1.19,0,0,0-.6-.15c-.43,0-.59.26-.59.47s.19.44.63.61.8.46.8.92-.36.9-1.1.9a1.59,1.59,0,0,1-.8-.2Z"/><path class="cls-1" d="M46.5,15.25A1.48,1.48,0,0,1,45,16.91a1.44,1.44,0,0,1-1.41-1.6,1.49,1.49,0,0,1,1.45-1.64A1.43,1.43,0,0,1,46.5,15.25Zm-2.44.06c0,.67.36,1.27,1,1.27s1-.59,1-1.31-.33-1.27-1-1.27S44.06,14.62,44.06,15.31Z"/><path class="cls-1" d="M47,13.72h.41v2.8h1.34v.34H47Z"/><path class="cls-1" d="M49.46,13.72v1.86c0,.7.31,1,.73,1s.77-.31.77-1V13.72h.41v1.83c0,1-.51,1.36-1.19,1.36s-1.13-.37-1.13-1.34V13.72Z"/><path class="cls-1" d="M52.67,14.06h-1v-.34H54v.34h-1v2.8h-.41Z"/><path class="cls-1" d="M54.79,13.72v3.14h-.4V13.72Z"/><path class="cls-1" d="M58.19,15.25a1.48,1.48,0,0,1-1.46,1.66,1.44,1.44,0,0,1-1.41-1.6,1.49,1.49,0,0,1,1.45-1.64A1.43,1.43,0,0,1,58.19,15.25Zm-2.44.06c0,.67.36,1.27,1,1.27s1-.59,1-1.31-.33-1.27-1-1.27S55.75,14.62,55.75,15.31Z"/><path class="cls-1" d="M58.71,16.86V13.72h.45l1,1.59a7.12,7.12,0,0,1,.57,1h0c0-.42-.05-.8-.05-1.29V13.72h.38v3.14h-.41l-1-1.6c-.21-.35-.42-.7-.58-1h0c0,.4,0,.77,0,1.29v1.35Z"/><path class="cls-1" d="M61.73,16.36a1.42,1.42,0,0,0,.72.21c.42,0,.66-.22.66-.54s-.17-.46-.59-.62-.83-.45-.83-.89a.9.9,0,0,1,1-.85,1.43,1.43,0,0,1,.7.15l-.11.33a1.26,1.26,0,0,0-.6-.15c-.43,0-.59.26-.59.47s.19.44.62.61.8.46.8.92-.35.9-1.1.9a1.65,1.65,0,0,1-.8-.2Z"/><polygon class="cls-1" points="16.14 2.58 11.29 19.39 12.26 19.39 16.58 2.49 16.14 2.58"/><polygon class="cls-1" points="15.66 4.19 3.56 4.19 8.32 8.19 1.74 13.34 13.09 13.43 15.66 4.19"/></g></g></svg>