<svg xmlns="http://www.w3.org/2000/svg" viewBox="0 0 103.88 104"><defs><style>.cls-1{fill:#f3e8d6;}.cls-2,.cls-3{fill:#e5dacb;}.cls-2{fill-rule:evenodd;}</style></defs><title>moon</title><g id="Слой_2" data-name="Слой 2"><g id="Isolation_Mode" data-name="Isolation Mode"><path class="cls-1" d="M103.88,52.06A51.94,51.94,0,1,1,51.94.12,51.93,51.93,0,0,1,103.88,52.06Z"/><path class="cls-1" d="M103.88,52.06A51.94,51.94,0,1,1,51.94.12,51.93,51.93,0,0,1,103.88,52.06Z"/><path class="cls-2" d="M7.63,63.21c1.28,0,3.25-1.81,3.82-.91,1.05,0,3.56-.52,4-1.44,1.24,0,2.46-2.51,2.92-3.37,2.07-3.88-6.05-.66-6.05-2.05-.91,0-2.47-2.23-3.57-2.43-1.53-.27-3,2.24-3,3.51-.71,0,.69-1.19-1-.17-.54.33-.26,1.26-.6,1.26a10.39,10.39,0,0,1-1,2.89c0,1.14.15.7-.35,1.08-.35-1,.26-8.49-.69-8.49a34.13,34.13,0,0,1-.33,7.45c-.31,1.38-.69,1.14.16,2.31-.32,0,1.21,2,1.21,2.16,1,0,1.35,7.41,3.3,7.41a46.67,46.67,0,0,0-1-7C3.47,64.39,7.63,63.06,7.63,63.21Z"/><path class="cls-2" d="M30.57,13.49c0,1.38-4.7.37-5.56.36.3-1.14,3.18-5.06,4.52-5.06.33-1-2,.36-2.09.36a3.32,3.32,0,0,1,2.26-1.8c-.72-3-8.81,2.87-9.73,4.15-1.14,0-3.62,2.88-4.43,3.8a41,41,0,0,1-4.43,4.87c0,.72-2.68,4.37-3.31,4.7,0,.6-4.32,8.49-4.34,8.49,0,1.65-1.39,2.91-1.39,4.52-1.36,0,.49,5.82.52,6.5.92-.57,2.52-4.7,2.61-4.7.52-1.62,1.77-2.17,2.08-3.79,1.07-1,2.24-2.84,3.48-3.61,0-.78-.4-1.35.17-2,.64,0,3.25-2.37,1.2-2.66-2.89-.4,1.58-1.44,1.58-1.67.3,0,.58-1.21,1-1.45,0-1.44,1.7-1.45,3-1.45.75-2.83,4-1.37,5.91-1.26.18-1.14.09-3.07,1.74-3.07,0-.12,1.91-1.33,1.91-1.45,1.62.44.39,3.08,2.18,2.62.92-.24.26-.45.94-.45a1.54,1.54,0,0,1,1.22-.72c0-1.1,6.89-2.12,4.34-4.88C36,11.31,31.1,13.49,30.57,13.49Z"/><path class="cls-2" d="M12.5,40.08c-2.3-.71-3.92,1.93-2.44,3.44,1.63,0-1.2,2.27,1.57.36C11.63,42.69,12.85,42,12.5,40.08Z"/><path class="cls-2" d="M17,25.09c-1.46.76-2.92,3.84-3.3,5.6,2.92.86.92-1.42,3.13-2,1.4-.4,2.45.32,3.13-1,0-.79,1.15-1.45,1.74-1.45,0-1.84-2.05-1.38.34-2.71C22,19.64,17.36,23.32,17,25.09Z"/><path class="cls-2" d="M29.87,61.94c.66,0,4.52,1.49,4.52.36-2.14,0,1.84-5.13-1.12-4C31.81,58.81,29.87,60.41,29.87,61.94Z"/><path class="cls-2" d="M48.82.12c0,.4-12.52,1.09-12.52,2.53A7.27,7.27,0,0,0,33,3.73c0,1.84,2,2.1,2.78.73,2.1,1.09-4.37,4.35-4.52,4.87,1.69.42,2.29,2.17,4.35,2.17,0,2,2,2.55,3.79,2.42,2.21-.16,4.73-.25,6.46-.25,1,2.16,8.38.72,10.08.72,0-.22,5.83-.3,6.6-.36,2.39.78,3.53-1.72,6.09-2,.65-.85,1.51-1,2-1.82.72-1.34-.71-1.53-1.09-2.33-.51,0-1.92-.51-1.92-1.27-4.13-3.58,4.7-1,4.7-.54.63,0,4.34,1.24,4.34,1.81.82.29,3,1,3.3,1.63,1.22,0,2.12,2,3.65,2.34,0-2.5-8.51-4.46-8.51-6-.42,0-8.69-3.64-8.69-3.61-2.55,0-4.43-1.45-7-1.45C59.41.4,50.2-.28,48.82.12Z"/><path class="cls-2" d="M59.41,76c1.22,0,1.05-.78,1.05-1.81C59.61,74.45,59.48,75.23,59.41,76Z"/><path class="cls-2" d="M61.85,75.85c1.08,0,1.36-.74,1-1.62C61.74,74.36,61.69,75,61.85,75.85Z"/><path class="cls-2" d="M66.71,70.43c-.44,1.4-6,10.12-1.39,10.12,0-1.72-1.16-4.72,1.22-6C66.54,73.69,68.84,71.55,66.71,70.43Z"/><path class="cls-2" d="M68.8,70.62c.15-2.31-.7-3.13-.7-4.7-1.4.48-1.68,3.24-1,4.51.57-.14.49-.54,1-.54C68.1,70.28,68.45,70.51,68.8,70.62Z"/><path class="cls-2" d="M69.67,72.6c-3-.63.72,3.79,0,0Z"/><path class="cls-3" d="M84.44,39.36c0,2.15-2,4.9.17,6.69,0,2.9-1.87-.36-3.3,1.62-.57,0-1.25.88-1.73,1.27-.1,1.31.15,2.78,0,4-.14.84-1,1-1,1.75-.77.4-.12,1.8-.87,1.8-.53.84-1.33.83-2.26,1.09,0,1.18.11,2.21,0,3.61.53,0,1.51,2.41-.17,2.71A1.73,1.73,0,0,1,75.75,65c-.93-.34-1.34,0-1.21.91.59.09,2.43.06,2.43.72-1,0-1.67.35-2.61.36a21.9,21.9,0,0,0,4.34,4c-1.22.84.49,5.78-2.78,5.78,0,.17-3.08.56-3.64.9,0,1,.45,3.27-.86,3.54-1.56.32-3.21,0-4.68.31-1,.22-.94,2.33-.33,2.36,1.4.06,4.29,1.3,2.07,3.22-1,.82-1.64,1.77-2.63,1.77,0,1.29-11.36,3-8.17-4.33-.59-.23-.89,0-1.22,0,0-1.68-.9-2.91,1-4.52.25-.79,2.64-1.45,3.47-1.63.51-.28,1-1.65.29-1.86-.49-.15-1.63.33-2.2.42,0,.78-2.26.64-2.26,1.26-.54,0-2.61-.45-2.61-1.08-1,0-1.62-1.45-2.61-1.45-1.11-2.32-3.83-.56-5.55-.18-.37-1.73-.11-1.89-1.72-2.23-1,.33-1.36.17-1.24-.48-1.7-.88.84-2.08-1.89-2.29-1.28-.1-3.67-1.91-3.67-2.95a3.59,3.59,0,0,0,1.74-.18c-.25-1.82-2.86-4.33-4.52-4,0,1.31,2,.68,1,2-.62,0-.22,1.16-.17,1.44a7.38,7.38,0,0,1-2.26,0c-.36-.49-1-2-1.22-2,.1.61.29,3.44.87,3.44.39,1.22,1.74.81,1.74,2.16-1.41-.65-1.85-1.49-3-2.34,0-.76.13-2.28-.7-2.71-.31-1.92-1.41-2.49-1.74-4.7-1.86.15-5,2.64-5.91,4.52-1.83.24-4.23.79-2.26,2.53s-.17.69-.17,1.62c-1,0-.65-.69-1.39-.9-.5,2.31-1.3,2.36-1.22,5.06,1.23.28,3.91,1.24,4.91.56,2.18-1.46,3.54,2.81,6.11,1.87,1.19-.43,1.69,1.31-.73,1.23-2-.06-2.23,1-3.51,2.21-1.78,1.62-.1,2.29-3.47,2.26-.7-.66-2.44-1.8-2.44-2.71-.47,0-2.65-2-2.11-2.74,2.52-3.63-2.52-1.72-2.93-2.32,0-1.65-3.61-3.11-3.12-4,.78-1.33,1.63,1,2-.41.16-.62,2.21,1.9,2.32,2.38.48-.07,2-1.83,2.43-2.35,0,0,1-2.66,1.05-3.07-1.25-.43-.62,1.26-1.74,1.26,0-.2.1-2.76-1.22-1.44-1.16,0-.7,1.26-1.74,1.26,0-1,.53-1.17,1.22-2.16-2.81-1-2.95,1.62-4.87,1.62,0-1.06-1.47.14-1.73.36,0,.61-.81-.08-1.16.34-.51.59-.35,2-.41,2.73A10.33,10.33,0,0,1,7.63,73c-2.43,0-.84,2.7.17,2.35,0,1,1.17,2.21,1.8,3s1-.16,1,1.13a1.75,1.75,0,0,0-1.39,1.62c-.73-.2-1.23-1.74-1.83-1.87A52.06,52.06,0,0,0,24.55,96.36c.61.24,1.15.45,1.15.63.69,0,8.86,2.85,8.86,3.43,1.42.42,12.17,3.77,12.17,1.45h4.69c0-.18,1.44-.54,1.74-.54,0-.94,10.77-.88,10.77-4.52-1.09.38-2.12,1.08-3.3,1.08,0-.41,6.24-3.11,6.78-3.25.17-.81,3.7-4.51,4.17-4.51.28-1.75.87-2.94.87-5.06,2.49,0,1.65-5.78,4-5.78,1.16-.83,5.73-7.05,3-7.05C79.4,67.3,89,71.72,89,69c2.29,0,2.79-2.45,4.52-3.79,0-.74,1-1.34,1.21-2.17,1-.53,1.12-2.36,1.39-3.43,1.74-.91,1.69-3.73,4-4.34,0,.14,3-3.07,3-3.07a2.71,2.71,0,0,0,.51-1.47c0-.58,0-1.15-.07-1.72,0-.11,0-.21,0-.3-.2-1.75-1.31-2.19-1.61-3.74-.9,0-3.23-3.25-3.83-3.25,0-3.35-5.41-3-7.29-4.34-.91-1.12-3.57-3.65-5.11-2.1C85.19,35.67,83.28,39.36,84.44,39.36Z"/><path class="cls-2" d="M48,27.8c-.26-.39,11.64-9.25,10.7-10.67a8.48,8.48,0,0,0,2.55-3.23c-1.2-1.81-3.3-.79-3.22,1.1-2.78.3,1.48-7.15,1.28-7.77-1.94.7-3.67-.65-5.71.7C52.34,6,50,6.74,48.31,8c-2.08,1.6-4.51,3.34-6.22,4.47-2.44-1.45-8.75,4.76-10.43,5.87.15.23-5.55,4.12-6.28,4.67-2.87.8-2.37,4-4.71,5.94-.09,1.27-.85,2-.75,3.09.16,1.79,1.7,1,2.6,1.58.5-.32,2.23-.74,2.72,0,6.43.84-4,4-4.28,3.6-.63.42-5.1,1.62-5.47,1.06-1,.26-3.59,1-4.33.55-1.2.8-3.42-.63-5.14.07,1.64,2.47,11.33-1.16,12.31.32.42-.27,11-2.08,10.94-2.11,2.52-1.66,5.32-1.47,7.81-3.11C37.37,34.45,46.93,29.1,48,27.8Z"/><path class="cls-2" d="M53.29,28.79c1.21,2.3,6.31,4.12,5.24,6,1,1.88,4.3,5.89,6.37,5.81,1.17,2.23,6.84,2,8.81,2.06,8.93,0-4.53-11.48-2-12.8-.85-1.62,1.67-6.55,1-8.7-1-3-6.87-3.34-9.17-2.13-.66-1.26,2.8.11-.6-1.91-1.1-.65-2.5.74-2.82.13-.76.4-6,1.16-6.18.86-2.05,1.08-1.12.93-2.27.4C53,17,67.1,11,66.19,9.24c-4.31,2.27-8.64,5.06-13.68,6.44-2.77.76-2.7-.15-4,2.47-.3-.57-2.47,4.09-2.75,4.23.95,1.79-12,9.42-10.17,12.93a95.63,95.63,0,0,0,11.66-8.53C47.24,22.43,53.56,28.64,53.29,28.79Z"/></g></g></svg>