<svg xmlns="http://www.w3.org/2000/svg" viewBox="0 0 65.7 48.6"><defs><style>.cls-1{stroke:#000;stroke-linecap:round;stroke-linejoin:round;stroke-width:0.5px;}</style></defs><title>servises-4</title><g id="Слой_2" data-name="Слой 2"><g id="Layer_1" data-name="Layer 1"><path d="M62.8,0H46V1.5H62.8a1.32,1.32,0,0,1,1.3,1.3v32H1.6V2.8A1.32,1.32,0,0,1,2.9,1.5H46.47V0H2.8A2.8,2.8,0,0,0,0,2.8V38.1a2.8,2.8,0,0,0,2.8,2.8H23.4v6.2H19.7v1.5H46V47.1H42.3V40.8H62.9A2.8,2.8,0,0,0,65.7,38V2.7A2.94,2.94,0,0,0,62.8,0ZM40.7,47.1H24.9V40.8H40.7Z"/><path class="cls-1" d="M32.74,5.92A12.55,12.55,0,0,0,20.31,18.41v.11A12.54,12.54,0,0,0,32.72,31h.2A12.55,12.55,0,0,0,45.39,18.51v-.09A12.56,12.56,0,0,0,32.91,5.92Zm-.18.64v7.31A25.39,25.39,0,0,1,26.93,13a14,14,0,0,1,.83-2.17A7.38,7.38,0,0,1,32.56,6.56Zm.58.06A8.31,8.31,0,0,1,38,11.19,13,13,0,0,1,38.72,13a21.29,21.29,0,0,1-5.58.87Zm1.49,0a11.91,11.91,0,0,1,8.08,5.06c-1.25.45-2.38.83-3.43,1.13a12.28,12.28,0,0,0-.72-1.89A9.18,9.18,0,0,0,34.63,6.64Zm-4,.08a8.72,8.72,0,0,0-3.37,3.81,13.68,13.68,0,0,0-.87,2.27c-1.05-.28-2.19-.62-3.44-1A11.92,11.92,0,0,1,30.61,6.72ZM43,12.21a11.88,11.88,0,0,1,1.76,6H39.94a18.1,18.1,0,0,0-.51-4.79C40.54,13.06,41.72,12.68,43,12.21ZM22.6,12.3c1.32.42,2.5.76,3.6,1.06a20,20,0,0,0-.57,4.81H20.9A11.86,11.86,0,0,1,22.6,12.3Zm4.17,1.21a25.35,25.35,0,0,0,5.79.91v3.75H26.22A19.25,19.25,0,0,1,26.77,13.51Zm12.1,0a17.68,17.68,0,0,1,.48,4.63H33.14V14.43A21.53,21.53,0,0,0,38.87,13.54Zm-18,5.22h4.73a20.35,20.35,0,0,0,.67,4.71c-1.12.33-2.32.72-3.66,1.21A11.87,11.87,0,0,1,20.9,18.76Zm5.32,0h6.34v3.66a21.8,21.8,0,0,0-5.71.89A20.55,20.55,0,0,1,26.22,18.76Zm6.92,0h6.2a22.53,22.53,0,0,1-.74,4.48,24.53,24.53,0,0,0-5.46-.82Zm6.78,0H44.8a11.94,11.94,0,0,1-1.67,5.8c-1.46-.47-2.76-.85-4-1.17A24.72,24.72,0,0,0,39.92,18.76ZM32.56,23v7.39A6.93,6.93,0,0,1,28,26.45,14.31,14.31,0,0,1,27,23.86,20.52,20.52,0,0,1,32.56,23Zm.58,0a23.84,23.84,0,0,1,5.3.81,16.12,16.12,0,0,1-1.17,2.77,7.18,7.18,0,0,1-4.13,3.75ZM39,24c1.15.3,2.4.67,3.79,1.12a11.93,11.93,0,0,1-8.06,5.19,9.08,9.08,0,0,0,3-3.41A15.8,15.8,0,0,0,39,24ZM26.44,24a14.67,14.67,0,0,0,1.08,2.69,8.61,8.61,0,0,0,3.06,3.47,11.9,11.9,0,0,1-7.61-5c1.27-.45,2.41-.84,3.47-1.15Z"/></g></g></svg>