<svg xmlns="http://www.w3.org/2000/svg" viewBox="0 0 90 84.97"><title>servises-2</title><g id="Слой_2" data-name="Слой 2"><g id="Layer_1" data-name="Layer 1"><path d="M88.94,4.1H62.12v-3A1.06,1.06,0,0,0,61.06,0H28.94a1.06,1.06,0,0,0-1.06,1.06v3H1.06A1.05,1.05,0,0,0,0,5.15V66.3a1.05,1.05,0,0,0,1.06,1.06H16.9L8.5,79.11a3.71,3.71,0,1,0,6,4.31L26,67.36H64.93L75.39,83.3a3.7,3.7,0,1,0,6.19-4.07L73.8,67.36H88.94A1.05,1.05,0,0,0,90,66.3V5.15A1.05,1.05,0,0,0,88.94,4.1ZM87.88,65.24H2.12v-59H27.88V8.12a1.07,1.07,0,0,0,1.06,1.06H61.06a1.07,1.07,0,0,0,1.06-1.06V6.21H87.88v59Z"/><path d="M15.86,42.46A9.93,9.93,0,0,1,29,27.72l.44.35,4.58-5-.43-.36A16.67,16.67,0,0,0,11.44,47.58l4.38-5.07Z"/><path d="M29.74,43.16a9.91,9.91,0,0,1-6.58,2.5,9.77,9.77,0,0,1-3.6-.68l0,.06L16.41,51a16.6,16.6,0,0,0,18.37-3.29l-5-4.48Z"/><path d="M34.88,23.87l-4.58,5,.38.42a9.93,9.93,0,0,1,.57,12.24l-.34.45c-.12.14-.24.29-.37.43l5,4.5.37-.42c.12-.15.24-.29.35-.44a16.66,16.66,0,0,0-1-21.73Z"/><path d="M18,44.24l-.47-.3v0l0,0a4.71,4.71,0,0,1-.45-.33l-.44-.35-4.41,5.1.44.36.42.38,0,0c.41.31.84.6,1.28.88l.48.28.49.28,3.14-6Z"/><polygon points="57.81 30.59 57.81 48.41 56.3 48.41 56.3 36.88 49.79 36.88 49.79 48.41 48.23 48.41 48.23 21.94 47.12 21.94 47.12 47.56 47.12 47.66 47.12 47.85 47.12 49.52 48.34 49.52 48.37 49.52 48.41 49.52 82.29 49.52 82.29 48.41 80.35 48.41 80.35 24.02 73.84 24.02 73.84 48.41 72.33 48.41 72.33 34.47 65.83 34.47 65.83 48.41 64.31 48.41 64.31 30.59 57.81 30.59"/></g></g></svg>