<svg xmlns="http://www.w3.org/2000/svg" viewBox="0 0 350.98 358.25"><title>servises-3</title><g id="Слой_2" data-name="Слой 2"><g id="Layer_1" data-name="Layer 1"><polygon points="152.24 233.75 152.24 344.25 136.99 344.25 136.99 358.25 213.99 358.25 213.99 344.25 198.74 344.25 198.74 233.75 152.24 233.75"/><path d="M266.77,5H290l1.1,5.5h-8.71V29.84h25.33V10.5H296.22L294.12,0H262.7l-8,38.76H197.48l7-33.76h13.91l1.11,5.5h-8.72V29.84h25.33V10.5H224.56L222.45,0H200.37l-8,38.76H158.61L150.61,0H128.52l-2.1,10.5H114.91V29.84h25.33V10.5h-8.72l1.1-5.5h13.91l7,33.76H96.28L88.28,0H56.86l-2.1,10.5H43.24V29.84H68.57V10.5H59.85L61,5H84.2l7,33.76H0v189H351v-189H259.81ZM58.69,16.33ZM341,217.75H10v-169H341Z"/></g></g></svg>