<svg xmlns="http://www.w3.org/2000/svg" viewBox="0 0 65.7 56"><title>servises-1</title><g id="Слой_2" data-name="Слой 2"><g id="Layer_1" data-name="Layer 1"><path d="M13.7,5.7a2.7,2.7,0,0,0,2.6-2H27.1A13,13,0,0,0,24,6.3a11.17,11.17,0,0,0-2.6,7.2v.8l1.5-.1v-.7a9.77,9.77,0,0,1,2.2-6.2,9.88,9.88,0,0,1,4.6-3.2V5.9h6V4.1a9.88,9.88,0,0,1,4.6,3.2,10.2,10.2,0,0,1,2.2,6.2h0v.7l1.5.1v-.8h0a11.17,11.17,0,0,0-2.6-7.2,11,11,0,0,0-3.1-2.6h11a2.67,2.67,0,0,0,2.6,2,2.8,2.8,0,1,0,0-5.6,2.7,2.7,0,0,0-2.6,2H35.8V0h-6V2.3H16.3a2.67,2.67,0,0,0-2.6-2,2.8,2.8,0,0,0-2.8,2.8A2.76,2.76,0,0,0,13.7,5.7Zm38.2-4A1.32,1.32,0,0,1,53.2,3a1.3,1.3,0,0,1-2.6,0A1.4,1.4,0,0,1,51.9,1.7ZM31.3,1.5h3v3h-3Zm-17.6.2A1.32,1.32,0,0,1,15,3a1.3,1.3,0,0,1-2.6,0A1.32,1.32,0,0,1,13.7,1.7Z"/><path d="M41.7,24.3c-4-3.8-6.8-7.8-8.1-11.6l-.7-2.1-.7,2.1c-1.3,3.8-4.1,7.8-8.1,11.6l-.4.4,4.4,8.9H26v4.5H39.9V33.6H37.8l4.4-8.9Zm-8.9-2.8a1,1,0,1,1-1,1A1,1,0,0,1,32.8,21.5Zm5.5,13.6v1.5h-11V35.1h11ZM36,33.6H29.7L25.4,25a38.32,38.32,0,0,0,6.7-8.5v3.7a2.58,2.58,0,0,0-1.8,2.4,2.5,2.5,0,0,0,5,0,2.58,2.58,0,0,0-1.8-2.4V16.5A33.74,33.74,0,0,0,40.2,25Z"/><path d="M62.8,7.4H46V8.9H62.8a1.32,1.32,0,0,1,1.3,1.3v32H1.6v-32A1.32,1.32,0,0,1,2.9,8.9H19.7V7.4H2.8A2.8,2.8,0,0,0,0,10.2V45.5a2.8,2.8,0,0,0,2.8,2.8H23.4v6.2H19.7V56H46V54.5H42.3V48.2H62.9a2.8,2.8,0,0,0,2.8-2.8V10.1A2.94,2.94,0,0,0,62.8,7.4ZM40.7,54.5H24.9V48.2H40.7Z"/><path d="M25.8,20.5l-.5-.5-1.1,1a2.65,2.65,0,0,1,.5.6Z"/><path d="M21.7,15.8a5.73,5.73,0,0,0,.4,1.4l1.4-.5-.3-1.2Z"/><path d="M24.6,19a10.91,10.91,0,0,1-.6-1.1l-1.4.6c.2.4.5.9.7,1.3Z"/><path d="M43,18.5l-1.3-.7a10.91,10.91,0,0,1-.6,1.1l1.2.8A6.35,6.35,0,0,0,43,18.5Z"/><path d="M43.9,15.8l-1.4-.3-.3,1.2,1.4.5C43.7,16.7,43.8,16.3,43.9,15.8Z"/><path d="M41.4,21l-1.1-1-.5.5,1.1,1.1A2.65,2.65,0,0,1,41.4,21Z"/></g></g></svg>