<svg xmlns="http://www.w3.org/2000/svg" viewBox="0 0 65.7 48.6"><title>servises-5</title><g id="Слой_2" data-name="Слой 2"><g id="Layer_1" data-name="Layer 1"><path d="M62.8,0H46V1.5H62.8a1.32,1.32,0,0,1,1.3,1.3v32H1.6V2.8A1.32,1.32,0,0,1,2.9,1.5H46.47V0H2.8A2.8,2.8,0,0,0,0,2.8V38.1a2.8,2.8,0,0,0,2.8,2.8H23.4v6.2H19.7v1.5H46V47.1H42.3V40.8H62.9A2.8,2.8,0,0,0,65.7,38V2.7A2.94,2.94,0,0,0,62.8,0ZM40.7,47.1H24.9V40.8H40.7Z"/><path d="M32.91,15.24a2.71,2.71,0,1,0-2.68-2.7A2.7,2.7,0,0,0,32.91,15.24Zm0-4.41a1.71,1.71,0,0,1,0,3.41,1.71,1.71,0,0,1,0-3.41Z"/><path d="M35.47,15.79l-.24-.08-2.32,1.77L30.6,15.71l-.25.08a4.65,4.65,0,0,0-3.29,4.42v.49H38.76v-.49A4.65,4.65,0,0,0,35.47,15.79ZM28.1,19.7a3.59,3.59,0,0,1,2.3-2.88l2.51,1.91,2.51-1.91a3.55,3.55,0,0,1,2.3,2.88Z"/><path d="M19.67,6.22a2.11,2.11,0,0,0-2.09,2.13V22.4a2.12,2.12,0,0,0,2.09,2.14H46a2.12,2.12,0,0,0,2.09-2.14v-14A2.11,2.11,0,0,0,46,6.22ZM47.13,8.35V22.4A1.11,1.11,0,0,1,46,23.53H19.67a1.11,1.11,0,0,1-1.09-1.13v-14a1.11,1.11,0,0,1,1.09-1.13H46A1.11,1.11,0,0,1,47.13,8.35Z"/><path d="M24,32a2.18,2.18,0,0,0,2.12-1.7H48.85v-1H26.11a2.17,2.17,0,0,0-4.24,0h-5v1h5A2.19,2.19,0,0,0,24,32Z"/></g></g></svg>